<?xml version="1.0" encoding="UTF-8" standalone="no"?>
<!DOCTYPE svg PUBLIC "-//W3C//DTD SVG 1.1//EN"
 "http://www.w3.org/Graphics/SVG/1.1/DTD/svg11.dtd">
<!-- Generated by graphviz version 2.40.1 (20161225.0304)
 -->
<!-- Title: gocallvis Pages: 1 -->
<svg width="435pt" height="706pt"
 viewBox="0.00 0.00 435.23 706.00" xmlns="http://www.w3.org/2000/svg" xmlns:xlink="http://www.w3.org/1999/xlink">
<g id="graph0" class="graph" transform="scale(1 1) rotate(0) translate(0 706)">
<title>gocallvis</title>
<polygon fill="#d3d3d3" stroke="transparent" points="0,0 0,-706 435.2274,-706 435.2274,0 0,0"/>
<g id="clust1" class="cluster">
<title>cluster_focus</title>
<polygon fill="#e6ecfa" stroke="#000000" stroke-width=".5" points="8,-8 8,-698 427.2274,-698 427.2274,-8 8,-8"/>
<text text-anchor="middle" x="217.6137" y="-677.8" font-family="Arial" font-size="18.00" fill="#000000">router_identity</text>
</g>
<g id="clust4" class="cluster">
<title>cluster_github.com/go&#45;i2p/common/key_certificate.KeyCertificate</title>
<g id="a_clust4"><a xlink:title="type: github.com/go&#45;i2p/common/key_certificate.KeyCertificate">
<path fill="#eed8ae" stroke="#000000" stroke-width=".5" d="M247.606,-468C247.606,-468 395.0366,-468 395.0366,-468 401.0366,-468 407.0366,-474 407.0366,-480 407.0366,-480 407.0366,-595 407.0366,-595 407.0366,-601 401.0366,-607 395.0366,-607 395.0366,-607 247.606,-607 247.606,-607 241.606,-607 235.606,-601 235.606,-595 235.606,-595 235.606,-480 235.606,-480 235.606,-474 241.606,-468 247.606,-468"/>
<text text-anchor="middle" x="321.3213" y="-476.5" font-family="Arial" font-size="15.00" fill="#222222">(KeyCertificate)</text>
</a>
</g>
</g>
<g id="clust3" class="cluster">
<title>cluster_*github.com/sirupsen/logrus.Logger</title>
<g id="a_clust3"><a xlink:title="type: *github.com/sirupsen/logrus.Logger">
<path fill="#eed8ae" stroke="#000000" stroke-width=".5" d="M294.6607,-121C294.6607,-121 348.9819,-121 348.9819,-121 354.9819,-121 360.9819,-127 360.9819,-133 360.9819,-133 360.9819,-187 360.9819,-187 360.9819,-193 354.9819,-199 348.9819,-199 348.9819,-199 294.6607,-199 294.6607,-199 288.6607,-199 282.6607,-193 282.6607,-187 282.6607,-187 282.6607,-133 282.6607,-133 282.6607,-127 288.6607,-121 294.6607,-121"/>
<text text-anchor="middle" x="321.8213" y="-129.5" font-family="Arial" font-size="15.00" fill="#222222">(*Logger)</text>
</a>
</g>
</g>
<g id="clust2" class="cluster">
<title>cluster_*github.com/go&#45;i2p/logger.Logger</title>
<g id="a_clust2"><a xlink:title="type: *github.com/go&#45;i2p/logger.Logger">
<path fill="#eed8ae" stroke="#000000" stroke-width=".5" d="M282.2119,-207C282.2119,-207 360.4307,-207 360.4307,-207 366.4307,-207 372.4307,-213 372.4307,-219 372.4307,-219 372.4307,-395 372.4307,-395 372.4307,-401 366.4307,-407 360.4307,-407 360.4307,-407 282.2119,-407 282.2119,-407 276.2119,-407 270.2119,-401 270.2119,-395 270.2119,-395 270.2119,-219 270.2119,-219 270.2119,-213 276.2119,-207 282.2119,-207"/>
<text text-anchor="middle" x="321.3213" y="-215.5" font-family="Arial" font-size="15.00" fill="#222222">(*Logger)</text>
</a>
</g>
</g>
<!-- github.com/go&#45;i2p/common/router_identity.init -->
<g id="node1" class="node">
<title>github.com/go&#45;i2p/common/router_identity.init</title>
<g id="a_node1"><a xlink:title="github.com/go&#45;i2p/common/router_identity.init | defined in .:0&#10;at router_identity.go:14: calling [github.com/go&#45;i2p/logger.GetGoI2PLogger]">
<path fill="#add8e6" stroke="#000000" stroke-width=".5" d="M98.2076,-660C98.2076,-660 68.2076,-660 68.2076,-660 62.2076,-660 56.2076,-654 56.2076,-648 56.2076,-648 56.2076,-636 56.2076,-636 56.2076,-630 62.2076,-624 68.2076,-624 68.2076,-624 98.2076,-624 98.2076,-624 104.2076,-624 110.2076,-630 110.2076,-636 110.2076,-636 110.2076,-648 110.2076,-648 110.2076,-654 104.2076,-660 98.2076,-660"/>
<text text-anchor="middle" x="83.2076" y="-637.8" font-family="Verdana" font-size="14.00" fill="#000000">init</text>
</a>
</g>
</g>
<!-- github.com/go&#45;i2p/logger.GetGoI2PLogger -->
<g id="node2" class="node">
<title>github.com/go&#45;i2p/logger.GetGoI2PLogger</title>
<g id="a_node2"><a xlink:title="github.com/go&#45;i2p/logger.GetGoI2PLogger | defined in log.go:120">
<path fill="#ffe4b5" stroke="#000000" stroke-width="1.5" d="M370.0108,-660C370.0108,-660 272.6318,-660 272.6318,-660 266.6318,-660 260.6318,-654 260.6318,-648 260.6318,-648 260.6318,-636 260.6318,-636 260.6318,-630 266.6318,-624 272.6318,-624 272.6318,-624 370.0108,-624 370.0108,-624 376.0108,-624 382.0108,-630 382.0108,-636 382.0108,-636 382.0108,-648 382.0108,-648 382.0108,-654 376.0108,-660 370.0108,-660"/>
<text text-anchor="middle" x="321.3213" y="-646.2" font-family="Verdana" font-size="14.00" fill="#000000">logger</text>
<text text-anchor="middle" x="321.3213" y="-629.4" font-family="Verdana" font-size="14.00" fill="#000000">GetGoI2PLogger</text>
</a>
</g>
</g>
<!-- github.com/go&#45;i2p/common/router_identity.init&#45;&gt;github.com/go&#45;i2p/logger.GetGoI2PLogger -->
<g id="edge7" class="edge">
<title>github.com/go&#45;i2p/common/router_identity.init&#45;&gt;github.com/go&#45;i2p/logger.GetGoI2PLogger</title>
<g id="a_edge7"><a xlink:title="at router_identity.go:14: calling [github.com/go&#45;i2p/logger.GetGoI2PLogger]">
<path fill="none" stroke="#8b4513" d="M110.5223,-642C144.4368,-642 203.5523,-642 250.5669,-642"/>
<polygon fill="#8b4513" stroke="#8b4513" points="250.7058,-645.5001 260.7058,-642 250.7058,-638.5001 250.7058,-645.5001"/>
</a>
</g>
</g>
<!-- github.com/go&#45;i2p/common/router_identity.NewRouterIdentity -->
<g id="node3" class="node">
<title>github.com/go&#45;i2p/common/router_identity.NewRouterIdentity</title>
<g id="a_node3"><a xlink:title="github.com/go&#45;i2p/common/router_identity.NewRouterIdentity | defined in router_identity.go:55&#10;at router_identity.go:62: calling [(*github.com/go&#45;i2p/logger.Logger).WithError]&#10;at router_identity.go:69: calling [(*github.com/go&#45;i2p/logger.Logger).WithError]&#10;at router_identity.go:67: calling [github.com/go&#45;i2p/common/keys_and_cert.NewKeysAndCert]&#10;at router_identity.go:79: calling [(github.com/go&#45;i2p/common/key_certificate.KeyCertificate).PublicKeyType]&#10;at router_identity.go:80: calling [(github.com/go&#45;i2p/common/key_certificate.KeyCertificate).SigningPublicKeyType]&#10;at router_identity.go:78: calling [(*github.com/go&#45;i2p/logger.Logger).WithFields]&#10;at router_identity.go:62: calling [(*github.com/go&#45;i2p/logger.Logger).Error]&#10;at router_identity.go:69: calling [(*github.com/go&#45;i2p/logger.Logger).Error]&#10;at router_identity.go:56: calling [(*github.com/sirupsen/logrus.Logger).Debug]&#10;at router_identity.go:82: calling [(*github.com/sirupsen/logrus.Logger).Debug]&#10;at router_identity.go:60: calling [github.com/go&#45;i2p/common/key_certificate.KeyCertificateFromCertificate]">
<path fill="#add8e6" stroke="#000000" stroke-width="1.5" d="M137.2848,-393C137.2848,-393 29.1304,-393 29.1304,-393 23.1304,-393 17.1304,-387 17.1304,-381 17.1304,-381 17.1304,-369 17.1304,-369 17.1304,-363 23.1304,-357 29.1304,-357 29.1304,-357 137.2848,-357 137.2848,-357 143.2848,-357 149.2848,-363 149.2848,-369 149.2848,-369 149.2848,-381 149.2848,-381 149.2848,-387 143.2848,-393 137.2848,-393"/>
<text text-anchor="middle" x="83.2076" y="-370.8" font-family="Verdana" font-size="14.00" fill="#000000">NewRouterIdentity</text>
</a>
</g>
</g>
<!-- github.com/go&#45;i2p/common/key_certificate.KeyCertificateFromCertificate -->
<g id="node4" class="node">
<title>github.com/go&#45;i2p/common/key_certificate.KeyCertificateFromCertificate</title>
<g id="a_node4"><a xlink:title="github.com/go&#45;i2p/common/key_certificate.KeyCertificateFromCertificate | defined in key_certificate.go:399">
<path fill="#ffe4b5" stroke="#000000" stroke-width="1.5" d="M407.1336,-113C407.1336,-113 235.509,-113 235.509,-113 229.509,-113 223.509,-107 223.509,-101 223.509,-101 223.509,-89 223.509,-89 223.509,-83 229.509,-77 235.509,-77 235.509,-77 407.1336,-77 407.1336,-77 413.1336,-77 419.1336,-83 419.1336,-89 419.1336,-89 419.1336,-101 419.1336,-101 419.1336,-107 413.1336,-113 407.1336,-113"/>
<text text-anchor="middle" x="321.3213" y="-99.2" font-family="Verdana" font-size="14.00" fill="#000000">key_certificate</text>
<text text-anchor="middle" x="321.3213" y="-82.4" font-family="Verdana" font-size="14.00" fill="#000000">KeyCertificateFromCertificate</text>
</a>
</g>
</g>
<!-- github.com/go&#45;i2p/common/router_identity.NewRouterIdentity&#45;&gt;github.com/go&#45;i2p/common/key_certificate.KeyCertificateFromCertificate -->
<g id="edge14" class="edge">
<title>github.com/go&#45;i2p/common/router_identity.NewRouterIdentity&#45;&gt;github.com/go&#45;i2p/common/key_certificate.KeyCertificateFromCertificate</title>
<g id="a_edge14"><a xlink:title="at router_identity.go:60: calling [github.com/go&#45;i2p/common/key_certificate.KeyCertificateFromCertificate]">
<path fill="none" stroke="#8b4513" d="M91.9127,-356.9931C116.9545,-305.4708 189.176,-158.8907 221.6772,-120.4615"/>
<polygon fill="#8b4513" stroke="#8b4513" points="224.4105,-122.6793 229.0315,-113.1453 219.4736,-117.7167 224.4105,-122.6793"/>
</a>
</g>
</g>
<!-- github.com/go&#45;i2p/common/keys_and_cert.NewKeysAndCert -->
<g id="node5" class="node">
<title>github.com/go&#45;i2p/common/keys_and_cert.NewKeysAndCert</title>
<g id="a_node5"><a xlink:title="github.com/go&#45;i2p/common/keys_and_cert.NewKeysAndCert | defined in keys_and_cert.go:306">
<path fill="#ffe4b5" stroke="#000000" stroke-width="1.5" d="M373.2245,-460C373.2245,-460 269.4181,-460 269.4181,-460 263.4181,-460 257.4181,-454 257.4181,-448 257.4181,-448 257.4181,-436 257.4181,-436 257.4181,-430 263.4181,-424 269.4181,-424 269.4181,-424 373.2245,-424 373.2245,-424 379.2245,-424 385.2245,-430 385.2245,-436 385.2245,-436 385.2245,-448 385.2245,-448 385.2245,-454 379.2245,-460 373.2245,-460"/>
<text text-anchor="middle" x="321.3213" y="-446.2" font-family="Verdana" font-size="14.00" fill="#000000">keys_and_cert</text>
<text text-anchor="middle" x="321.3213" y="-429.4" font-family="Verdana" font-size="14.00" fill="#000000">NewKeysAndCert</text>
</a>
</g>
</g>
<!-- github.com/go&#45;i2p/common/router_identity.NewRouterIdentity&#45;&gt;github.com/go&#45;i2p/common/keys_and_cert.NewKeysAndCert -->
<g id="edge2" class="edge">
<title>github.com/go&#45;i2p/common/router_identity.NewRouterIdentity&#45;&gt;github.com/go&#45;i2p/common/keys_and_cert.NewKeysAndCert</title>
<g id="a_edge2"><a xlink:title="at router_identity.go:67: calling [github.com/go&#45;i2p/common/keys_and_cert.NewKeysAndCert]">
<path fill="none" stroke="#8b4513" d="M147.3309,-393.0429C178.2892,-401.7539 215.5946,-412.2508 247.7093,-421.2872"/>
<polygon fill="#8b4513" stroke="#8b4513" points="246.9223,-424.7016 257.4965,-424.0411 248.8184,-417.9633 246.9223,-424.7016"/>
</a>
</g>
</g>
<!-- (*github.com/go&#45;i2p/logger.Logger).WithError -->
<g id="node8" class="node">
<title>(*github.com/go&#45;i2p/logger.Logger).WithError</title>
<g id="a_node8"><a xlink:title="(*github.com/go&#45;i2p/logger.Logger).WithError | defined in log.go:66">
<path fill="#ffe4b5" stroke="#000000" stroke-width="1.5" d="M349.8528,-277C349.8528,-277 292.7898,-277 292.7898,-277 286.7898,-277 280.7898,-271 280.7898,-265 280.7898,-265 280.7898,-253 280.7898,-253 280.7898,-247 286.7898,-241 292.7898,-241 292.7898,-241 349.8528,-241 349.8528,-241 355.8528,-241 361.8528,-247 361.8528,-253 361.8528,-253 361.8528,-265 361.8528,-265 361.8528,-271 355.8528,-277 349.8528,-277"/>
<text text-anchor="middle" x="321.3213" y="-263.2" font-family="Verdana" font-size="14.00" fill="#000000">logger</text>
<text text-anchor="middle" x="321.3213" y="-246.4" font-family="Verdana" font-size="14.00" fill="#000000">WithError</text>
</a>
</g>
</g>
<!-- github.com/go&#45;i2p/common/router_identity.NewRouterIdentity&#45;&gt;(*github.com/go&#45;i2p/logger.Logger).WithError -->
<g id="edge1" class="edge">
<title>github.com/go&#45;i2p/common/router_identity.NewRouterIdentity&#45;&gt;(*github.com/go&#45;i2p/logger.Logger).WithError</title>
<g id="a_edge1"><a xlink:title="at router_identity.go:62: calling [(*github.com/go&#45;i2p/logger.Logger).WithError]&#10;at router_identity.go:69: calling [(*github.com/go&#45;i2p/logger.Logger).WithError]">
<path fill="none" stroke="#8b4513" d="M116.4852,-356.7857C137.1588,-345.2385 164.1369,-329.7472 187.4152,-315 203.8706,-304.5752 205.933,-298.5923 223.4152,-290 238.2475,-282.7101 255.1749,-276.635 270.7356,-271.8508"/>
<polygon fill="#8b4513" stroke="#8b4513" points="272.1325,-275.0875 280.7281,-268.8934 270.146,-268.3753 272.1325,-275.0875"/>
</a>
</g>
</g>
<!-- (*github.com/go&#45;i2p/logger.Logger).Error -->
<g id="node9" class="node">
<title>(*github.com/go&#45;i2p/logger.Logger).Error</title>
<g id="a_node9"><a xlink:title="(*github.com/go&#45;i2p/logger.Logger).Error | defined in log.go:42">
<path fill="#ffe4b5" stroke="#000000" stroke-width="1.5" d="M339.0876,-338C339.0876,-338 303.555,-338 303.555,-338 297.555,-338 291.555,-332 291.555,-326 291.555,-326 291.555,-314 291.555,-314 291.555,-308 297.555,-302 303.555,-302 303.555,-302 339.0876,-302 339.0876,-302 345.0876,-302 351.0876,-308 351.0876,-314 351.0876,-314 351.0876,-326 351.0876,-326 351.0876,-332 345.0876,-338 339.0876,-338"/>
<text text-anchor="middle" x="321.3213" y="-324.2" font-family="Verdana" font-size="14.00" fill="#000000">logger</text>
<text text-anchor="middle" x="321.3213" y="-307.4" font-family="Verdana" font-size="14.00" fill="#000000">Error</text>
</a>
</g>
</g>
<!-- github.com/go&#45;i2p/common/router_identity.NewRouterIdentity&#45;&gt;(*github.com/go&#45;i2p/logger.Logger).Error -->
<g id="edge8" class="edge">
<title>github.com/go&#45;i2p/common/router_identity.NewRouterIdentity&#45;&gt;(*github.com/go&#45;i2p/logger.Logger).Error</title>
<g id="a_edge8"><a xlink:title="at router_identity.go:62: calling [(*github.com/go&#45;i2p/logger.Logger).Error]&#10;at router_identity.go:69: calling [(*github.com/go&#45;i2p/logger.Logger).Error]">
<path fill="none" stroke="#8b4513" d="M149.5355,-359.6794C191.8686,-349.9012 245.3477,-337.5485 281.2958,-329.2452"/>
<polygon fill="#8b4513" stroke="#8b4513" points="282.4456,-332.5718 291.4014,-326.911 280.8702,-325.7514 282.4456,-332.5718"/>
</a>
</g>
</g>
<!-- (*github.com/go&#45;i2p/logger.Logger).WithFields -->
<g id="node10" class="node">
<title>(*github.com/go&#45;i2p/logger.Logger).WithFields</title>
<g id="a_node10"><a xlink:title="(*github.com/go&#45;i2p/logger.Logger).WithFields | defined in log.go:60">
<path fill="#ffe4b5" stroke="#000000" stroke-width="1.5" d="M352.5404,-399C352.5404,-399 290.1022,-399 290.1022,-399 284.1022,-399 278.1022,-393 278.1022,-387 278.1022,-387 278.1022,-375 278.1022,-375 278.1022,-369 284.1022,-363 290.1022,-363 290.1022,-363 352.5404,-363 352.5404,-363 358.5404,-363 364.5404,-369 364.5404,-375 364.5404,-375 364.5404,-387 364.5404,-387 364.5404,-393 358.5404,-399 352.5404,-399"/>
<text text-anchor="middle" x="321.3213" y="-385.2" font-family="Verdana" font-size="14.00" fill="#000000">logger</text>
<text text-anchor="middle" x="321.3213" y="-368.4" font-family="Verdana" font-size="14.00" fill="#000000">WithFields</text>
</a>
</g>
</g>
<!-- github.com/go&#45;i2p/common/router_identity.NewRouterIdentity&#45;&gt;(*github.com/go&#45;i2p/logger.Logger).WithFields -->
<g id="edge5" class="edge">
<title>github.com/go&#45;i2p/common/router_identity.NewRouterIdentity&#45;&gt;(*github.com/go&#45;i2p/logger.Logger).WithFields</title>
<g id="a_edge5"><a xlink:title="at router_identity.go:78: calling [(*github.com/go&#45;i2p/logger.Logger).WithFields]">
<path fill="none" stroke="#8b4513" d="M149.5355,-376.6713C186.8588,-377.6118 232.846,-378.7706 267.8442,-379.6525"/>
<polygon fill="#8b4513" stroke="#8b4513" points="267.7832,-383.152 277.8683,-379.9051 267.9596,-376.1542 267.7832,-383.152"/>
</a>
</g>
</g>
<!-- (*github.com/sirupsen/logrus.Logger).Debug -->
<g id="node11" class="node">
<title>(*github.com/sirupsen/logrus.Logger).Debug</title>
<g id="a_node11"><a xlink:title="(*github.com/sirupsen/logrus.Logger).Debug | defined in logger.go:221">
<path fill="#ffe4b5" stroke="#000000" stroke-width="1.5" d="M340.1433,-191C340.1433,-191 302.4993,-191 302.4993,-191 296.4993,-191 290.4993,-185 290.4993,-179 290.4993,-179 290.4993,-167 290.4993,-167 290.4993,-161 296.4993,-155 302.4993,-155 302.4993,-155 340.1433,-155 340.1433,-155 346.1433,-155 352.1433,-161 352.1433,-167 352.1433,-167 352.1433,-179 352.1433,-179 352.1433,-185 346.1433,-191 340.1433,-191"/>
<text text-anchor="middle" x="321.3213" y="-177.2" font-family="Verdana" font-size="14.00" fill="#000000">logrus</text>
<text text-anchor="middle" x="321.3213" y="-160.4" font-family="Verdana" font-size="14.00" fill="#000000">Debug</text>
</a>
</g>
</g>
<!-- github.com/go&#45;i2p/common/router_identity.NewRouterIdentity&#45;&gt;(*github.com/sirupsen/logrus.Logger).Debug -->
<g id="edge13" class="edge">
<title>github.com/go&#45;i2p/common/router_identity.NewRouterIdentity&#45;&gt;(*github.com/sirupsen/logrus.Logger).Debug</title>
<g id="a_edge13"><a xlink:title="at router_identity.go:56: calling [(*github.com/sirupsen/logrus.Logger).Debug]&#10;at router_identity.go:82: calling [(*github.com/sirupsen/logrus.Logger).Debug]">
<path fill="none" stroke="#8b4513" d="M111.7057,-356.9393C134.7308,-341.1267 166.6206,-316.297 187.4152,-288 212.1952,-254.2796 192.1907,-228.8594 223.4152,-201 239.0699,-187.0324 261.2498,-179.9976 280.5411,-176.4695"/>
<polygon fill="#8b4513" stroke="#8b4513" points="281.2727,-179.8976 290.6079,-174.8872 280.1857,-172.9825 281.2727,-179.8976"/>
</a>
</g>
</g>
<!-- (github.com/go&#45;i2p/common/key_certificate.KeyCertificate).PublicKeyType -->
<g id="node12" class="node">
<title>(github.com/go&#45;i2p/common/key_certificate.KeyCertificate).PublicKeyType</title>
<g id="a_node12"><a xlink:title="(github.com/go&#45;i2p/common/key_certificate.KeyCertificate).PublicKeyType | defined in key_certificate.go:130">
<path fill="#ffe4b5" stroke="#000000" stroke-width="1.5" d="M365.1882,-599C365.1882,-599 277.4544,-599 277.4544,-599 271.4544,-599 265.4544,-593 265.4544,-587 265.4544,-587 265.4544,-575 265.4544,-575 265.4544,-569 271.4544,-563 277.4544,-563 277.4544,-563 365.1882,-563 365.1882,-563 371.1882,-563 377.1882,-569 377.1882,-575 377.1882,-575 377.1882,-587 377.1882,-587 377.1882,-593 371.1882,-599 365.1882,-599"/>
<text text-anchor="middle" x="321.3213" y="-585.2" font-family="Verdana" font-size="14.00" fill="#000000">key_certificate</text>
<text text-anchor="middle" x="321.3213" y="-568.4" font-family="Verdana" font-size="14.00" fill="#000000">PublicKeyType</text>
</a>
</g>
</g>
<!-- github.com/go&#45;i2p/common/router_identity.NewRouterIdentity&#45;&gt;(github.com/go&#45;i2p/common/key_certificate.KeyCertificate).PublicKeyType -->
<g id="edge3" class="edge">
<title>github.com/go&#45;i2p/common/router_identity.NewRouterIdentity&#45;&gt;(github.com/go&#45;i2p/common/key_certificate.KeyCertificate).PublicKeyType</title>
<g id="a_edge3"><a xlink:title="at router_identity.go:79: calling [(github.com/go&#45;i2p/common/key_certificate.KeyCertificate).PublicKeyType]">
<path fill="none" stroke="#8b4513" d="M92.7203,-393.1885C112.3033,-428.86 160.6058,-508.2395 223.4152,-551 233.1738,-557.6437 244.4576,-562.8592 255.8186,-566.9406"/>
<polygon fill="#8b4513" stroke="#8b4513" points="254.7548,-570.2752 265.3483,-570.1086 256.9631,-563.6326 254.7548,-570.2752"/>
</a>
</g>
</g>
<!-- (github.com/go&#45;i2p/common/key_certificate.KeyCertificate).SigningPublicKeyType -->
<g id="node13" class="node">
<title>(github.com/go&#45;i2p/common/key_certificate.KeyCertificate).SigningPublicKeyType</title>
<g id="a_node13"><a xlink:title="(github.com/go&#45;i2p/common/key_certificate.KeyCertificate).SigningPublicKeyType | defined in key_certificate.go:121">
<path fill="#ffe4b5" stroke="#000000" stroke-width="1.5" d="M387.2525,-538C387.2525,-538 255.3901,-538 255.3901,-538 249.3901,-538 243.3901,-532 243.3901,-526 243.3901,-526 243.3901,-514 243.3901,-514 243.3901,-508 249.3901,-502 255.3901,-502 255.3901,-502 387.2525,-502 387.2525,-502 393.2525,-502 399.2525,-508 399.2525,-514 399.2525,-514 399.2525,-526 399.2525,-526 399.2525,-532 393.2525,-538 387.2525,-538"/>
<text text-anchor="middle" x="321.3213" y="-524.2" font-family="Verdana" font-size="14.00" fill="#000000">key_certificate</text>
<text text-anchor="middle" x="321.3213" y="-507.4" font-family="Verdana" font-size="14.00" fill="#000000">SigningPublicKeyType</text>
</a>
</g>
</g>
<!-- github.com/go&#45;i2p/common/router_identity.NewRouterIdentity&#45;&gt;(github.com/go&#45;i2p/common/key_certificate.KeyCertificate).SigningPublicKeyType -->
<g id="edge4" class="edge">
<title>github.com/go&#45;i2p/common/router_identity.NewRouterIdentity&#45;&gt;(github.com/go&#45;i2p/common/key_certificate.KeyCertificate).SigningPublicKeyType</title>
<g id="a_edge4"><a xlink:title="at router_identity.go:80: calling [(github.com/go&#45;i2p/common/key_certificate.KeyCertificate).SigningPublicKeyType]">
<path fill="none" stroke="#8b4513" d="M98.4136,-393.1929C122.1823,-420.3843 170.8877,-471.2799 223.4152,-498 226.7561,-499.6995 230.227,-501.2687 233.7825,-502.7175"/>
<polygon fill="#8b4513" stroke="#8b4513" points="232.7674,-506.0741 243.3602,-506.2784 235.2067,-499.5129 232.7674,-506.0741"/>
</a>
</g>
</g>
<!-- github.com/go&#45;i2p/common/router_identity.ReadRouterIdentity -->
<g id="node6" class="node">
<title>github.com/go&#45;i2p/common/router_identity.ReadRouterIdentity</title>
<g id="a_node6"><a xlink:title="github.com/go&#45;i2p/common/router_identity.ReadRouterIdentity | defined in router_identity.go:37&#10;at router_identity.go:38: calling [(*github.com/go&#45;i2p/logger.Logger).WithFields]&#10;at router_identity.go:49: calling [(*github.com/go&#45;i2p/logger.Logger).WithFields]&#10;at router_identity.go:40: calling [(*github.com/sirupsen/logrus.Logger).Debug]&#10;at router_identity.go:51: calling [(*github.com/sirupsen/logrus.Logger).Debug]&#10;at router_identity.go:41: calling [github.com/go&#45;i2p/common/keys_and_cert.ReadKeysAndCert]&#10;at router_identity.go:43: calling [(*github.com/go&#45;i2p/logger.Logger).WithError]&#10;at router_identity.go:43: calling [(*github.com/go&#45;i2p/logger.Logger).Error]">
<path fill="#add8e6" stroke="#000000" stroke-width="1.5" d="M138.6234,-218C138.6234,-218 27.7918,-218 27.7918,-218 21.7918,-218 15.7918,-212 15.7918,-206 15.7918,-206 15.7918,-194 15.7918,-194 15.7918,-188 21.7918,-182 27.7918,-182 27.7918,-182 138.6234,-182 138.6234,-182 144.6234,-182 150.6234,-188 150.6234,-194 150.6234,-194 150.6234,-206 150.6234,-206 150.6234,-212 144.6234,-218 138.6234,-218"/>
<text text-anchor="middle" x="83.2076" y="-195.8" font-family="Verdana" font-size="14.00" fill="#000000">ReadRouterIdentity</text>
</a>
</g>
</g>
<!-- github.com/go&#45;i2p/common/keys_and_cert.ReadKeysAndCert -->
<g id="node7" class="node">
<title>github.com/go&#45;i2p/common/keys_and_cert.ReadKeysAndCert</title>
<g id="a_node7"><a xlink:title="github.com/go&#45;i2p/common/keys_and_cert.ReadKeysAndCert | defined in keys_and_cert.go:145">
<path fill="#ffe4b5" stroke="#000000" stroke-width="1.5" d="M374.0622,-52C374.0622,-52 268.5804,-52 268.5804,-52 262.5804,-52 256.5804,-46 256.5804,-40 256.5804,-40 256.5804,-28 256.5804,-28 256.5804,-22 262.5804,-16 268.5804,-16 268.5804,-16 374.0622,-16 374.0622,-16 380.0622,-16 386.0622,-22 386.0622,-28 386.0622,-28 386.0622,-40 386.0622,-40 386.0622,-46 380.0622,-52 374.0622,-52"/>
<text text-anchor="middle" x="321.3213" y="-38.2" font-family="Verdana" font-size="14.00" fill="#000000">keys_and_cert</text>
<text text-anchor="middle" x="321.3213" y="-21.4" font-family="Verdana" font-size="14.00" fill="#000000">ReadKeysAndCert</text>
</a>
</g>
</g>
<!-- github.com/go&#45;i2p/common/router_identity.ReadRouterIdentity&#45;&gt;github.com/go&#45;i2p/common/keys_and_cert.ReadKeysAndCert -->
<g id="edge10" class="edge">
<title>github.com/go&#45;i2p/common/router_identity.ReadRouterIdentity&#45;&gt;github.com/go&#45;i2p/common/keys_and_cert.ReadKeysAndCert</title>
<g id="a_edge10"><a xlink:title="at router_identity.go:41: calling [github.com/go&#45;i2p/common/keys_and_cert.ReadKeysAndCert]">
<path fill="none" stroke="#8b4513" d="M97.1813,-181.9816C120.3918,-153.2268 169.6868,-96.9557 223.4152,-65 230.8191,-60.5964 238.9158,-56.7508 247.18,-53.4094"/>
<polygon fill="#8b4513" stroke="#8b4513" points="248.4486,-56.6716 256.5537,-49.8483 245.9626,-50.1279 248.4486,-56.6716"/>
</a>
</g>
</g>
<!-- github.com/go&#45;i2p/common/router_identity.ReadRouterIdentity&#45;&gt;(*github.com/go&#45;i2p/logger.Logger).WithError -->
<g id="edge11" class="edge">
<title>github.com/go&#45;i2p/common/router_identity.ReadRouterIdentity&#45;&gt;(*github.com/go&#45;i2p/logger.Logger).WithError</title>
<g id="a_edge11"><a xlink:title="at router_identity.go:43: calling [(*github.com/go&#45;i2p/logger.Logger).WithError]">
<path fill="none" stroke="#8b4513" d="M150.6747,-211.9895C162.9436,-214.4418 175.5953,-217.1511 187.4152,-220 215.2616,-226.7117 245.966,-235.5483 270.9409,-243.1128"/>
<polygon fill="#8b4513" stroke="#8b4513" points="269.9775,-246.4781 280.5637,-246.05 272.0211,-239.783 269.9775,-246.4781"/>
</a>
</g>
</g>
<!-- github.com/go&#45;i2p/common/router_identity.ReadRouterIdentity&#45;&gt;(*github.com/go&#45;i2p/logger.Logger).Error -->
<g id="edge12" class="edge">
<title>github.com/go&#45;i2p/common/router_identity.ReadRouterIdentity&#45;&gt;(*github.com/go&#45;i2p/logger.Logger).Error</title>
<g id="a_edge12"><a xlink:title="at router_identity.go:43: calling [(*github.com/go&#45;i2p/logger.Logger).Error]">
<path fill="none" stroke="#8b4513" d="M135.3161,-218.0682C152.8203,-225.5087 171.8377,-235.1889 187.4152,-247 207.2762,-262.059 202.6429,-276.2252 223.4152,-290 240.6666,-301.44 262.4792,-308.6796 281.1349,-313.1732"/>
<polygon fill="#8b4513" stroke="#8b4513" points="280.6039,-316.6405 291.1254,-315.3963 282.1244,-309.8077 280.6039,-316.6405"/>
</a>
</g>
</g>
<!-- github.com/go&#45;i2p/common/router_identity.ReadRouterIdentity&#45;&gt;(*github.com/go&#45;i2p/logger.Logger).WithFields -->
<g id="edge6" class="edge">
<title>github.com/go&#45;i2p/common/router_identity.ReadRouterIdentity&#45;&gt;(*github.com/go&#45;i2p/logger.Logger).WithFields</title>
<g id="a_edge6"><a xlink:title="at router_identity.go:38: calling [(*github.com/go&#45;i2p/logger.Logger).WithFields]&#10;at router_identity.go:49: calling [(*github.com/go&#45;i2p/logger.Logger).WithFields]">
<path fill="none" stroke="#8b4513" d="M95.2196,-218.2363C117.0066,-249.9004 166.1264,-315.0918 223.4152,-351 236.8839,-359.4421 252.8878,-365.6467 268.0129,-370.147"/>
<polygon fill="#8b4513" stroke="#8b4513" points="267.2179,-373.5586 277.7899,-372.8646 269.0926,-366.8143 267.2179,-373.5586"/>
</a>
</g>
</g>
<!-- github.com/go&#45;i2p/common/router_identity.ReadRouterIdentity&#45;&gt;(*github.com/sirupsen/logrus.Logger).Debug -->
<g id="edge9" class="edge">
<title>github.com/go&#45;i2p/common/router_identity.ReadRouterIdentity&#45;&gt;(*github.com/sirupsen/logrus.Logger).Debug</title>
<g id="a_edge9"><a xlink:title="at router_identity.go:40: calling [(*github.com/sirupsen/logrus.Logger).Debug]&#10;at router_identity.go:51: calling [(*github.com/sirupsen/logrus.Logger).Debug]">
<path fill="none" stroke="#8b4513" d="M150.4867,-192.3711C192.2932,-187.6306 244.6786,-181.6906 280.343,-177.6466"/>
<polygon fill="#8b4513" stroke="#8b4513" points="280.8476,-181.1119 290.3895,-176.5074 280.0588,-174.1565 280.8476,-181.1119"/>
</a>
</g>
</g>
</g>
</svg>
