<?xml version="1.0" encoding="UTF-8" standalone="no"?>
<!DOCTYPE svg PUBLIC "-//W3C//DTD SVG 1.1//EN"
 "http://www.w3.org/Graphics/SVG/1.1/DTD/svg11.dtd">
<!-- Generated by graphviz version 2.40.1 (20161225.0304)
 -->
<!-- Title: gocallvis Pages: 1 -->
<svg width="357pt" height="523pt"
 viewBox="0.00 0.00 356.94 523.00" xmlns="http://www.w3.org/2000/svg" xmlns:xlink="http://www.w3.org/1999/xlink">
<g id="graph0" class="graph" transform="scale(1 1) rotate(0) translate(0 523)">
<title>gocallvis</title>
<polygon fill="#d3d3d3" stroke="transparent" points="0,0 0,-523 356.9356,-523 356.9356,0 0,0"/>
<g id="clust1" class="cluster">
<title>cluster_focus</title>
<polygon fill="#e6ecfa" stroke="#000000" stroke-width=".5" points="8,-8 8,-515 348.9356,-515 348.9356,-8 8,-8"/>
<text text-anchor="middle" x="178.4678" y="-494.8" font-family="Arial" font-size="18.00" fill="#000000">destination</text>
</g>
<g id="clust5" class="cluster">
<title>cluster_github.com/go&#45;i2p/common/keys_and_cert.KeysAndCert</title>
<g id="a_clust5"><a xlink:title="type: github.com/go&#45;i2p/common/keys_and_cert.KeysAndCert">
<path fill="#eed8ae" stroke="#000000" stroke-width=".5" d="M227.6382,-346C227.6382,-346 324.4924,-346 324.4924,-346 330.4924,-346 336.4924,-352 336.4924,-358 336.4924,-358 336.4924,-412 336.4924,-412 336.4924,-418 330.4924,-424 324.4924,-424 324.4924,-424 227.6382,-424 227.6382,-424 221.6382,-424 215.6382,-418 215.6382,-412 215.6382,-412 215.6382,-358 215.6382,-358 215.6382,-352 221.6382,-346 227.6382,-346"/>
<text text-anchor="middle" x="276.0653" y="-354.5" font-family="Arial" font-size="15.00" fill="#222222">(KeysAndCert)</text>
</a>
</g>
</g>
<g id="clust4" class="cluster">
<title>cluster_github.com/go&#45;i2p/common/destination.Destination</title>
<g id="a_clust4"><a xlink:title="type: github.com/go&#45;i2p/common/destination.Destination">
<path fill="#b0c4de" stroke="#000000" stroke-width=".5" d="M28,-203C28,-203 131.0814,-203 131.0814,-203 137.0814,-203 143.0814,-209 143.0814,-215 143.0814,-215 143.0814,-391 143.0814,-391 143.0814,-397 137.0814,-403 131.0814,-403 131.0814,-403 28,-403 28,-403 22,-403 16,-397 16,-391 16,-391 16,-215 16,-215 16,-209 22,-203 28,-203"/>
<text text-anchor="middle" x="79.5407" y="-211.5" font-family="Arial" font-size="15.00" fill="#222222">(Destination)</text>
</a>
</g>
</g>
<g id="clust3" class="cluster">
<title>cluster_*github.com/sirupsen/logrus.Logger</title>
<g id="a_clust3"><a xlink:title="type: *github.com/sirupsen/logrus.Logger">
<path fill="#eed8ae" stroke="#000000" stroke-width=".5" d="M249.4047,-260C249.4047,-260 303.7259,-260 303.7259,-260 309.7259,-260 315.7259,-266 315.7259,-272 315.7259,-272 315.7259,-326 315.7259,-326 315.7259,-332 309.7259,-338 303.7259,-338 303.7259,-338 249.4047,-338 249.4047,-338 243.4047,-338 237.4047,-332 237.4047,-326 237.4047,-326 237.4047,-272 237.4047,-272 237.4047,-266 243.4047,-260 249.4047,-260"/>
<text text-anchor="middle" x="276.5653" y="-268.5" font-family="Arial" font-size="15.00" fill="#222222">(*Logger)</text>
</a>
</g>
</g>
<g id="clust2" class="cluster">
<title>cluster_*github.com/go&#45;i2p/logger.Logger</title>
<g id="a_clust2"><a xlink:title="type: *github.com/go&#45;i2p/logger.Logger">
<path fill="#eed8ae" stroke="#000000" stroke-width=".5" d="M236.9559,-121C236.9559,-121 315.1747,-121 315.1747,-121 321.1747,-121 327.1747,-127 327.1747,-133 327.1747,-133 327.1747,-187 327.1747,-187 327.1747,-193 321.1747,-199 315.1747,-199 315.1747,-199 236.9559,-199 236.9559,-199 230.9559,-199 224.9559,-193 224.9559,-187 224.9559,-187 224.9559,-133 224.9559,-133 224.9559,-127 230.9559,-121 236.9559,-121"/>
<text text-anchor="middle" x="276.0653" y="-129.5" font-family="Arial" font-size="15.00" fill="#222222">(*Logger)</text>
</a>
</g>
</g>
<!-- github.com/go&#45;i2p/common/destination.init -->
<g id="node1" class="node">
<title>github.com/go&#45;i2p/common/destination.init</title>
<g id="a_node1"><a xlink:title="github.com/go&#45;i2p/common/destination.init | defined in .:0&#10;at utils.go:9: calling [github.com/go&#45;i2p/logger.GetGoI2PLogger]">
<path fill="#add8e6" stroke="#000000" stroke-width=".5" d="M94.5407,-52C94.5407,-52 64.5407,-52 64.5407,-52 58.5407,-52 52.5407,-46 52.5407,-40 52.5407,-40 52.5407,-28 52.5407,-28 52.5407,-22 58.5407,-16 64.5407,-16 64.5407,-16 94.5407,-16 94.5407,-16 100.5407,-16 106.5407,-22 106.5407,-28 106.5407,-28 106.5407,-40 106.5407,-40 106.5407,-46 100.5407,-52 94.5407,-52"/>
<text text-anchor="middle" x="79.5407" y="-29.8" font-family="Verdana" font-size="14.00" fill="#000000">init</text>
</a>
</g>
</g>
<!-- github.com/go&#45;i2p/logger.GetGoI2PLogger -->
<g id="node2" class="node">
<title>github.com/go&#45;i2p/logger.GetGoI2PLogger</title>
<g id="a_node2"><a xlink:title="github.com/go&#45;i2p/logger.GetGoI2PLogger | defined in log.go:120">
<path fill="#ffe4b5" stroke="#000000" stroke-width="1.5" d="M324.7548,-52C324.7548,-52 227.3758,-52 227.3758,-52 221.3758,-52 215.3758,-46 215.3758,-40 215.3758,-40 215.3758,-28 215.3758,-28 215.3758,-22 221.3758,-16 227.3758,-16 227.3758,-16 324.7548,-16 324.7548,-16 330.7548,-16 336.7548,-22 336.7548,-28 336.7548,-28 336.7548,-40 336.7548,-40 336.7548,-46 330.7548,-52 324.7548,-52"/>
<text text-anchor="middle" x="276.0653" y="-38.2" font-family="Verdana" font-size="14.00" fill="#000000">logger</text>
<text text-anchor="middle" x="276.0653" y="-21.4" font-family="Verdana" font-size="14.00" fill="#000000">GetGoI2PLogger</text>
</a>
</g>
</g>
<!-- github.com/go&#45;i2p/common/destination.init&#45;&gt;github.com/go&#45;i2p/logger.GetGoI2PLogger -->
<g id="edge12" class="edge">
<title>github.com/go&#45;i2p/common/destination.init&#45;&gt;github.com/go&#45;i2p/logger.GetGoI2PLogger</title>
<g id="a_edge12"><a xlink:title="at utils.go:9: calling [github.com/go&#45;i2p/logger.GetGoI2PLogger]">
<path fill="none" stroke="#8b4513" d="M106.8666,-34C132.1954,-34 170.9888,-34 205.043,-34"/>
<polygon fill="#8b4513" stroke="#8b4513" points="205.4392,-37.5001 215.4392,-34 205.4392,-30.5001 205.4392,-37.5001"/>
</a>
</g>
</g>
<!-- github.com/go&#45;i2p/common/base32.EncodeToString -->
<g id="node3" class="node">
<title>github.com/go&#45;i2p/common/base32.EncodeToString</title>
<g id="a_node3"><a xlink:title="github.com/go&#45;i2p/common/base32.EncodeToString | defined in utils.go:5">
<path fill="#ffe4b5" stroke="#000000" stroke-width="1.5" d="M321.8244,-477C321.8244,-477 230.3062,-477 230.3062,-477 224.3062,-477 218.3062,-471 218.3062,-465 218.3062,-465 218.3062,-453 218.3062,-453 218.3062,-447 224.3062,-441 230.3062,-441 230.3062,-441 321.8244,-441 321.8244,-441 327.8244,-441 333.8244,-447 333.8244,-453 333.8244,-453 333.8244,-465 333.8244,-465 333.8244,-471 327.8244,-477 321.8244,-477"/>
<text text-anchor="middle" x="276.0653" y="-463.2" font-family="Verdana" font-size="14.00" fill="#000000">base32</text>
<text text-anchor="middle" x="276.0653" y="-446.4" font-family="Verdana" font-size="14.00" fill="#000000">EncodeToString</text>
</a>
</g>
</g>
<!-- github.com/go&#45;i2p/common/destination.ReadDestination -->
<g id="node4" class="node">
<title>github.com/go&#45;i2p/common/destination.ReadDestination</title>
<g id="a_node4"><a xlink:title="github.com/go&#45;i2p/common/destination.ReadDestination | defined in destination_struct.go:37&#10;at destination_struct.go:42: calling [github.com/go&#45;i2p/common/keys_and_cert.ReadKeysAndCert]&#10;at destination_struct.go:38: calling [(*github.com/go&#45;i2p/logger.Logger).WithFields]&#10;at destination_struct.go:47: calling [(*github.com/go&#45;i2p/logger.Logger).WithFields]&#10;at destination_struct.go:40: calling [(*github.com/sirupsen/logrus.Logger).Debug]&#10;at destination_struct.go:49: calling [(*github.com/sirupsen/logrus.Logger).Debug]">
<path fill="#add8e6" stroke="#000000" stroke-width="1.5" d="M126.3497,-145C126.3497,-145 32.7317,-145 32.7317,-145 26.7317,-145 20.7317,-139 20.7317,-133 20.7317,-133 20.7317,-121 20.7317,-121 20.7317,-115 26.7317,-109 32.7317,-109 32.7317,-109 126.3497,-109 126.3497,-109 132.3497,-109 138.3497,-115 138.3497,-121 138.3497,-121 138.3497,-133 138.3497,-133 138.3497,-139 132.3497,-145 126.3497,-145"/>
<text text-anchor="middle" x="79.5407" y="-122.8" font-family="Verdana" font-size="14.00" fill="#000000">ReadDestination</text>
</a>
</g>
</g>
<!-- github.com/go&#45;i2p/common/keys_and_cert.ReadKeysAndCert -->
<g id="node5" class="node">
<title>github.com/go&#45;i2p/common/keys_and_cert.ReadKeysAndCert</title>
<g id="a_node5"><a xlink:title="github.com/go&#45;i2p/common/keys_and_cert.ReadKeysAndCert | defined in keys_and_cert_struct.go:201">
<path fill="#ffe4b5" stroke="#000000" stroke-width="1.5" d="M328.8062,-113C328.8062,-113 223.3244,-113 223.3244,-113 217.3244,-113 211.3244,-107 211.3244,-101 211.3244,-101 211.3244,-89 211.3244,-89 211.3244,-83 217.3244,-77 223.3244,-77 223.3244,-77 328.8062,-77 328.8062,-77 334.8062,-77 340.8062,-83 340.8062,-89 340.8062,-89 340.8062,-101 340.8062,-101 340.8062,-107 334.8062,-113 328.8062,-113"/>
<text text-anchor="middle" x="276.0653" y="-99.2" font-family="Verdana" font-size="14.00" fill="#000000">keys_and_cert</text>
<text text-anchor="middle" x="276.0653" y="-82.4" font-family="Verdana" font-size="14.00" fill="#000000">ReadKeysAndCert</text>
</a>
</g>
</g>
<!-- github.com/go&#45;i2p/common/destination.ReadDestination&#45;&gt;github.com/go&#45;i2p/common/keys_and_cert.ReadKeysAndCert -->
<g id="edge1" class="edge">
<title>github.com/go&#45;i2p/common/destination.ReadDestination&#45;&gt;github.com/go&#45;i2p/common/keys_and_cert.ReadKeysAndCert</title>
<g id="a_edge1"><a xlink:title="at destination_struct.go:42: calling [github.com/go&#45;i2p/common/keys_and_cert.ReadKeysAndCert]">
<path fill="none" stroke="#8b4513" d="M138.2384,-117.4423C157.9697,-114.2294 180.2561,-110.6006 201.0657,-107.2121"/>
<polygon fill="#8b4513" stroke="#8b4513" points="201.8376,-110.6326 211.1451,-105.5709 200.7125,-103.7236 201.8376,-110.6326"/>
</a>
</g>
</g>
<!-- (*github.com/go&#45;i2p/logger.Logger).WithFields -->
<g id="node7" class="node">
<title>(*github.com/go&#45;i2p/logger.Logger).WithFields</title>
<g id="a_node7"><a xlink:title="(*github.com/go&#45;i2p/logger.Logger).WithFields | defined in log.go:60">
<path fill="#ffe4b5" stroke="#000000" stroke-width="1.5" d="M307.2844,-191C307.2844,-191 244.8462,-191 244.8462,-191 238.8462,-191 232.8462,-185 232.8462,-179 232.8462,-179 232.8462,-167 232.8462,-167 232.8462,-161 238.8462,-155 244.8462,-155 244.8462,-155 307.2844,-155 307.2844,-155 313.2844,-155 319.2844,-161 319.2844,-167 319.2844,-167 319.2844,-179 319.2844,-179 319.2844,-185 313.2844,-191 307.2844,-191"/>
<text text-anchor="middle" x="276.0653" y="-177.2" font-family="Verdana" font-size="14.00" fill="#000000">logger</text>
<text text-anchor="middle" x="276.0653" y="-160.4" font-family="Verdana" font-size="14.00" fill="#000000">WithFields</text>
</a>
</g>
</g>
<!-- github.com/go&#45;i2p/common/destination.ReadDestination&#45;&gt;(*github.com/go&#45;i2p/logger.Logger).WithFields -->
<g id="edge7" class="edge">
<title>github.com/go&#45;i2p/common/destination.ReadDestination&#45;&gt;(*github.com/go&#45;i2p/logger.Logger).WithFields</title>
<g id="a_edge7"><a xlink:title="at destination_struct.go:38: calling [(*github.com/go&#45;i2p/logger.Logger).WithFields]&#10;at destination_struct.go:47: calling [(*github.com/go&#45;i2p/logger.Logger).WithFields]">
<path fill="none" stroke="#8b4513" d="M138.3155,-138.8428C150.5282,-141.4286 163.2991,-144.2248 175.195,-147 190.6534,-150.6063 207.3694,-154.7961 222.6635,-158.7454"/>
<polygon fill="#8b4513" stroke="#8b4513" points="221.9221,-162.1689 232.4811,-161.2973 223.6832,-155.394 221.9221,-162.1689"/>
</a>
</g>
</g>
<!-- (*github.com/sirupsen/logrus.Logger).Debug -->
<g id="node8" class="node">
<title>(*github.com/sirupsen/logrus.Logger).Debug</title>
<g id="a_node8"><a xlink:title="(*github.com/sirupsen/logrus.Logger).Debug | defined in logger.go:221">
<path fill="#ffe4b5" stroke="#000000" stroke-width="1.5" d="M294.8873,-330C294.8873,-330 257.2433,-330 257.2433,-330 251.2433,-330 245.2433,-324 245.2433,-318 245.2433,-318 245.2433,-306 245.2433,-306 245.2433,-300 251.2433,-294 257.2433,-294 257.2433,-294 294.8873,-294 294.8873,-294 300.8873,-294 306.8873,-300 306.8873,-306 306.8873,-306 306.8873,-318 306.8873,-318 306.8873,-324 300.8873,-330 294.8873,-330"/>
<text text-anchor="middle" x="276.0653" y="-316.2" font-family="Verdana" font-size="14.00" fill="#000000">logrus</text>
<text text-anchor="middle" x="276.0653" y="-299.4" font-family="Verdana" font-size="14.00" fill="#000000">Debug</text>
</a>
</g>
</g>
<!-- github.com/go&#45;i2p/common/destination.ReadDestination&#45;&gt;(*github.com/sirupsen/logrus.Logger).Debug -->
<g id="edge15" class="edge">
<title>github.com/go&#45;i2p/common/destination.ReadDestination&#45;&gt;(*github.com/sirupsen/logrus.Logger).Debug</title>
<g id="a_edge15"><a xlink:title="at destination_struct.go:40: calling [(*github.com/sirupsen/logrus.Logger).Debug]&#10;at destination_struct.go:49: calling [(*github.com/sirupsen/logrus.Logger).Debug]">
<path fill="none" stroke="#8b4513" d="M97.0766,-145.2483C110.1524,-159.107 128.2395,-178.8183 143.0814,-197 175.4799,-236.6891 169.8818,-259.6998 211.195,-290 218.4411,-295.3145 227.0613,-299.4083 235.6131,-302.5392"/>
<polygon fill="#8b4513" stroke="#8b4513" points="234.5695,-305.8803 245.1624,-305.6785 236.7557,-299.2304 234.5695,-305.8803"/>
</a>
</g>
</g>
<!-- github.com/go&#45;i2p/common/base64.EncodeToString -->
<g id="node6" class="node">
<title>github.com/go&#45;i2p/common/base64.EncodeToString</title>
<g id="a_node6"><a xlink:title="github.com/go&#45;i2p/common/base64.EncodeToString | defined in utils.go:12">
<path fill="#ffe4b5" stroke="#000000" stroke-width="1.5" d="M321.8244,-252C321.8244,-252 230.3062,-252 230.3062,-252 224.3062,-252 218.3062,-246 218.3062,-240 218.3062,-240 218.3062,-228 218.3062,-228 218.3062,-222 224.3062,-216 230.3062,-216 230.3062,-216 321.8244,-216 321.8244,-216 327.8244,-216 333.8244,-222 333.8244,-228 333.8244,-228 333.8244,-240 333.8244,-240 333.8244,-246 327.8244,-252 321.8244,-252"/>
<text text-anchor="middle" x="276.0653" y="-238.2" font-family="Verdana" font-size="14.00" fill="#000000">base64</text>
<text text-anchor="middle" x="276.0653" y="-221.4" font-family="Verdana" font-size="14.00" fill="#000000">EncodeToString</text>
</a>
</g>
</g>
<!-- (github.com/go&#45;i2p/common/destination.Destination).Bytes -->
<g id="node9" class="node">
<title>(github.com/go&#45;i2p/common/destination.Destination).Bytes</title>
<g id="a_node9"><a xlink:title="(github.com/go&#45;i2p/common/destination.Destination).Bytes | defined in destination_struct.go:56&#10;at destination_struct.go:61: calling [(*github.com/go&#45;i2p/logger.Logger).WithFields]&#10;at destination_struct.go:57: calling [(*github.com/sirupsen/logrus.Logger).Debug]&#10;at destination_struct.go:63: calling [(*github.com/sirupsen/logrus.Logger).Debug]&#10;at destination_struct.go:59: calling [(github.com/go&#45;i2p/common/keys_and_cert.KeysAndCert).Bytes]">
<path fill="#add8e6" stroke="#000000" stroke-width="1.5" d="M95.4272,-334C95.4272,-334 63.6542,-334 63.6542,-334 57.6542,-334 51.6542,-328 51.6542,-322 51.6542,-322 51.6542,-310 51.6542,-310 51.6542,-304 57.6542,-298 63.6542,-298 63.6542,-298 95.4272,-298 95.4272,-298 101.4272,-298 107.4272,-304 107.4272,-310 107.4272,-310 107.4272,-322 107.4272,-322 107.4272,-328 101.4272,-334 95.4272,-334"/>
<text text-anchor="middle" x="79.5407" y="-311.8" font-family="Verdana" font-size="14.00" fill="#000000">Bytes</text>
</a>
</g>
</g>
<!-- (github.com/go&#45;i2p/common/destination.Destination).Bytes&#45;&gt;(*github.com/go&#45;i2p/logger.Logger).WithFields -->
<g id="edge3" class="edge">
<title>(github.com/go&#45;i2p/common/destination.Destination).Bytes&#45;&gt;(*github.com/go&#45;i2p/logger.Logger).WithFields</title>
<g id="a_edge3"><a xlink:title="at destination_struct.go:61: calling [(*github.com/go&#45;i2p/logger.Logger).WithFields]">
<path fill="none" stroke="#8b4513" d="M107.5227,-308.1486C119.8354,-303.463 133.6188,-296.3572 143.0814,-286 170.216,-256.2999 144.5977,-228.2467 174.195,-201 187.4495,-188.7982 205.5295,-181.8377 222.7809,-177.8927"/>
<polygon fill="#8b4513" stroke="#8b4513" points="223.6738,-181.2838 232.7997,-175.9016 222.3093,-174.4181 223.6738,-181.2838"/>
</a>
</g>
</g>
<!-- (github.com/go&#45;i2p/common/destination.Destination).Bytes&#45;&gt;(*github.com/sirupsen/logrus.Logger).Debug -->
<g id="edge6" class="edge">
<title>(github.com/go&#45;i2p/common/destination.Destination).Bytes&#45;&gt;(*github.com/sirupsen/logrus.Logger).Debug</title>
<g id="a_edge6"><a xlink:title="at destination_struct.go:57: calling [(*github.com/sirupsen/logrus.Logger).Debug]&#10;at destination_struct.go:63: calling [(*github.com/sirupsen/logrus.Logger).Debug]">
<path fill="none" stroke="#8b4513" d="M107.6979,-315.4269C141.0705,-314.7476 196.9544,-313.6102 235.1127,-312.8335"/>
<polygon fill="#8b4513" stroke="#8b4513" points="235.4452,-316.3276 245.3718,-312.6247 235.3026,-309.329 235.4452,-316.3276"/>
</a>
</g>
</g>
<!-- (github.com/go&#45;i2p/common/keys_and_cert.KeysAndCert).Bytes -->
<g id="node12" class="node">
<title>(github.com/go&#45;i2p/common/keys_and_cert.KeysAndCert).Bytes</title>
<g id="a_node12"><a xlink:title="(github.com/go&#45;i2p/common/keys_and_cert.KeysAndCert).Bytes | defined in keys_and_cert_struct.go:146">
<path fill="#ffe4b5" stroke="#000000" stroke-width="1.5" d="M316.4196,-416C316.4196,-416 235.711,-416 235.711,-416 229.711,-416 223.711,-410 223.711,-404 223.711,-404 223.711,-392 223.711,-392 223.711,-386 229.711,-380 235.711,-380 235.711,-380 316.4196,-380 316.4196,-380 322.4196,-380 328.4196,-386 328.4196,-392 328.4196,-392 328.4196,-404 328.4196,-404 328.4196,-410 322.4196,-416 316.4196,-416"/>
<text text-anchor="middle" x="276.0653" y="-402.2" font-family="Verdana" font-size="14.00" fill="#000000">keys_and_cert</text>
<text text-anchor="middle" x="276.0653" y="-385.4" font-family="Verdana" font-size="14.00" fill="#000000">Bytes</text>
</a>
</g>
</g>
<!-- (github.com/go&#45;i2p/common/destination.Destination).Bytes&#45;&gt;(github.com/go&#45;i2p/common/keys_and_cert.KeysAndCert).Bytes -->
<g id="edge13" class="edge">
<title>(github.com/go&#45;i2p/common/destination.Destination).Bytes&#45;&gt;(github.com/go&#45;i2p/common/keys_and_cert.KeysAndCert).Bytes</title>
<g id="a_edge13"><a xlink:title="at destination_struct.go:59: calling [(github.com/go&#45;i2p/common/keys_and_cert.KeysAndCert).Bytes]">
<path fill="none" stroke="#8b4513" d="M107.4897,-327.3385C118.9731,-332.5712 132.1196,-339.3297 143.0814,-347 158.8204,-358.0129 157.2031,-368.0404 174.195,-377 186.2236,-383.3425 199.9903,-387.7707 213.4318,-390.862"/>
<polygon fill="#8b4513" stroke="#8b4513" points="213.1104,-394.3698 223.613,-392.9749 214.5328,-387.5159 213.1104,-394.3698"/>
</a>
</g>
</g>
<!-- (github.com/go&#45;i2p/common/destination.Destination).Base32Address -->
<g id="node10" class="node">
<title>(github.com/go&#45;i2p/common/destination.Destination).Base32Address</title>
<g id="a_node10"><a xlink:title="(github.com/go&#45;i2p/common/destination.Destination).Base32Address | defined in destination_struct.go:69&#10;at destination_struct.go:77: calling [(*github.com/go&#45;i2p/logger.Logger).WithFields]&#10;at destination_struct.go:70: calling [(*github.com/sirupsen/logrus.Logger).Debug]&#10;at destination_struct.go:79: calling [(*github.com/sirupsen/logrus.Logger).Debug]&#10;at destination_struct.go:74: calling [github.com/go&#45;i2p/common/base32.EncodeToString]&#10;at destination_struct.go:72: calling [(github.com/go&#45;i2p/common/keys_and_cert.KeysAndCert).Bytes]">
<path fill="#add8e6" stroke="#000000" stroke-width="1.5" d="M123.1221,-395C123.1221,-395 35.9593,-395 35.9593,-395 29.9593,-395 23.9593,-389 23.9593,-383 23.9593,-383 23.9593,-371 23.9593,-371 23.9593,-365 29.9593,-359 35.9593,-359 35.9593,-359 123.1221,-359 123.1221,-359 129.1221,-359 135.1221,-365 135.1221,-371 135.1221,-371 135.1221,-383 135.1221,-383 135.1221,-389 129.1221,-395 123.1221,-395"/>
<text text-anchor="middle" x="79.5407" y="-372.8" font-family="Verdana" font-size="14.00" fill="#000000">Base32Address</text>
</a>
</g>
</g>
<!-- (github.com/go&#45;i2p/common/destination.Destination).Base32Address&#45;&gt;github.com/go&#45;i2p/common/base32.EncodeToString -->
<g id="edge10" class="edge">
<title>(github.com/go&#45;i2p/common/destination.Destination).Base32Address&#45;&gt;github.com/go&#45;i2p/common/base32.EncodeToString</title>
<g id="a_edge10"><a xlink:title="at destination_struct.go:74: calling [github.com/go&#45;i2p/common/base32.EncodeToString]">
<path fill="none" stroke="#8b4513" d="M123.1559,-395.1985C152.7726,-407.5561 192.101,-423.9658 223.4554,-437.0485"/>
<polygon fill="#8b4513" stroke="#8b4513" points="222.3339,-440.373 232.9106,-440.9937 225.0295,-433.9128 222.3339,-440.373"/>
</a>
</g>
</g>
<!-- (github.com/go&#45;i2p/common/destination.Destination).Base32Address&#45;&gt;(*github.com/go&#45;i2p/logger.Logger).WithFields -->
<g id="edge4" class="edge">
<title>(github.com/go&#45;i2p/common/destination.Destination).Base32Address&#45;&gt;(*github.com/go&#45;i2p/logger.Logger).WithFields</title>
<g id="a_edge4"><a xlink:title="at destination_struct.go:77: calling [(*github.com/go&#45;i2p/logger.Logger).WithFields]">
<path fill="none" stroke="#8b4513" d="M127.8214,-358.8399C133.3821,-355.4572 138.6405,-351.5298 143.0814,-347 194.9059,-294.1378 156.4396,-244.82 211.195,-195 214.8509,-191.6736 219.0296,-188.8475 223.465,-186.4468"/>
<polygon fill="#8b4513" stroke="#8b4513" points="225.2479,-189.4779 232.8444,-182.0926 222.3004,-183.1287 225.2479,-189.4779"/>
</a>
</g>
</g>
<!-- (github.com/go&#45;i2p/common/destination.Destination).Base32Address&#45;&gt;(*github.com/sirupsen/logrus.Logger).Debug -->
<g id="edge9" class="edge">
<title>(github.com/go&#45;i2p/common/destination.Destination).Base32Address&#45;&gt;(*github.com/sirupsen/logrus.Logger).Debug</title>
<g id="a_edge9"><a xlink:title="at destination_struct.go:70: calling [(*github.com/sirupsen/logrus.Logger).Debug]&#10;at destination_struct.go:79: calling [(*github.com/sirupsen/logrus.Logger).Debug]">
<path fill="none" stroke="#8b4513" d="M134.0228,-358.9802C166.273,-348.3135 206.432,-335.031 235.8127,-325.3134"/>
<polygon fill="#8b4513" stroke="#8b4513" points="236.9413,-328.6267 245.3364,-322.1635 234.7431,-321.9808 236.9413,-328.6267"/>
</a>
</g>
</g>
<!-- (github.com/go&#45;i2p/common/destination.Destination).Base32Address&#45;&gt;(github.com/go&#45;i2p/common/keys_and_cert.KeysAndCert).Bytes -->
<g id="edge14" class="edge">
<title>(github.com/go&#45;i2p/common/destination.Destination).Base32Address&#45;&gt;(github.com/go&#45;i2p/common/keys_and_cert.KeysAndCert).Bytes</title>
<g id="a_edge14"><a xlink:title="at destination_struct.go:72: calling [(github.com/go&#45;i2p/common/keys_and_cert.KeysAndCert).Bytes]">
<path fill="none" stroke="#8b4513" d="M133.0435,-395.0532C146.3352,-398.7601 160.6559,-402.1068 174.195,-404 186.7937,-405.7617 200.3393,-406.0632 213.3094,-405.5848"/>
<polygon fill="#8b4513" stroke="#8b4513" points="213.7559,-409.0663 223.5587,-405.0471 213.389,-402.0759 213.7559,-409.0663"/>
</a>
</g>
</g>
<!-- (github.com/go&#45;i2p/common/destination.Destination).Base64 -->
<g id="node11" class="node">
<title>(github.com/go&#45;i2p/common/destination.Destination).Base64</title>
<g id="a_node11"><a xlink:title="(github.com/go&#45;i2p/common/destination.Destination).Base64 | defined in destination_struct.go:85&#10;at destination_struct.go:88: calling [(github.com/go&#45;i2p/common/keys_and_cert.KeysAndCert).Bytes]&#10;at destination_struct.go:86: calling [(*github.com/sirupsen/logrus.Logger).Debug]&#10;at destination_struct.go:93: calling [(*github.com/sirupsen/logrus.Logger).Debug]&#10;at destination_struct.go:89: calling [github.com/go&#45;i2p/common/base64.EncodeToString]&#10;at destination_struct.go:91: calling [(*github.com/go&#45;i2p/logger.Logger).WithFields]">
<path fill="#add8e6" stroke="#000000" stroke-width="1.5" d="M100.2514,-273C100.2514,-273 58.83,-273 58.83,-273 52.83,-273 46.83,-267 46.83,-261 46.83,-261 46.83,-249 46.83,-249 46.83,-243 52.83,-237 58.83,-237 58.83,-237 100.2514,-237 100.2514,-237 106.2514,-237 112.2514,-243 112.2514,-249 112.2514,-249 112.2514,-261 112.2514,-261 112.2514,-267 106.2514,-273 100.2514,-273"/>
<text text-anchor="middle" x="79.5407" y="-250.8" font-family="Verdana" font-size="14.00" fill="#000000">Base64</text>
</a>
</g>
</g>
<!-- (github.com/go&#45;i2p/common/destination.Destination).Base64&#45;&gt;github.com/go&#45;i2p/common/base64.EncodeToString -->
<g id="edge8" class="edge">
<title>(github.com/go&#45;i2p/common/destination.Destination).Base64&#45;&gt;github.com/go&#45;i2p/common/base64.EncodeToString</title>
<g id="a_edge8"><a xlink:title="at destination_struct.go:89: calling [github.com/go&#45;i2p/common/base64.EncodeToString]">
<path fill="none" stroke="#8b4513" d="M112.4345,-251.4851C138.3658,-248.7141 175.4129,-244.7554 207.7,-241.3053"/>
<polygon fill="#8b4513" stroke="#8b4513" points="208.424,-244.7479 217.9955,-240.2052 207.6802,-237.7876 208.424,-244.7479"/>
</a>
</g>
</g>
<!-- (github.com/go&#45;i2p/common/destination.Destination).Base64&#45;&gt;(*github.com/go&#45;i2p/logger.Logger).WithFields -->
<g id="edge11" class="edge">
<title>(github.com/go&#45;i2p/common/destination.Destination).Base64&#45;&gt;(*github.com/go&#45;i2p/logger.Logger).WithFields</title>
<g id="a_edge11"><a xlink:title="at destination_struct.go:91: calling [(*github.com/go&#45;i2p/logger.Logger).WithFields]">
<path fill="none" stroke="#8b4513" d="M112.3562,-248.7196C123.055,-245.4227 134.4011,-240.4521 143.0814,-233 165.5744,-213.6896 148.8858,-189.436 174.195,-174 188.5128,-165.2677 206.1998,-162.8669 222.7959,-163.3054"/>
<polygon fill="#8b4513" stroke="#8b4513" points="222.7569,-166.8093 232.9484,-163.9141 223.1759,-159.8218 222.7569,-166.8093"/>
</a>
</g>
</g>
<!-- (github.com/go&#45;i2p/common/destination.Destination).Base64&#45;&gt;(*github.com/sirupsen/logrus.Logger).Debug -->
<g id="edge5" class="edge">
<title>(github.com/go&#45;i2p/common/destination.Destination).Base64&#45;&gt;(*github.com/sirupsen/logrus.Logger).Debug</title>
<g id="a_edge5"><a xlink:title="at destination_struct.go:86: calling [(*github.com/sirupsen/logrus.Logger).Debug]&#10;at destination_struct.go:93: calling [(*github.com/sirupsen/logrus.Logger).Debug]">
<path fill="none" stroke="#8b4513" d="M112.3247,-265.3008C130.5136,-270.9511 153.5644,-278.0057 174.195,-284 194.3505,-289.8562 216.842,-296.0717 235.5536,-301.1551"/>
<polygon fill="#8b4513" stroke="#8b4513" points="234.6734,-304.5428 245.2405,-303.7776 236.5026,-297.786 234.6734,-304.5428"/>
</a>
</g>
</g>
<!-- (github.com/go&#45;i2p/common/destination.Destination).Base64&#45;&gt;(github.com/go&#45;i2p/common/keys_and_cert.KeysAndCert).Bytes -->
<g id="edge2" class="edge">
<title>(github.com/go&#45;i2p/common/destination.Destination).Base64&#45;&gt;(github.com/go&#45;i2p/common/keys_and_cert.KeysAndCert).Bytes</title>
<g id="a_edge2"><a xlink:title="at destination_struct.go:88: calling [(github.com/go&#45;i2p/common/keys_and_cert.KeysAndCert).Bytes]">
<path fill="none" stroke="#8b4513" d="M112.4015,-269.0948C122.5338,-273.947 133.5309,-279.7477 143.0814,-286 176.3478,-307.7779 180.7788,-318.3917 211.195,-344 222.6508,-353.6449 235.298,-364.1948 246.3599,-373.3902"/>
<polygon fill="#8b4513" stroke="#8b4513" points="244.1657,-376.1175 254.0948,-379.8141 248.638,-370.7325 244.1657,-376.1175"/>
</a>
</g>
</g>
</g>
</svg>
