<?xml version="1.0" encoding="UTF-8" standalone="no"?>
<!DOCTYPE svg PUBLIC "-//W3C//DTD SVG 1.1//EN"
 "http://www.w3.org/Graphics/SVG/1.1/DTD/svg11.dtd">
<!-- Generated by graphviz version 2.40.1 (20161225.0304)
 -->
<!-- Title: gocallvis Pages: 1 -->
<svg width="357pt" height="531pt"
 viewBox="0.00 0.00 356.94 531.00" xmlns="http://www.w3.org/2000/svg" xmlns:xlink="http://www.w3.org/1999/xlink">
<g id="graph0" class="graph" transform="scale(1 1) rotate(0) translate(0 531)">
<title>gocallvis</title>
<polygon fill="#d3d3d3" stroke="transparent" points="0,0 0,-531 356.9356,-531 356.9356,0 0,0"/>
<g id="clust1" class="cluster">
<title>cluster_focus</title>
<polygon fill="#e6ecfa" stroke="#000000" stroke-width=".5" points="8,-8 8,-523 348.9356,-523 348.9356,-8 8,-8"/>
<text text-anchor="middle" x="178.4678" y="-502.8" font-family="Arial" font-size="18.00" fill="#000000">destination</text>
</g>
<g id="clust5" class="cluster">
<title>cluster_github.com/go&#45;i2p/common/keys_and_cert.KeysAndCert</title>
<g id="a_clust5"><a xlink:title="type: github.com/go&#45;i2p/common/keys_and_cert.KeysAndCert">
<path fill="#eed8ae" stroke="#000000" stroke-width=".5" d="M227.6382,-354C227.6382,-354 324.4924,-354 324.4924,-354 330.4924,-354 336.4924,-360 336.4924,-366 336.4924,-366 336.4924,-420 336.4924,-420 336.4924,-426 330.4924,-432 324.4924,-432 324.4924,-432 227.6382,-432 227.6382,-432 221.6382,-432 215.6382,-426 215.6382,-420 215.6382,-420 215.6382,-366 215.6382,-366 215.6382,-360 221.6382,-354 227.6382,-354"/>
<text text-anchor="middle" x="276.0653" y="-362.5" font-family="Arial" font-size="15.00" fill="#222222">(KeysAndCert)</text>
</a>
</g>
</g>
<g id="clust4" class="cluster">
<title>cluster_github.com/go&#45;i2p/common/destination.Destination</title>
<g id="a_clust4"><a xlink:title="type: github.com/go&#45;i2p/common/destination.Destination">
<path fill="#b0c4de" stroke="#000000" stroke-width=".5" d="M28,-210C28,-210 131.0814,-210 131.0814,-210 137.0814,-210 143.0814,-216 143.0814,-222 143.0814,-222 143.0814,-398 143.0814,-398 143.0814,-404 137.0814,-410 131.0814,-410 131.0814,-410 28,-410 28,-410 22,-410 16,-404 16,-398 16,-398 16,-222 16,-222 16,-216 22,-210 28,-210"/>
<text text-anchor="middle" x="79.5407" y="-218.5" font-family="Arial" font-size="15.00" fill="#222222">(Destination)</text>
</a>
</g>
</g>
<g id="clust3" class="cluster">
<title>cluster_*github.com/sirupsen/logrus.Logger</title>
<g id="a_clust3"><a xlink:title="type: *github.com/sirupsen/logrus.Logger">
<path fill="#eed8ae" stroke="#000000" stroke-width=".5" d="M249.4047,-268C249.4047,-268 303.7259,-268 303.7259,-268 309.7259,-268 315.7259,-274 315.7259,-280 315.7259,-280 315.7259,-334 315.7259,-334 315.7259,-340 309.7259,-346 303.7259,-346 303.7259,-346 249.4047,-346 249.4047,-346 243.4047,-346 237.4047,-340 237.4047,-334 237.4047,-334 237.4047,-280 237.4047,-280 237.4047,-274 243.4047,-268 249.4047,-268"/>
<text text-anchor="middle" x="276.5653" y="-276.5" font-family="Arial" font-size="15.00" fill="#222222">(*Logger)</text>
</a>
</g>
</g>
<g id="clust2" class="cluster">
<title>cluster_*github.com/go&#45;i2p/logger.Logger</title>
<g id="a_clust2"><a xlink:title="type: *github.com/go&#45;i2p/logger.Logger">
<path fill="#eed8ae" stroke="#000000" stroke-width=".5" d="M236.9559,-182C236.9559,-182 315.1747,-182 315.1747,-182 321.1747,-182 327.1747,-188 327.1747,-194 327.1747,-194 327.1747,-248 327.1747,-248 327.1747,-254 321.1747,-260 315.1747,-260 315.1747,-260 236.9559,-260 236.9559,-260 230.9559,-260 224.9559,-254 224.9559,-248 224.9559,-248 224.9559,-194 224.9559,-194 224.9559,-188 230.9559,-182 236.9559,-182"/>
<text text-anchor="middle" x="276.0653" y="-190.5" font-family="Arial" font-size="15.00" fill="#222222">(*Logger)</text>
</a>
</g>
</g>
<!-- github.com/go&#45;i2p/common/base32.EncodeToString -->
<g id="node1" class="node">
<title>github.com/go&#45;i2p/common/base32.EncodeToString</title>
<g id="a_node1"><a xlink:title="github.com/go&#45;i2p/common/base32.EncodeToString | defined in utils.go:8">
<path fill="#ffe4b5" stroke="#000000" stroke-width="1.5" d="M321.8244,-485C321.8244,-485 230.3062,-485 230.3062,-485 224.3062,-485 218.3062,-479 218.3062,-473 218.3062,-473 218.3062,-461 218.3062,-461 218.3062,-455 224.3062,-449 230.3062,-449 230.3062,-449 321.8244,-449 321.8244,-449 327.8244,-449 333.8244,-455 333.8244,-461 333.8244,-461 333.8244,-473 333.8244,-473 333.8244,-479 327.8244,-485 321.8244,-485"/>
<text text-anchor="middle" x="276.0653" y="-471.2" font-family="Verdana" font-size="14.00" fill="#000000">base32</text>
<text text-anchor="middle" x="276.0653" y="-454.4" font-family="Verdana" font-size="14.00" fill="#000000">EncodeToString</text>
</a>
</g>
</g>
<!-- github.com/go&#45;i2p/common/destination.ReadDestination -->
<g id="node2" class="node">
<title>github.com/go&#45;i2p/common/destination.ReadDestination</title>
<g id="a_node2"><a xlink:title="github.com/go&#45;i2p/common/destination.ReadDestination | defined in destination_struct.go:37&#10;at destination_struct.go:38: calling [(*github.com/go&#45;i2p/logger.Logger).WithFields]&#10;at destination_struct.go:47: calling [(*github.com/go&#45;i2p/logger.Logger).WithFields]&#10;at destination_struct.go:40: calling [(*github.com/sirupsen/logrus.Logger).Debug]&#10;at destination_struct.go:49: calling [(*github.com/sirupsen/logrus.Logger).Debug]&#10;at destination_struct.go:42: calling [github.com/go&#45;i2p/common/keys_and_cert.ReadKeysAndCert]">
<path fill="#add8e6" stroke="#000000" stroke-width="1.5" d="M126.3497,-152C126.3497,-152 32.7317,-152 32.7317,-152 26.7317,-152 20.7317,-146 20.7317,-140 20.7317,-140 20.7317,-128 20.7317,-128 20.7317,-122 26.7317,-116 32.7317,-116 32.7317,-116 126.3497,-116 126.3497,-116 132.3497,-116 138.3497,-122 138.3497,-128 138.3497,-128 138.3497,-140 138.3497,-140 138.3497,-146 132.3497,-152 126.3497,-152"/>
<text text-anchor="middle" x="79.5407" y="-129.8" font-family="Verdana" font-size="14.00" fill="#000000">ReadDestination</text>
</a>
</g>
</g>
<!-- github.com/go&#45;i2p/common/keys_and_cert.ReadKeysAndCert -->
<g id="node3" class="node">
<title>github.com/go&#45;i2p/common/keys_and_cert.ReadKeysAndCert</title>
<g id="a_node3"><a xlink:title="github.com/go&#45;i2p/common/keys_and_cert.ReadKeysAndCert | defined in keys_and_cert_struct.go:201">
<path fill="#ffe4b5" stroke="#000000" stroke-width="1.5" d="M328.8062,-113C328.8062,-113 223.3244,-113 223.3244,-113 217.3244,-113 211.3244,-107 211.3244,-101 211.3244,-101 211.3244,-89 211.3244,-89 211.3244,-83 217.3244,-77 223.3244,-77 223.3244,-77 328.8062,-77 328.8062,-77 334.8062,-77 340.8062,-83 340.8062,-89 340.8062,-89 340.8062,-101 340.8062,-101 340.8062,-107 334.8062,-113 328.8062,-113"/>
<text text-anchor="middle" x="276.0653" y="-99.2" font-family="Verdana" font-size="14.00" fill="#000000">keys_and_cert</text>
<text text-anchor="middle" x="276.0653" y="-82.4" font-family="Verdana" font-size="14.00" fill="#000000">ReadKeysAndCert</text>
</a>
</g>
</g>
<!-- github.com/go&#45;i2p/common/destination.ReadDestination&#45;&gt;github.com/go&#45;i2p/common/keys_and_cert.ReadKeysAndCert -->
<g id="edge6" class="edge">
<title>github.com/go&#45;i2p/common/destination.ReadDestination&#45;&gt;github.com/go&#45;i2p/common/keys_and_cert.ReadKeysAndCert</title>
<g id="a_edge6"><a xlink:title="at destination_struct.go:42: calling [github.com/go&#45;i2p/common/keys_and_cert.ReadKeysAndCert]">
<path fill="none" stroke="#8b4513" d="M138.2384,-122.3515C157.9697,-118.4359 180.2561,-114.0132 201.0657,-109.8835"/>
<polygon fill="#8b4513" stroke="#8b4513" points="202.0176,-113.263 211.1451,-107.8833 200.655,-106.3969 202.0176,-113.263"/>
</a>
</g>
</g>
<!-- (*github.com/go&#45;i2p/logger.Logger).WithFields -->
<g id="node7" class="node">
<title>(*github.com/go&#45;i2p/logger.Logger).WithFields</title>
<g id="a_node7"><a xlink:title="(*github.com/go&#45;i2p/logger.Logger).WithFields | defined in log.go:60">
<path fill="#ffe4b5" stroke="#000000" stroke-width="1.5" d="M307.2844,-252C307.2844,-252 244.8462,-252 244.8462,-252 238.8462,-252 232.8462,-246 232.8462,-240 232.8462,-240 232.8462,-228 232.8462,-228 232.8462,-222 238.8462,-216 244.8462,-216 244.8462,-216 307.2844,-216 307.2844,-216 313.2844,-216 319.2844,-222 319.2844,-228 319.2844,-228 319.2844,-240 319.2844,-240 319.2844,-246 313.2844,-252 307.2844,-252"/>
<text text-anchor="middle" x="276.0653" y="-238.2" font-family="Verdana" font-size="14.00" fill="#000000">logger</text>
<text text-anchor="middle" x="276.0653" y="-221.4" font-family="Verdana" font-size="14.00" fill="#000000">WithFields</text>
</a>
</g>
</g>
<!-- github.com/go&#45;i2p/common/destination.ReadDestination&#45;&gt;(*github.com/go&#45;i2p/logger.Logger).WithFields -->
<g id="edge2" class="edge">
<title>github.com/go&#45;i2p/common/destination.ReadDestination&#45;&gt;(*github.com/go&#45;i2p/logger.Logger).WithFields</title>
<g id="a_edge2"><a xlink:title="at destination_struct.go:38: calling [(*github.com/go&#45;i2p/logger.Logger).WithFields]&#10;at destination_struct.go:47: calling [(*github.com/go&#45;i2p/logger.Logger).WithFields]">
<path fill="none" stroke="#8b4513" d="M138.2423,-138.555C151.2389,-141.5904 164.3537,-146.4114 175.195,-154 200.0505,-171.3982 187.4355,-193.1325 211.195,-212 214.9551,-214.9859 219.1428,-217.5772 223.5296,-219.8241"/>
<polygon fill="#8b4513" stroke="#8b4513" points="222.185,-223.0571 232.7406,-223.9685 225.0573,-216.6735 222.185,-223.0571"/>
</a>
</g>
</g>
<!-- (*github.com/sirupsen/logrus.Logger).Debug -->
<g id="node8" class="node">
<title>(*github.com/sirupsen/logrus.Logger).Debug</title>
<g id="a_node8"><a xlink:title="(*github.com/sirupsen/logrus.Logger).Debug | defined in logger.go:221">
<path fill="#ffe4b5" stroke="#000000" stroke-width="1.5" d="M294.8873,-338C294.8873,-338 257.2433,-338 257.2433,-338 251.2433,-338 245.2433,-332 245.2433,-326 245.2433,-326 245.2433,-314 245.2433,-314 245.2433,-308 251.2433,-302 257.2433,-302 257.2433,-302 294.8873,-302 294.8873,-302 300.8873,-302 306.8873,-308 306.8873,-314 306.8873,-314 306.8873,-326 306.8873,-326 306.8873,-332 300.8873,-338 294.8873,-338"/>
<text text-anchor="middle" x="276.0653" y="-324.2" font-family="Verdana" font-size="14.00" fill="#000000">logrus</text>
<text text-anchor="middle" x="276.0653" y="-307.4" font-family="Verdana" font-size="14.00" fill="#000000">Debug</text>
</a>
</g>
</g>
<!-- github.com/go&#45;i2p/common/destination.ReadDestination&#45;&gt;(*github.com/sirupsen/logrus.Logger).Debug -->
<g id="edge3" class="edge">
<title>github.com/go&#45;i2p/common/destination.ReadDestination&#45;&gt;(*github.com/sirupsen/logrus.Logger).Debug</title>
<g id="a_edge3"><a xlink:title="at destination_struct.go:40: calling [(*github.com/sirupsen/logrus.Logger).Debug]&#10;at destination_struct.go:49: calling [(*github.com/sirupsen/logrus.Logger).Debug]">
<path fill="none" stroke="#8b4513" d="M96.5006,-152.034C121.1017,-177.952 168.4287,-226.9147 211.195,-266 221.9694,-275.8471 234.1805,-286.2067 245.0789,-295.1891"/>
<polygon fill="#8b4513" stroke="#8b4513" points="243.1549,-298.137 253.1116,-301.7583 247.5863,-292.7183 243.1549,-298.137"/>
</a>
</g>
</g>
<!-- github.com/go&#45;i2p/common/base64.EncodeToString -->
<g id="node4" class="node">
<title>github.com/go&#45;i2p/common/base64.EncodeToString</title>
<g id="a_node4"><a xlink:title="github.com/go&#45;i2p/common/base64.EncodeToString | defined in utils.go:22">
<path fill="#ffe4b5" stroke="#000000" stroke-width="1.5" d="M321.8244,-174C321.8244,-174 230.3062,-174 230.3062,-174 224.3062,-174 218.3062,-168 218.3062,-162 218.3062,-162 218.3062,-150 218.3062,-150 218.3062,-144 224.3062,-138 230.3062,-138 230.3062,-138 321.8244,-138 321.8244,-138 327.8244,-138 333.8244,-144 333.8244,-150 333.8244,-150 333.8244,-162 333.8244,-162 333.8244,-168 327.8244,-174 321.8244,-174"/>
<text text-anchor="middle" x="276.0653" y="-160.2" font-family="Verdana" font-size="14.00" fill="#000000">base64</text>
<text text-anchor="middle" x="276.0653" y="-143.4" font-family="Verdana" font-size="14.00" fill="#000000">EncodeToString</text>
</a>
</g>
</g>
<!-- github.com/go&#45;i2p/common/destination.init -->
<g id="node5" class="node">
<title>github.com/go&#45;i2p/common/destination.init</title>
<g id="a_node5"><a xlink:title="github.com/go&#45;i2p/common/destination.init | defined in .:0&#10;at utils.go:9: calling [github.com/go&#45;i2p/logger.GetGoI2PLogger]">
<path fill="#add8e6" stroke="#000000" stroke-width=".5" d="M94.5407,-52C94.5407,-52 64.5407,-52 64.5407,-52 58.5407,-52 52.5407,-46 52.5407,-40 52.5407,-40 52.5407,-28 52.5407,-28 52.5407,-22 58.5407,-16 64.5407,-16 64.5407,-16 94.5407,-16 94.5407,-16 100.5407,-16 106.5407,-22 106.5407,-28 106.5407,-28 106.5407,-40 106.5407,-40 106.5407,-46 100.5407,-52 94.5407,-52"/>
<text text-anchor="middle" x="79.5407" y="-29.8" font-family="Verdana" font-size="14.00" fill="#000000">init</text>
</a>
</g>
</g>
<!-- github.com/go&#45;i2p/logger.GetGoI2PLogger -->
<g id="node6" class="node">
<title>github.com/go&#45;i2p/logger.GetGoI2PLogger</title>
<g id="a_node6"><a xlink:title="github.com/go&#45;i2p/logger.GetGoI2PLogger | defined in log.go:120">
<path fill="#ffe4b5" stroke="#000000" stroke-width="1.5" d="M324.7548,-52C324.7548,-52 227.3758,-52 227.3758,-52 221.3758,-52 215.3758,-46 215.3758,-40 215.3758,-40 215.3758,-28 215.3758,-28 215.3758,-22 221.3758,-16 227.3758,-16 227.3758,-16 324.7548,-16 324.7548,-16 330.7548,-16 336.7548,-22 336.7548,-28 336.7548,-28 336.7548,-40 336.7548,-40 336.7548,-46 330.7548,-52 324.7548,-52"/>
<text text-anchor="middle" x="276.0653" y="-38.2" font-family="Verdana" font-size="14.00" fill="#000000">logger</text>
<text text-anchor="middle" x="276.0653" y="-21.4" font-family="Verdana" font-size="14.00" fill="#000000">GetGoI2PLogger</text>
</a>
</g>
</g>
<!-- github.com/go&#45;i2p/common/destination.init&#45;&gt;github.com/go&#45;i2p/logger.GetGoI2PLogger -->
<g id="edge14" class="edge">
<title>github.com/go&#45;i2p/common/destination.init&#45;&gt;github.com/go&#45;i2p/logger.GetGoI2PLogger</title>
<g id="a_edge14"><a xlink:title="at utils.go:9: calling [github.com/go&#45;i2p/logger.GetGoI2PLogger]">
<path fill="none" stroke="#8b4513" d="M106.8666,-34C132.1954,-34 170.9888,-34 205.043,-34"/>
<polygon fill="#8b4513" stroke="#8b4513" points="205.4392,-37.5001 215.4392,-34 205.4392,-30.5001 205.4392,-37.5001"/>
</a>
</g>
</g>
<!-- (github.com/go&#45;i2p/common/destination.Destination).Base32Address -->
<g id="node9" class="node">
<title>(github.com/go&#45;i2p/common/destination.Destination).Base32Address</title>
<g id="a_node9"><a xlink:title="(github.com/go&#45;i2p/common/destination.Destination).Base32Address | defined in destination_struct.go:69&#10;at destination_struct.go:77: calling [(*github.com/go&#45;i2p/logger.Logger).WithFields]&#10;at destination_struct.go:70: calling [(*github.com/sirupsen/logrus.Logger).Debug]&#10;at destination_struct.go:79: calling [(*github.com/sirupsen/logrus.Logger).Debug]&#10;at destination_struct.go:72: calling [(github.com/go&#45;i2p/common/keys_and_cert.KeysAndCert).Bytes]&#10;at destination_struct.go:74: calling [github.com/go&#45;i2p/common/base32.EncodeToString]">
<path fill="#add8e6" stroke="#000000" stroke-width="1.5" d="M123.1221,-402C123.1221,-402 35.9593,-402 35.9593,-402 29.9593,-402 23.9593,-396 23.9593,-390 23.9593,-390 23.9593,-378 23.9593,-378 23.9593,-372 29.9593,-366 35.9593,-366 35.9593,-366 123.1221,-366 123.1221,-366 129.1221,-366 135.1221,-372 135.1221,-378 135.1221,-378 135.1221,-390 135.1221,-390 135.1221,-396 129.1221,-402 123.1221,-402"/>
<text text-anchor="middle" x="79.5407" y="-379.8" font-family="Verdana" font-size="14.00" fill="#000000">Base32Address</text>
</a>
</g>
</g>
<!-- (github.com/go&#45;i2p/common/destination.Destination).Base32Address&#45;&gt;github.com/go&#45;i2p/common/base32.EncodeToString -->
<g id="edge12" class="edge">
<title>(github.com/go&#45;i2p/common/destination.Destination).Base32Address&#45;&gt;github.com/go&#45;i2p/common/base32.EncodeToString</title>
<g id="a_edge12"><a xlink:title="at destination_struct.go:74: calling [github.com/go&#45;i2p/common/base32.EncodeToString]">
<path fill="none" stroke="#8b4513" d="M122.1836,-402.0098C151.9547,-414.5833 191.8823,-431.4463 223.6054,-444.8441"/>
<polygon fill="#8b4513" stroke="#8b4513" points="222.5929,-448.2158 233.1667,-448.8823 225.3163,-441.7673 222.5929,-448.2158"/>
</a>
</g>
</g>
<!-- (github.com/go&#45;i2p/common/destination.Destination).Base32Address&#45;&gt;(*github.com/go&#45;i2p/logger.Logger).WithFields -->
<g id="edge1" class="edge">
<title>(github.com/go&#45;i2p/common/destination.Destination).Base32Address&#45;&gt;(*github.com/go&#45;i2p/logger.Logger).WithFields</title>
<g id="a_edge1"><a xlink:title="at destination_struct.go:77: calling [(*github.com/go&#45;i2p/logger.Logger).WithFields]">
<path fill="none" stroke="#8b4513" d="M124.9597,-365.9781C131.3599,-362.4839 137.6123,-358.4891 143.0814,-354 182.4064,-321.7218 171.3327,-293.6123 211.195,-262 215.0184,-258.9679 219.22,-256.202 223.5899,-253.6928"/>
<polygon fill="#8b4513" stroke="#8b4513" points="225.4986,-256.644 232.729,-248.8998 222.2474,-250.4448 225.4986,-256.644"/>
</a>
</g>
</g>
<!-- (github.com/go&#45;i2p/common/destination.Destination).Base32Address&#45;&gt;(*github.com/sirupsen/logrus.Logger).Debug -->
<g id="edge10" class="edge">
<title>(github.com/go&#45;i2p/common/destination.Destination).Base32Address&#45;&gt;(*github.com/sirupsen/logrus.Logger).Debug</title>
<g id="a_edge10"><a xlink:title="at destination_struct.go:70: calling [(*github.com/sirupsen/logrus.Logger).Debug]&#10;at destination_struct.go:79: calling [(*github.com/sirupsen/logrus.Logger).Debug]">
<path fill="none" stroke="#8b4513" d="M135.1042,-391.2165C148.6281,-391.0378 162.7675,-389.1476 175.195,-384 196.1,-375.3409 192.4744,-360.7098 211.195,-348 218.7161,-342.8938 227.319,-338.3975 235.7471,-334.5858"/>
<polygon fill="#8b4513" stroke="#8b4513" points="237.303,-337.7272 245.1215,-330.5773 234.5507,-331.2909 237.303,-337.7272"/>
</a>
</g>
</g>
<!-- (github.com/go&#45;i2p/common/keys_and_cert.KeysAndCert).Bytes -->
<g id="node12" class="node">
<title>(github.com/go&#45;i2p/common/keys_and_cert.KeysAndCert).Bytes</title>
<g id="a_node12"><a xlink:title="(github.com/go&#45;i2p/common/keys_and_cert.KeysAndCert).Bytes | defined in keys_and_cert_struct.go:146">
<path fill="#ffe4b5" stroke="#000000" stroke-width="1.5" d="M316.4196,-424C316.4196,-424 235.711,-424 235.711,-424 229.711,-424 223.711,-418 223.711,-412 223.711,-412 223.711,-400 223.711,-400 223.711,-394 229.711,-388 235.711,-388 235.711,-388 316.4196,-388 316.4196,-388 322.4196,-388 328.4196,-394 328.4196,-400 328.4196,-400 328.4196,-412 328.4196,-412 328.4196,-418 322.4196,-424 316.4196,-424"/>
<text text-anchor="middle" x="276.0653" y="-410.2" font-family="Verdana" font-size="14.00" fill="#000000">keys_and_cert</text>
<text text-anchor="middle" x="276.0653" y="-393.4" font-family="Verdana" font-size="14.00" fill="#000000">Bytes</text>
</a>
</g>
</g>
<!-- (github.com/go&#45;i2p/common/destination.Destination).Base32Address&#45;&gt;(github.com/go&#45;i2p/common/keys_and_cert.KeysAndCert).Bytes -->
<g id="edge11" class="edge">
<title>(github.com/go&#45;i2p/common/destination.Destination).Base32Address&#45;&gt;(github.com/go&#45;i2p/common/keys_and_cert.KeysAndCert).Bytes</title>
<g id="a_edge11"><a xlink:title="at destination_struct.go:72: calling [(github.com/go&#45;i2p/common/keys_and_cert.KeysAndCert).Bytes]">
<path fill="none" stroke="#8b4513" d="M133.0435,-402.0532C146.3352,-405.7601 160.6559,-409.1068 174.195,-411 186.787,-412.7608 200.3297,-413.1405 213.299,-412.7753"/>
<polygon fill="#8b4513" stroke="#8b4513" points="213.7077,-416.261 223.5482,-412.3349 213.4071,-409.2675 213.7077,-416.261"/>
</a>
</g>
</g>
<!-- (github.com/go&#45;i2p/common/destination.Destination).Base64 -->
<g id="node10" class="node">
<title>(github.com/go&#45;i2p/common/destination.Destination).Base64</title>
<g id="a_node10"><a xlink:title="(github.com/go&#45;i2p/common/destination.Destination).Base64 | defined in destination_struct.go:85&#10;at destination_struct.go:88: calling [(github.com/go&#45;i2p/common/keys_and_cert.KeysAndCert).Bytes]&#10;at destination_struct.go:91: calling [(*github.com/go&#45;i2p/logger.Logger).WithFields]&#10;at destination_struct.go:89: calling [github.com/go&#45;i2p/common/base64.EncodeToString]&#10;at destination_struct.go:86: calling [(*github.com/sirupsen/logrus.Logger).Debug]&#10;at destination_struct.go:93: calling [(*github.com/sirupsen/logrus.Logger).Debug]">
<path fill="#add8e6" stroke="#000000" stroke-width="1.5" d="M100.2514,-280C100.2514,-280 58.83,-280 58.83,-280 52.83,-280 46.83,-274 46.83,-268 46.83,-268 46.83,-256 46.83,-256 46.83,-250 52.83,-244 58.83,-244 58.83,-244 100.2514,-244 100.2514,-244 106.2514,-244 112.2514,-250 112.2514,-256 112.2514,-256 112.2514,-268 112.2514,-268 112.2514,-274 106.2514,-280 100.2514,-280"/>
<text text-anchor="middle" x="79.5407" y="-257.8" font-family="Verdana" font-size="14.00" fill="#000000">Base64</text>
</a>
</g>
</g>
<!-- (github.com/go&#45;i2p/common/destination.Destination).Base64&#45;&gt;github.com/go&#45;i2p/common/base64.EncodeToString -->
<g id="edge7" class="edge">
<title>(github.com/go&#45;i2p/common/destination.Destination).Base64&#45;&gt;github.com/go&#45;i2p/common/base64.EncodeToString</title>
<g id="a_edge7"><a xlink:title="at destination_struct.go:89: calling [github.com/go&#45;i2p/common/base64.EncodeToString]">
<path fill="none" stroke="#8b4513" d="M112.3368,-253.4515C122.573,-250.0575 133.6462,-245.603 143.0814,-240 175.6665,-220.6495 176.073,-201.8077 209.7521,-179.4849"/>
<polygon fill="#8b4513" stroke="#8b4513" points="211.8708,-182.2896 218.5273,-174.047 208.1835,-176.3394 211.8708,-182.2896"/>
</a>
</g>
</g>
<!-- (github.com/go&#45;i2p/common/destination.Destination).Base64&#45;&gt;(*github.com/go&#45;i2p/logger.Logger).WithFields -->
<g id="edge5" class="edge">
<title>(github.com/go&#45;i2p/common/destination.Destination).Base64&#45;&gt;(*github.com/go&#45;i2p/logger.Logger).WithFields</title>
<g id="a_edge5"><a xlink:title="at destination_struct.go:91: calling [(*github.com/go&#45;i2p/logger.Logger).WithFields]">
<path fill="none" stroke="#8b4513" d="M112.359,-250.2901C130.361,-244.4671 153.2241,-238.0375 174.195,-235 189.846,-232.7331 206.9915,-231.9277 222.6781,-231.8395"/>
<polygon fill="#8b4513" stroke="#8b4513" points="222.7324,-235.3396 232.7454,-231.8769 222.7585,-228.3396 222.7324,-235.3396"/>
</a>
</g>
</g>
<!-- (github.com/go&#45;i2p/common/destination.Destination).Base64&#45;&gt;(*github.com/sirupsen/logrus.Logger).Debug -->
<g id="edge13" class="edge">
<title>(github.com/go&#45;i2p/common/destination.Destination).Base64&#45;&gt;(*github.com/sirupsen/logrus.Logger).Debug</title>
<g id="a_edge13"><a xlink:title="at destination_struct.go:86: calling [(*github.com/sirupsen/logrus.Logger).Debug]&#10;at destination_struct.go:93: calling [(*github.com/sirupsen/logrus.Logger).Debug]">
<path fill="none" stroke="#8b4513" d="M112.4061,-257.8555C131.1178,-256.5169 154.8184,-256.5594 175.195,-262 200.2439,-268.6881 225.5299,-283.2481 244.5192,-296.106"/>
<polygon fill="#8b4513" stroke="#8b4513" points="242.5717,-299.0148 252.7775,-301.8595 246.5732,-293.2713 242.5717,-299.0148"/>
</a>
</g>
</g>
<!-- (github.com/go&#45;i2p/common/destination.Destination).Base64&#45;&gt;(github.com/go&#45;i2p/common/keys_and_cert.KeysAndCert).Bytes -->
<g id="edge4" class="edge">
<title>(github.com/go&#45;i2p/common/destination.Destination).Base64&#45;&gt;(github.com/go&#45;i2p/common/keys_and_cert.KeysAndCert).Bytes</title>
<g id="a_edge4"><a xlink:title="at destination_struct.go:88: calling [(github.com/go&#45;i2p/common/keys_and_cert.KeysAndCert).Bytes]">
<path fill="none" stroke="#8b4513" d="M112.4337,-276.0458C122.5675,-280.8957 133.5574,-286.7075 143.0814,-293 176.4971,-315.0779 180.6665,-326.076 211.195,-352 222.6099,-361.6933 235.2489,-372.2529 246.3157,-381.4425"/>
<polygon fill="#8b4513" stroke="#8b4513" points="244.1239,-384.1718 254.0561,-387.8598 248.5916,-378.7829 244.1239,-384.1718"/>
</a>
</g>
</g>
<!-- (github.com/go&#45;i2p/common/destination.Destination).Bytes -->
<g id="node11" class="node">
<title>(github.com/go&#45;i2p/common/destination.Destination).Bytes</title>
<g id="a_node11"><a xlink:title="(github.com/go&#45;i2p/common/destination.Destination).Bytes | defined in destination_struct.go:56&#10;at destination_struct.go:61: calling [(*github.com/go&#45;i2p/logger.Logger).WithFields]&#10;at destination_struct.go:57: calling [(*github.com/sirupsen/logrus.Logger).Debug]&#10;at destination_struct.go:63: calling [(*github.com/sirupsen/logrus.Logger).Debug]&#10;at destination_struct.go:59: calling [(github.com/go&#45;i2p/common/keys_and_cert.KeysAndCert).Bytes]">
<path fill="#add8e6" stroke="#000000" stroke-width="1.5" d="M95.4272,-341C95.4272,-341 63.6542,-341 63.6542,-341 57.6542,-341 51.6542,-335 51.6542,-329 51.6542,-329 51.6542,-317 51.6542,-317 51.6542,-311 57.6542,-305 63.6542,-305 63.6542,-305 95.4272,-305 95.4272,-305 101.4272,-305 107.4272,-311 107.4272,-317 107.4272,-317 107.4272,-329 107.4272,-329 107.4272,-335 101.4272,-341 95.4272,-341"/>
<text text-anchor="middle" x="79.5407" y="-318.8" font-family="Verdana" font-size="14.00" fill="#000000">Bytes</text>
</a>
</g>
</g>
<!-- (github.com/go&#45;i2p/common/destination.Destination).Bytes&#45;&gt;(*github.com/go&#45;i2p/logger.Logger).WithFields -->
<g id="edge8" class="edge">
<title>(github.com/go&#45;i2p/common/destination.Destination).Bytes&#45;&gt;(*github.com/go&#45;i2p/logger.Logger).WithFields</title>
<g id="a_edge8"><a xlink:title="at destination_struct.go:61: calling [(*github.com/go&#45;i2p/logger.Logger).WithFields]">
<path fill="none" stroke="#8b4513" d="M107.437,-309.8146C134.0191,-297.3122 175.2086,-278.0999 211.195,-262 215.5164,-260.0667 220.0091,-258.0799 224.5234,-256.0997"/>
<polygon fill="#8b4513" stroke="#8b4513" points="226.0064,-259.2714 233.7717,-252.0637 223.2065,-252.8557 226.0064,-259.2714"/>
</a>
</g>
</g>
<!-- (github.com/go&#45;i2p/common/destination.Destination).Bytes&#45;&gt;(*github.com/sirupsen/logrus.Logger).Debug -->
<g id="edge9" class="edge">
<title>(github.com/go&#45;i2p/common/destination.Destination).Bytes&#45;&gt;(*github.com/sirupsen/logrus.Logger).Debug</title>
<g id="a_edge9"><a xlink:title="at destination_struct.go:57: calling [(*github.com/sirupsen/logrus.Logger).Debug]&#10;at destination_struct.go:63: calling [(*github.com/sirupsen/logrus.Logger).Debug]">
<path fill="none" stroke="#8b4513" d="M107.6979,-322.5702C141.0705,-322.0607 196.9544,-321.2076 235.1127,-320.6252"/>
<polygon fill="#8b4513" stroke="#8b4513" points="235.4264,-324.1209 245.3718,-320.4685 235.3195,-317.1217 235.4264,-324.1209"/>
</a>
</g>
</g>
<!-- (github.com/go&#45;i2p/common/destination.Destination).Bytes&#45;&gt;(github.com/go&#45;i2p/common/keys_and_cert.KeysAndCert).Bytes -->
<g id="edge15" class="edge">
<title>(github.com/go&#45;i2p/common/destination.Destination).Bytes&#45;&gt;(github.com/go&#45;i2p/common/keys_and_cert.KeysAndCert).Bytes</title>
<g id="a_edge15"><a xlink:title="at destination_struct.go:59: calling [(github.com/go&#45;i2p/common/keys_and_cert.KeysAndCert).Bytes]">
<path fill="none" stroke="#8b4513" d="M107.6979,-334.8919C137.8032,-347.6065 186.2275,-368.058 223.433,-383.7713"/>
<polygon fill="#8b4513" stroke="#8b4513" points="222.5436,-387.195 233.1174,-387.8614 225.267,-380.7465 222.5436,-387.195"/>
</a>
</g>
</g>
</g>
</svg>
