<?xml version="1.0" encoding="UTF-8" standalone="no"?>
<!DOCTYPE svg PUBLIC "-//W3C//DTD SVG 1.1//EN"
 "http://www.w3.org/Graphics/SVG/1.1/DTD/svg11.dtd">
<!-- Generated by graphviz version 2.40.1 (20161225.0304)
 -->
<!-- Title: gocallvis Pages: 1 -->
<svg width="500pt" height="335pt"
 viewBox="0.00 0.00 499.61 335.00" xmlns="http://www.w3.org/2000/svg" xmlns:xlink="http://www.w3.org/1999/xlink">
<g id="graph0" class="graph" transform="scale(1 1) rotate(0) translate(0 335)">
<title>gocallvis</title>
<polygon fill="#d3d3d3" stroke="transparent" points="0,0 0,-335 499.6088,-335 499.6088,0 0,0"/>
<g id="clust1" class="cluster">
<title>cluster_focus</title>
<polygon fill="#e6ecfa" stroke="#000000" stroke-width=".5" points="8,-8 8,-327 491.6088,-327 491.6088,-8 8,-8"/>
<text text-anchor="middle" x="249.8044" y="-306.8" font-family="Arial" font-size="18.00" fill="#000000">session_key</text>
</g>
<g id="clust2" class="cluster">
<title>cluster_*github.com/sirupsen/logrus.Entry</title>
<g id="a_clust2"><a xlink:title="type: *github.com/sirupsen/logrus.Entry">
<path fill="#eed8ae" stroke="#000000" stroke-width=".5" d="M413.8388,-136C413.8388,-136 467.16,-136 467.16,-136 473.16,-136 479.16,-142 479.16,-148 479.16,-148 479.16,-263 479.16,-263 479.16,-269 473.16,-275 467.16,-275 467.16,-275 413.8388,-275 413.8388,-275 407.8388,-275 401.8388,-269 401.8388,-263 401.8388,-263 401.8388,-148 401.8388,-148 401.8388,-142 407.8388,-136 413.8388,-136"/>
<text text-anchor="middle" x="440.4994" y="-144.5" font-family="Arial" font-size="15.00" fill="#222222">(*Entry)</text>
</a>
</g>
</g>
<!-- github.com/go&#45;i2p/common/session_key.NewSessionKey -->
<g id="node1" class="node">
<title>github.com/go&#45;i2p/common/session_key.NewSessionKey</title>
<g id="a_node1"><a xlink:title="github.com/go&#45;i2p/common/session_key.NewSessionKey | defined in session_key_struct.go:29&#10;at session_key_struct.go:30: calling [github.com/sirupsen/logrus.WithField]&#10;at session_key_struct.go:31: calling [github.com/go&#45;i2p/common/session_key.ReadSessionKey]&#10;at session_key_struct.go:33: calling [github.com/sirupsen/logrus.WithError]&#10;at session_key_struct.go:30: calling [(*github.com/sirupsen/logrus.Entry).Debug]&#10;at session_key_struct.go:33: calling [(*github.com/sirupsen/logrus.Entry).Error]&#10;at session_key_struct.go:37: calling [github.com/sirupsen/logrus.Debug]">
<path fill="#add8e6" stroke="#000000" stroke-width="1.5" d="M120.29,-200C120.29,-200 28.236,-200 28.236,-200 22.236,-200 16.236,-194 16.236,-188 16.236,-188 16.236,-176 16.236,-176 16.236,-170 22.236,-164 28.236,-164 28.236,-164 120.29,-164 120.29,-164 126.29,-164 132.29,-170 132.29,-176 132.29,-176 132.29,-188 132.29,-188 132.29,-194 126.29,-200 120.29,-200"/>
<text text-anchor="middle" x="74.263" y="-177.8" font-family="Verdana" font-size="14.00" fill="#000000">NewSessionKey</text>
</a>
</g>
</g>
<!-- github.com/sirupsen/logrus.WithField -->
<g id="node2" class="node">
<title>github.com/sirupsen/logrus.WithField</title>
<g id="a_node2"><a xlink:title="github.com/sirupsen/logrus.WithField | defined in exported.go:69">
<path fill="#ffe4b5" stroke="#000000" stroke-width="1.5" d="M293.2325,-52C293.2325,-52 236.6835,-52 236.6835,-52 230.6835,-52 224.6835,-46 224.6835,-40 224.6835,-40 224.6835,-28 224.6835,-28 224.6835,-22 230.6835,-16 236.6835,-16 236.6835,-16 293.2325,-16 293.2325,-16 299.2325,-16 305.2325,-22 305.2325,-28 305.2325,-28 305.2325,-40 305.2325,-40 305.2325,-46 299.2325,-52 293.2325,-52"/>
<text text-anchor="middle" x="264.958" y="-38.2" font-family="Verdana" font-size="14.00" fill="#000000">logrus</text>
<text text-anchor="middle" x="264.958" y="-21.4" font-family="Verdana" font-size="14.00" fill="#000000">WithField</text>
</a>
</g>
</g>
<!-- github.com/go&#45;i2p/common/session_key.NewSessionKey&#45;&gt;github.com/sirupsen/logrus.WithField -->
<g id="edge1" class="edge">
<title>github.com/go&#45;i2p/common/session_key.NewSessionKey&#45;&gt;github.com/sirupsen/logrus.WithField</title>
<g id="a_edge1"><a xlink:title="at session_key_struct.go:30: calling [github.com/sirupsen/logrus.WithField]">
<path fill="none" stroke="#8b4513" d="M91.7551,-163.8087C115.8524,-139.3832 161.3159,-95.5319 205.526,-65 209.4491,-62.2907 213.6386,-59.6546 217.9088,-57.1377"/>
<polygon fill="#8b4513" stroke="#8b4513" points="219.7441,-60.1208 226.7278,-52.1535 216.2999,-54.0267 219.7441,-60.1208"/>
</a>
</g>
</g>
<!-- github.com/go&#45;i2p/common/session_key.ReadSessionKey -->
<g id="node3" class="node">
<title>github.com/go&#45;i2p/common/session_key.ReadSessionKey</title>
<g id="a_node3"><a xlink:title="github.com/go&#45;i2p/common/session_key.ReadSessionKey | defined in session_key_struct.go:44&#10;at session_key_struct.go:46: calling [github.com/sirupsen/logrus.WithFields]&#10;at session_key_struct.go:58: calling [github.com/sirupsen/logrus.WithFields]&#10;at session_key_struct.go:50: calling [(*github.com/sirupsen/logrus.Entry).Error]&#10;at session_key_struct.go:51: calling [github.com/samber/oops.Errorf]&#10;at session_key_struct.go:60: calling [(*github.com/sirupsen/logrus.Entry).Debug]">
<path fill="#add8e6" stroke="#000000" stroke-width="1.5" d="M312.3221,-113C312.3221,-113 217.5939,-113 217.5939,-113 211.5939,-113 205.5939,-107 205.5939,-101 205.5939,-101 205.5939,-89 205.5939,-89 205.5939,-83 211.5939,-77 217.5939,-77 217.5939,-77 312.3221,-77 312.3221,-77 318.3221,-77 324.3221,-83 324.3221,-89 324.3221,-89 324.3221,-101 324.3221,-101 324.3221,-107 318.3221,-113 312.3221,-113"/>
<text text-anchor="middle" x="264.958" y="-90.8" font-family="Verdana" font-size="14.00" fill="#000000">ReadSessionKey</text>
</a>
</g>
</g>
<!-- github.com/go&#45;i2p/common/session_key.NewSessionKey&#45;&gt;github.com/go&#45;i2p/common/session_key.ReadSessionKey -->
<g id="edge4" class="edge">
<title>github.com/go&#45;i2p/common/session_key.NewSessionKey&#45;&gt;github.com/go&#45;i2p/common/session_key.ReadSessionKey</title>
<g id="a_edge4"><a xlink:title="at session_key_struct.go:31: calling [github.com/go&#45;i2p/common/session_key.ReadSessionKey]">
<path fill="none" stroke="#000000" d="M113.7751,-163.9735C143.5627,-150.3837 184.5761,-131.6723 216.3702,-117.167"/>
<polygon fill="#000000" stroke="#000000" points="217.8513,-120.3384 225.4965,-113.0034 214.9458,-113.9699 217.8513,-120.3384"/>
</a>
</g>
</g>
<!-- github.com/sirupsen/logrus.WithError -->
<g id="node6" class="node">
<title>github.com/sirupsen/logrus.WithError</title>
<g id="a_node6"><a xlink:title="github.com/sirupsen/logrus.WithError | defined in exported.go:55">
<path fill="#ffe4b5" stroke="#000000" stroke-width="1.5" d="M293.4895,-174C293.4895,-174 236.4265,-174 236.4265,-174 230.4265,-174 224.4265,-168 224.4265,-162 224.4265,-162 224.4265,-150 224.4265,-150 224.4265,-144 230.4265,-138 236.4265,-138 236.4265,-138 293.4895,-138 293.4895,-138 299.4895,-138 305.4895,-144 305.4895,-150 305.4895,-150 305.4895,-162 305.4895,-162 305.4895,-168 299.4895,-174 293.4895,-174"/>
<text text-anchor="middle" x="264.958" y="-160.2" font-family="Verdana" font-size="14.00" fill="#000000">logrus</text>
<text text-anchor="middle" x="264.958" y="-143.4" font-family="Verdana" font-size="14.00" fill="#000000">WithError</text>
</a>
</g>
</g>
<!-- github.com/go&#45;i2p/common/session_key.NewSessionKey&#45;&gt;github.com/sirupsen/logrus.WithError -->
<g id="edge5" class="edge">
<title>github.com/go&#45;i2p/common/session_key.NewSessionKey&#45;&gt;github.com/sirupsen/logrus.WithError</title>
<g id="a_edge5"><a xlink:title="at session_key_struct.go:33: calling [github.com/sirupsen/logrus.WithError]">
<path fill="none" stroke="#8b4513" d="M132.514,-174.0579C158.6025,-170.5009 189.0807,-166.3454 214.2186,-162.918"/>
<polygon fill="#8b4513" stroke="#8b4513" points="214.8439,-166.3652 224.2794,-161.5463 213.8982,-159.4294 214.8439,-166.3652"/>
</a>
</g>
</g>
<!-- github.com/sirupsen/logrus.Debug -->
<g id="node7" class="node">
<title>github.com/sirupsen/logrus.Debug</title>
<g id="a_node7"><a xlink:title="github.com/sirupsen/logrus.Debug | defined in exported.go:98">
<path fill="#ffe4b5" stroke="#000000" stroke-width="1.5" d="M283.78,-235C283.78,-235 246.136,-235 246.136,-235 240.136,-235 234.136,-229 234.136,-223 234.136,-223 234.136,-211 234.136,-211 234.136,-205 240.136,-199 246.136,-199 246.136,-199 283.78,-199 283.78,-199 289.78,-199 295.78,-205 295.78,-211 295.78,-211 295.78,-223 295.78,-223 295.78,-229 289.78,-235 283.78,-235"/>
<text text-anchor="middle" x="264.958" y="-221.2" font-family="Verdana" font-size="14.00" fill="#000000">logrus</text>
<text text-anchor="middle" x="264.958" y="-204.4" font-family="Verdana" font-size="14.00" fill="#000000">Debug</text>
</a>
</g>
</g>
<!-- github.com/go&#45;i2p/common/session_key.NewSessionKey&#45;&gt;github.com/sirupsen/logrus.Debug -->
<g id="edge10" class="edge">
<title>github.com/go&#45;i2p/common/session_key.NewSessionKey&#45;&gt;github.com/sirupsen/logrus.Debug</title>
<g id="a_edge10"><a xlink:title="at session_key_struct.go:37: calling [github.com/sirupsen/logrus.Debug]">
<path fill="none" stroke="#8b4513" d="M132.514,-192.6913C162.1028,-198.122 197.3383,-204.5891 224.025,-209.4872"/>
<polygon fill="#8b4513" stroke="#8b4513" points="223.6997,-212.9859 234.1673,-211.3487 224.9634,-206.1009 223.6997,-212.9859"/>
</a>
</g>
</g>
<!-- (*github.com/sirupsen/logrus.Entry).Debug -->
<g id="node8" class="node">
<title>(*github.com/sirupsen/logrus.Entry).Debug</title>
<g id="a_node8"><a xlink:title="(*github.com/sirupsen/logrus.Entry).Debug | defined in entry.go:312">
<path fill="#ffe4b5" stroke="#000000" stroke-width="1.5" d="M459.3214,-206C459.3214,-206 421.6774,-206 421.6774,-206 415.6774,-206 409.6774,-200 409.6774,-194 409.6774,-194 409.6774,-182 409.6774,-182 409.6774,-176 415.6774,-170 421.6774,-170 421.6774,-170 459.3214,-170 459.3214,-170 465.3214,-170 471.3214,-176 471.3214,-182 471.3214,-182 471.3214,-194 471.3214,-194 471.3214,-200 465.3214,-206 459.3214,-206"/>
<text text-anchor="middle" x="440.4994" y="-192.2" font-family="Verdana" font-size="14.00" fill="#000000">logrus</text>
<text text-anchor="middle" x="440.4994" y="-175.4" font-family="Verdana" font-size="14.00" fill="#000000">Debug</text>
</a>
</g>
</g>
<!-- github.com/go&#45;i2p/common/session_key.NewSessionKey&#45;&gt;(*github.com/sirupsen/logrus.Entry).Debug -->
<g id="edge6" class="edge">
<title>github.com/go&#45;i2p/common/session_key.NewSessionKey&#45;&gt;(*github.com/sirupsen/logrus.Entry).Debug</title>
<g id="a_edge6"><a xlink:title="at session_key_struct.go:30: calling [(*github.com/sirupsen/logrus.Entry).Debug]">
<path fill="none" stroke="#8b4513" d="M100.9796,-200.1398C126.5358,-216.3155 166.8095,-238.8144 205.526,-248 256.9276,-260.1952 273.0567,-260.4795 324.39,-248 353.4573,-240.9336 383.3794,-225.2328 405.567,-211.6649"/>
<polygon fill="#8b4513" stroke="#8b4513" points="407.6609,-214.4832 414.275,-206.2064 403.943,-208.5521 407.6609,-214.4832"/>
</a>
</g>
</g>
<!-- (*github.com/sirupsen/logrus.Entry).Error -->
<g id="node9" class="node">
<title>(*github.com/sirupsen/logrus.Entry).Error</title>
<g id="a_node9"><a xlink:title="(*github.com/sirupsen/logrus.Entry).Error | defined in entry.go:332">
<path fill="#ffe4b5" stroke="#000000" stroke-width="1.5" d="M457.9952,-267C457.9952,-267 423.0036,-267 423.0036,-267 417.0036,-267 411.0036,-261 411.0036,-255 411.0036,-255 411.0036,-243 411.0036,-243 411.0036,-237 417.0036,-231 423.0036,-231 423.0036,-231 457.9952,-231 457.9952,-231 463.9952,-231 469.9952,-237 469.9952,-243 469.9952,-243 469.9952,-255 469.9952,-255 469.9952,-261 463.9952,-267 457.9952,-267"/>
<text text-anchor="middle" x="440.4994" y="-253.2" font-family="Verdana" font-size="14.00" fill="#000000">logrus</text>
<text text-anchor="middle" x="440.4994" y="-236.4" font-family="Verdana" font-size="14.00" fill="#000000">Error</text>
</a>
</g>
</g>
<!-- github.com/go&#45;i2p/common/session_key.NewSessionKey&#45;&gt;(*github.com/sirupsen/logrus.Entry).Error -->
<g id="edge9" class="edge">
<title>github.com/go&#45;i2p/common/session_key.NewSessionKey&#45;&gt;(*github.com/sirupsen/logrus.Entry).Error</title>
<g id="a_edge9"><a xlink:title="at session_key_struct.go:33: calling [(*github.com/sirupsen/logrus.Entry).Error]">
<path fill="none" stroke="#8b4513" d="M95.1982,-200.0302C119.6968,-219.6769 162.4233,-249.5718 205.526,-259 272.832,-273.7224 353.4966,-264.6921 400.668,-256.8254"/>
<polygon fill="#8b4513" stroke="#8b4513" points="401.5216,-260.2296 410.7758,-255.0712 400.3246,-253.3327 401.5216,-260.2296"/>
</a>
</g>
</g>
<!-- github.com/sirupsen/logrus.WithFields -->
<g id="node4" class="node">
<title>github.com/sirupsen/logrus.WithFields</title>
<g id="a_node4"><a xlink:title="github.com/sirupsen/logrus.WithFields | defined in exported.go:79">
<path fill="#ffe4b5" stroke="#000000" stroke-width="1.5" d="M471.7185,-60C471.7185,-60 409.2803,-60 409.2803,-60 403.2803,-60 397.2803,-54 397.2803,-48 397.2803,-48 397.2803,-36 397.2803,-36 397.2803,-30 403.2803,-24 409.2803,-24 409.2803,-24 471.7185,-24 471.7185,-24 477.7185,-24 483.7185,-30 483.7185,-36 483.7185,-36 483.7185,-48 483.7185,-48 483.7185,-54 477.7185,-60 471.7185,-60"/>
<text text-anchor="middle" x="440.4994" y="-46.2" font-family="Verdana" font-size="14.00" fill="#000000">logrus</text>
<text text-anchor="middle" x="440.4994" y="-29.4" font-family="Verdana" font-size="14.00" fill="#000000">WithFields</text>
</a>
</g>
</g>
<!-- github.com/go&#45;i2p/common/session_key.ReadSessionKey&#45;&gt;github.com/sirupsen/logrus.WithFields -->
<g id="edge2" class="edge">
<title>github.com/go&#45;i2p/common/session_key.ReadSessionKey&#45;&gt;github.com/sirupsen/logrus.WithFields</title>
<g id="a_edge2"><a xlink:title="at session_key_struct.go:46: calling [github.com/sirupsen/logrus.WithFields]&#10;at session_key_struct.go:58: calling [github.com/sirupsen/logrus.WithFields]">
<path fill="none" stroke="#8b4513" d="M324.3883,-77.0566C344.8097,-70.8909 367.5239,-64.033 387.4084,-58.0294"/>
<polygon fill="#8b4513" stroke="#8b4513" points="388.6582,-61.3082 397.2198,-55.0671 386.6349,-54.6069 388.6582,-61.3082"/>
</a>
</g>
</g>
<!-- github.com/samber/oops.Errorf -->
<g id="node5" class="node">
<title>github.com/samber/oops.Errorf</title>
<g id="a_node5"><a xlink:title="github.com/samber/oops.Errorf | defined in oops.go:34">
<path fill="#ffe4b5" stroke="#000000" stroke-width="1.5" d="M457.6947,-121C457.6947,-121 423.3041,-121 423.3041,-121 417.3041,-121 411.3041,-115 411.3041,-109 411.3041,-109 411.3041,-97 411.3041,-97 411.3041,-91 417.3041,-85 423.3041,-85 423.3041,-85 457.6947,-85 457.6947,-85 463.6947,-85 469.6947,-91 469.6947,-97 469.6947,-97 469.6947,-109 469.6947,-109 469.6947,-115 463.6947,-121 457.6947,-121"/>
<text text-anchor="middle" x="440.4994" y="-107.2" font-family="Verdana" font-size="14.00" fill="#000000">oops</text>
<text text-anchor="middle" x="440.4994" y="-90.4" font-family="Verdana" font-size="14.00" fill="#000000">Errorf</text>
</a>
</g>
</g>
<!-- github.com/go&#45;i2p/common/session_key.ReadSessionKey&#45;&gt;github.com/samber/oops.Errorf -->
<g id="edge7" class="edge">
<title>github.com/go&#45;i2p/common/session_key.ReadSessionKey&#45;&gt;github.com/samber/oops.Errorf</title>
<g id="a_edge7"><a xlink:title="at session_key_struct.go:51: calling [github.com/samber/oops.Errorf]">
<path fill="none" stroke="#8b4513" d="M324.3883,-97.7084C349.6329,-98.8589 378.3815,-100.1691 400.9567,-101.1979"/>
<polygon fill="#8b4513" stroke="#8b4513" points="401.0305,-104.7048 411.1795,-101.6638 401.3492,-97.7121 401.0305,-104.7048"/>
</a>
</g>
</g>
<!-- github.com/go&#45;i2p/common/session_key.ReadSessionKey&#45;&gt;(*github.com/sirupsen/logrus.Entry).Debug -->
<g id="edge8" class="edge">
<title>github.com/go&#45;i2p/common/session_key.ReadSessionKey&#45;&gt;(*github.com/sirupsen/logrus.Entry).Debug</title>
<g id="a_edge8"><a xlink:title="at session_key_struct.go:60: calling [(*github.com/sirupsen/logrus.Entry).Debug]">
<path fill="none" stroke="#8b4513" d="M299.904,-113.0762C307.9627,-117.2867 316.488,-121.7748 324.39,-126 357.0148,-143.4446 364.6878,-148.7009 397.39,-166 398.518,-166.5967 399.6639,-167.2001 400.8216,-167.8072"/>
<polygon fill="#8b4513" stroke="#8b4513" points="399.3394,-170.9812 409.8267,-172.4866 402.5672,-164.7698 399.3394,-170.9812"/>
</a>
</g>
</g>
<!-- github.com/go&#45;i2p/common/session_key.ReadSessionKey&#45;&gt;(*github.com/sirupsen/logrus.Entry).Error -->
<g id="edge3" class="edge">
<title>github.com/go&#45;i2p/common/session_key.ReadSessionKey&#45;&gt;(*github.com/sirupsen/logrus.Entry).Error</title>
<g id="a_edge3"><a xlink:title="at session_key_struct.go:50: calling [(*github.com/sirupsen/logrus.Entry).Error]">
<path fill="none" stroke="#8b4513" d="M305.4349,-113.1266C312.0809,-116.925 318.6603,-121.2417 324.39,-126 364.814,-159.5706 359.1812,-182.9282 397.39,-219 399.3045,-220.8074 401.3355,-222.5888 403.4325,-224.3269"/>
<polygon fill="#8b4513" stroke="#8b4513" points="401.6958,-227.4098 411.7401,-230.7809 405.9903,-221.8819 401.6958,-227.4098"/>
</a>
</g>
</g>
</g>
</svg>
