<?xml version="1.0" encoding="UTF-8" standalone="no"?>
<!DOCTYPE svg PUBLIC "-//W3C//DTD SVG 1.1//EN"
 "http://www.w3.org/Graphics/SVG/1.1/DTD/svg11.dtd">
<!-- Generated by graphviz version 2.40.1 (20161225.0304)
 -->
<!-- Title: gocallvis Pages: 1 -->
<svg width="576pt" height="453pt"
 viewBox="0.00 0.00 575.60 453.00" xmlns="http://www.w3.org/2000/svg" xmlns:xlink="http://www.w3.org/1999/xlink">
<g id="graph0" class="graph" transform="scale(1 1) rotate(0) translate(0 453)">
<title>gocallvis</title>
<polygon fill="#d3d3d3" stroke="transparent" points="0,0 0,-453 575.6004,-453 575.6004,0 0,0"/>
<g id="clust1" class="cluster">
<title>cluster_focus</title>
<polygon fill="#e6ecfa" stroke="#000000" stroke-width=".5" points="8,-8 8,-445 567.6004,-445 567.6004,-8 8,-8"/>
<text text-anchor="middle" x="287.8002" y="-424.8" font-family="Arial" font-size="18.00" fill="#000000">session_tag</text>
</g>
<g id="clust4" class="cluster">
<title>cluster_*github.com/sirupsen/logrus.Logger</title>
<g id="a_clust4"><a xlink:title="type: *github.com/sirupsen/logrus.Logger">
<path fill="#eed8ae" stroke="#000000" stroke-width=".5" d="M481.8304,-329C481.8304,-329 536.1516,-329 536.1516,-329 542.1516,-329 548.1516,-335 548.1516,-341 548.1516,-341 548.1516,-395 548.1516,-395 548.1516,-401 542.1516,-407 536.1516,-407 536.1516,-407 481.8304,-407 481.8304,-407 475.8304,-407 469.8304,-401 469.8304,-395 469.8304,-395 469.8304,-341 469.8304,-341 469.8304,-335 475.8304,-329 481.8304,-329"/>
<text text-anchor="middle" x="508.991" y="-337.5" font-family="Arial" font-size="15.00" fill="#222222">(*Logger)</text>
</a>
</g>
</g>
<g id="clust3" class="cluster">
<title>cluster_*github.com/go&#45;i2p/logger.Logger</title>
<g id="a_clust3"><a xlink:title="type: *github.com/go&#45;i2p/logger.Logger">
<path fill="#eed8ae" stroke="#000000" stroke-width=".5" d="M469.3816,-60C469.3816,-60 547.6004,-60 547.6004,-60 553.6004,-60 559.6004,-66 559.6004,-72 559.6004,-72 559.6004,-309 559.6004,-309 559.6004,-315 553.6004,-321 547.6004,-321 547.6004,-321 469.3816,-321 469.3816,-321 463.3816,-321 457.3816,-315 457.3816,-309 457.3816,-309 457.3816,-72 457.3816,-72 457.3816,-66 463.3816,-60 469.3816,-60"/>
<text text-anchor="middle" x="508.491" y="-68.5" font-family="Arial" font-size="15.00" fill="#222222">(*Logger)</text>
</a>
</g>
</g>
<g id="clust2" class="cluster">
<title>cluster_*github.com/go&#45;i2p/common/session_tag.SessionTag</title>
<g id="a_clust2"><a xlink:title="type: *github.com/go&#45;i2p/common/session_tag.SessionTag">
<path fill="#b0c4de" stroke="#000000" stroke-width=".5" d="M285.8998,-60C285.8998,-60 372.674,-60 372.674,-60 378.674,-60 384.674,-66 384.674,-72 384.674,-72 384.674,-126 384.674,-126 384.674,-132 378.674,-138 372.674,-138 372.674,-138 285.8998,-138 285.8998,-138 279.8998,-138 273.8998,-132 273.8998,-126 273.8998,-126 273.8998,-72 273.8998,-72 273.8998,-66 279.8998,-60 285.8998,-60"/>
<text text-anchor="middle" x="329.2869" y="-68.5" font-family="Arial" font-size="15.00" fill="#222222">(*SessionTag)</text>
</a>
</g>
</g>
<!-- github.com/samber/oops.Errorf -->
<g id="node1" class="node">
<title>github.com/samber/oops.Errorf</title>
<g id="a_node1"><a xlink:title="github.com/samber/oops.Errorf | defined in oops.go:34">
<path fill="#ffe4b5" stroke="#000000" stroke-width="1.5" d="M525.6863,-52C525.6863,-52 491.2957,-52 491.2957,-52 485.2957,-52 479.2957,-46 479.2957,-40 479.2957,-40 479.2957,-28 479.2957,-28 479.2957,-22 485.2957,-16 491.2957,-16 491.2957,-16 525.6863,-16 525.6863,-16 531.6863,-16 537.6863,-22 537.6863,-28 537.6863,-28 537.6863,-40 537.6863,-40 537.6863,-46 531.6863,-52 525.6863,-52"/>
<text text-anchor="middle" x="508.491" y="-38.2" font-family="Verdana" font-size="14.00" fill="#000000">oops</text>
<text text-anchor="middle" x="508.491" y="-21.4" font-family="Verdana" font-size="14.00" fill="#000000">Errorf</text>
</a>
</g>
</g>
<!-- github.com/go&#45;i2p/common/session_tag.ReadSessionTag -->
<g id="node2" class="node">
<title>github.com/go&#45;i2p/common/session_tag.ReadSessionTag</title>
<g id="a_node2"><a xlink:title="github.com/go&#45;i2p/common/session_tag.ReadSessionTag | defined in utils.go:15&#10;at utils.go:31: calling [(*github.com/sirupsen/logrus.Logger).Debug]&#10;at utils.go:22: calling [github.com/samber/oops.Errorf]&#10;at utils.go:17: calling [(*github.com/go&#45;i2p/logger.Logger).WithFields]&#10;at utils.go:29: calling [(*github.com/go&#45;i2p/logger.Logger).WithFields]&#10;at utils.go:21: calling [(*github.com/go&#45;i2p/logger.Logger).Error]">
<path fill="#add8e6" stroke="#000000" stroke-width="1.5" d="M375.5973,-265C375.5973,-265 281.9765,-265 281.9765,-265 275.9765,-265 269.9765,-259 269.9765,-253 269.9765,-253 269.9765,-241 269.9765,-241 269.9765,-235 275.9765,-229 281.9765,-229 281.9765,-229 375.5973,-229 375.5973,-229 381.5973,-229 387.5973,-235 387.5973,-241 387.5973,-241 387.5973,-253 387.5973,-253 387.5973,-259 381.5973,-265 375.5973,-265"/>
<text text-anchor="middle" x="328.7869" y="-242.8" font-family="Verdana" font-size="14.00" fill="#000000">ReadSessionTag</text>
</a>
</g>
</g>
<!-- github.com/go&#45;i2p/common/session_tag.ReadSessionTag&#45;&gt;github.com/samber/oops.Errorf -->
<g id="edge6" class="edge">
<title>github.com/go&#45;i2p/common/session_tag.ReadSessionTag&#45;&gt;github.com/samber/oops.Errorf</title>
<g id="a_edge6"><a xlink:title="at utils.go:22: calling [github.com/samber/oops.Errorf]">
<path fill="none" stroke="#8b4513" d="M339.2063,-228.8464C363.8973,-186.3089 426.2265,-81.8371 457.3816,-56 461.1786,-52.8511 465.4943,-50.0832 469.9706,-47.6694"/>
<polygon fill="#8b4513" stroke="#8b4513" points="471.7706,-50.6877 479.2701,-43.2038 468.7404,-44.3776 471.7706,-50.6877"/>
</a>
</g>
</g>
<!-- (*github.com/go&#45;i2p/logger.Logger).WithFields -->
<g id="node8" class="node">
<title>(*github.com/go&#45;i2p/logger.Logger).WithFields</title>
<g id="a_node8"><a xlink:title="(*github.com/go&#45;i2p/logger.Logger).WithFields | defined in log.go:60">
<path fill="#ffe4b5" stroke="#000000" stroke-width="1.5" d="M539.7101,-252C539.7101,-252 477.2719,-252 477.2719,-252 471.2719,-252 465.2719,-246 465.2719,-240 465.2719,-240 465.2719,-228 465.2719,-228 465.2719,-222 471.2719,-216 477.2719,-216 477.2719,-216 539.7101,-216 539.7101,-216 545.7101,-216 551.7101,-222 551.7101,-228 551.7101,-228 551.7101,-240 551.7101,-240 551.7101,-246 545.7101,-252 539.7101,-252"/>
<text text-anchor="middle" x="508.491" y="-238.2" font-family="Verdana" font-size="14.00" fill="#000000">logger</text>
<text text-anchor="middle" x="508.491" y="-221.4" font-family="Verdana" font-size="14.00" fill="#000000">WithFields</text>
</a>
</g>
</g>
<!-- github.com/go&#45;i2p/common/session_tag.ReadSessionTag&#45;&gt;(*github.com/go&#45;i2p/logger.Logger).WithFields -->
<g id="edge12" class="edge">
<title>github.com/go&#45;i2p/common/session_tag.ReadSessionTag&#45;&gt;(*github.com/go&#45;i2p/logger.Logger).WithFields</title>
<g id="a_edge12"><a xlink:title="at utils.go:17: calling [(*github.com/go&#45;i2p/logger.Logger).WithFields]&#10;at utils.go:29: calling [(*github.com/go&#45;i2p/logger.Logger).WithFields]">
<path fill="none" stroke="#8b4513" d="M387.6155,-246.1929C401.3362,-245.7421 415.8816,-245.0521 429.3816,-244 437.7144,-243.3506 446.5169,-242.4513 455.104,-241.4561"/>
<polygon fill="#8b4513" stroke="#8b4513" points="455.5376,-244.9292 465.0446,-240.253 454.6965,-237.9799 455.5376,-244.9292"/>
</a>
</g>
</g>
<!-- (*github.com/go&#45;i2p/logger.Logger).Error -->
<g id="node9" class="node">
<title>(*github.com/go&#45;i2p/logger.Logger).Error</title>
<g id="a_node9"><a xlink:title="(*github.com/go&#45;i2p/logger.Logger).Error | defined in log.go:42">
<path fill="#ffe4b5" stroke="#000000" stroke-width="1.5" d="M526.2573,-191C526.2573,-191 490.7247,-191 490.7247,-191 484.7247,-191 478.7247,-185 478.7247,-179 478.7247,-179 478.7247,-167 478.7247,-167 478.7247,-161 484.7247,-155 490.7247,-155 490.7247,-155 526.2573,-155 526.2573,-155 532.2573,-155 538.2573,-161 538.2573,-167 538.2573,-167 538.2573,-179 538.2573,-179 538.2573,-185 532.2573,-191 526.2573,-191"/>
<text text-anchor="middle" x="508.491" y="-177.2" font-family="Verdana" font-size="14.00" fill="#000000">logger</text>
<text text-anchor="middle" x="508.491" y="-160.4" font-family="Verdana" font-size="14.00" fill="#000000">Error</text>
</a>
</g>
</g>
<!-- github.com/go&#45;i2p/common/session_tag.ReadSessionTag&#45;&gt;(*github.com/go&#45;i2p/logger.Logger).Error -->
<g id="edge13" class="edge">
<title>github.com/go&#45;i2p/common/session_tag.ReadSessionTag&#45;&gt;(*github.com/go&#45;i2p/logger.Logger).Error</title>
<g id="a_edge13"><a xlink:title="at utils.go:21: calling [(*github.com/go&#45;i2p/logger.Logger).Error]">
<path fill="none" stroke="#8b4513" d="M387.527,-231.8234C401.4547,-227.586 416.1136,-222.5894 429.3816,-217 443.2502,-211.1576 457.8123,-203.5296 470.6086,-196.2693"/>
<polygon fill="#8b4513" stroke="#8b4513" points="472.6767,-199.1164 479.5791,-191.0784 469.1708,-193.0576 472.6767,-199.1164"/>
</a>
</g>
</g>
<!-- (*github.com/sirupsen/logrus.Logger).Debug -->
<g id="node12" class="node">
<title>(*github.com/sirupsen/logrus.Logger).Debug</title>
<g id="a_node12"><a xlink:title="(*github.com/sirupsen/logrus.Logger).Debug | defined in logger.go:221">
<path fill="#ffe4b5" stroke="#000000" stroke-width="1.5" d="M527.313,-399C527.313,-399 489.669,-399 489.669,-399 483.669,-399 477.669,-393 477.669,-387 477.669,-387 477.669,-375 477.669,-375 477.669,-369 483.669,-363 489.669,-363 489.669,-363 527.313,-363 527.313,-363 533.313,-363 539.313,-369 539.313,-375 539.313,-375 539.313,-387 539.313,-387 539.313,-393 533.313,-399 527.313,-399"/>
<text text-anchor="middle" x="508.491" y="-385.2" font-family="Verdana" font-size="14.00" fill="#000000">logrus</text>
<text text-anchor="middle" x="508.491" y="-368.4" font-family="Verdana" font-size="14.00" fill="#000000">Debug</text>
</a>
</g>
</g>
<!-- github.com/go&#45;i2p/common/session_tag.ReadSessionTag&#45;&gt;(*github.com/sirupsen/logrus.Logger).Debug -->
<g id="edge1" class="edge">
<title>github.com/go&#45;i2p/common/session_tag.ReadSessionTag&#45;&gt;(*github.com/sirupsen/logrus.Logger).Debug</title>
<g id="a_edge1"><a xlink:title="at utils.go:31: calling [(*github.com/sirupsen/logrus.Logger).Debug]">
<path fill="none" stroke="#8b4513" d="M353.0226,-265.0718C384.7748,-288.7485 440.5647,-330.3494 475.9669,-356.7477"/>
<polygon fill="#8b4513" stroke="#8b4513" points="473.9565,-359.6146 484.0654,-362.7865 478.1409,-354.0029 473.9565,-359.6146"/>
</a>
</g>
</g>
<!-- github.com/go&#45;i2p/common/session_tag.NewSessionTag -->
<g id="node3" class="node">
<title>github.com/go&#45;i2p/common/session_tag.NewSessionTag</title>
<g id="a_node3"><a xlink:title="github.com/go&#45;i2p/common/session_tag.NewSessionTag | defined in utils.go:38&#10;at utils.go:39: calling [(*github.com/go&#45;i2p/logger.Logger).WithField]&#10;at utils.go:40: calling [github.com/go&#45;i2p/common/session_tag.ReadSessionTag]&#10;at utils.go:42: calling [(*github.com/go&#45;i2p/logger.Logger).WithError]&#10;at utils.go:39: calling [(*github.com/sirupsen/logrus.Logger).Debug]&#10;at utils.go:48: calling [(*github.com/sirupsen/logrus.Logger).Debug]&#10;at utils.go:42: calling [(*github.com/go&#45;i2p/logger.Logger).Error]&#10;at utils.go:46: calling [(*github.com/go&#45;i2p/logger.Logger).WithFields]">
<path fill="#add8e6" stroke="#000000" stroke-width="1.5" d="M150.0681,-291C150.0681,-291 59.1241,-291 59.1241,-291 53.1241,-291 47.1241,-285 47.1241,-279 47.1241,-279 47.1241,-267 47.1241,-267 47.1241,-261 53.1241,-255 59.1241,-255 59.1241,-255 150.0681,-255 150.0681,-255 156.0681,-255 162.0681,-261 162.0681,-267 162.0681,-267 162.0681,-279 162.0681,-279 162.0681,-285 156.0681,-291 150.0681,-291"/>
<text text-anchor="middle" x="104.5961" y="-268.8" font-family="Verdana" font-size="14.00" fill="#000000">NewSessionTag</text>
</a>
</g>
</g>
<!-- github.com/go&#45;i2p/common/session_tag.NewSessionTag&#45;&gt;github.com/go&#45;i2p/common/session_tag.ReadSessionTag -->
<g id="edge3" class="edge">
<title>github.com/go&#45;i2p/common/session_tag.NewSessionTag&#45;&gt;github.com/go&#45;i2p/common/session_tag.ReadSessionTag</title>
<g id="a_edge3"><a xlink:title="at utils.go:40: calling [github.com/go&#45;i2p/common/session_tag.ReadSessionTag]">
<path fill="none" stroke="#000000" d="M162.3308,-266.3044C192.1833,-262.8423 228.8228,-258.5931 260.1197,-254.9635"/>
<polygon fill="#000000" stroke="#000000" points="260.5477,-258.4374 270.0779,-253.8086 259.7413,-251.484 260.5477,-258.4374"/>
</a>
</g>
</g>
<!-- github.com/go&#45;i2p/common/session_tag.NewSessionTag&#45;&gt;(*github.com/go&#45;i2p/logger.Logger).WithFields -->
<g id="edge9" class="edge">
<title>github.com/go&#45;i2p/common/session_tag.NewSessionTag&#45;&gt;(*github.com/go&#45;i2p/logger.Logger).WithFields</title>
<g id="a_edge9"><a xlink:title="at utils.go:46: calling [(*github.com/go&#45;i2p/logger.Logger).WithFields]">
<path fill="none" stroke="#8b4513" d="M162.1182,-280.4852C220.0109,-286.508 311.6192,-291.9039 389.3816,-278 413.6572,-273.6595 439.4611,-264.7106 460.8221,-256.0096"/>
<polygon fill="#8b4513" stroke="#8b4513" points="462.426,-259.1327 470.3026,-252.0467 459.7263,-252.6742 462.426,-259.1327"/>
</a>
</g>
</g>
<!-- github.com/go&#45;i2p/common/session_tag.NewSessionTag&#45;&gt;(*github.com/go&#45;i2p/logger.Logger).Error -->
<g id="edge8" class="edge">
<title>github.com/go&#45;i2p/common/session_tag.NewSessionTag&#45;&gt;(*github.com/go&#45;i2p/logger.Logger).Error</title>
<g id="a_edge8"><a xlink:title="at utils.go:42: calling [(*github.com/go&#45;i2p/logger.Logger).Error]">
<path fill="none" stroke="#8b4513" d="M151.2793,-254.9468C183.7013,-242.9232 228.1089,-227.468 268.1922,-217 337.772,-198.8287 420.5982,-185.4261 468.5995,-178.4467"/>
<polygon fill="#8b4513" stroke="#8b4513" points="469.1826,-181.899 478.5844,-177.0148 468.1888,-174.9699 469.1826,-181.899"/>
</a>
</g>
</g>
<!-- (*github.com/go&#45;i2p/logger.Logger).WithField -->
<g id="node10" class="node">
<title>(*github.com/go&#45;i2p/logger.Logger).WithField</title>
<g id="a_node10"><a xlink:title="(*github.com/go&#45;i2p/logger.Logger).WithField | defined in log.go:54">
<path fill="#ffe4b5" stroke="#000000" stroke-width="1.5" d="M536.7655,-130C536.7655,-130 480.2165,-130 480.2165,-130 474.2165,-130 468.2165,-124 468.2165,-118 468.2165,-118 468.2165,-106 468.2165,-106 468.2165,-100 474.2165,-94 480.2165,-94 480.2165,-94 536.7655,-94 536.7655,-94 542.7655,-94 548.7655,-100 548.7655,-106 548.7655,-106 548.7655,-118 548.7655,-118 548.7655,-124 542.7655,-130 536.7655,-130"/>
<text text-anchor="middle" x="508.491" y="-116.2" font-family="Verdana" font-size="14.00" fill="#000000">logger</text>
<text text-anchor="middle" x="508.491" y="-99.4" font-family="Verdana" font-size="14.00" fill="#000000">WithField</text>
</a>
</g>
</g>
<!-- github.com/go&#45;i2p/common/session_tag.NewSessionTag&#45;&gt;(*github.com/go&#45;i2p/logger.Logger).WithField -->
<g id="edge2" class="edge">
<title>github.com/go&#45;i2p/common/session_tag.NewSessionTag&#45;&gt;(*github.com/go&#45;i2p/logger.Logger).WithField</title>
<g id="a_edge2"><a xlink:title="at utils.go:39: calling [(*github.com/go&#45;i2p/logger.Logger).WithField]">
<path fill="none" stroke="#8b4513" d="M133.8748,-254.944C165.953,-235.7165 219.3584,-205.3148 268.1922,-185 302.6321,-170.673 398.3796,-142.8874 458.0982,-126.0337"/>
<polygon fill="#8b4513" stroke="#8b4513" points="459.4046,-129.302 468.082,-123.2232 457.5077,-122.5639 459.4046,-129.302"/>
</a>
</g>
</g>
<!-- (*github.com/go&#45;i2p/logger.Logger).WithError -->
<g id="node11" class="node">
<title>(*github.com/go&#45;i2p/logger.Logger).WithError</title>
<g id="a_node11"><a xlink:title="(*github.com/go&#45;i2p/logger.Logger).WithError | defined in log.go:66">
<path fill="#ffe4b5" stroke="#000000" stroke-width="1.5" d="M537.0225,-313C537.0225,-313 479.9595,-313 479.9595,-313 473.9595,-313 467.9595,-307 467.9595,-301 467.9595,-301 467.9595,-289 467.9595,-289 467.9595,-283 473.9595,-277 479.9595,-277 479.9595,-277 537.0225,-277 537.0225,-277 543.0225,-277 549.0225,-283 549.0225,-289 549.0225,-289 549.0225,-301 549.0225,-301 549.0225,-307 543.0225,-313 537.0225,-313"/>
<text text-anchor="middle" x="508.491" y="-299.2" font-family="Verdana" font-size="14.00" fill="#000000">logger</text>
<text text-anchor="middle" x="508.491" y="-282.4" font-family="Verdana" font-size="14.00" fill="#000000">WithError</text>
</a>
</g>
</g>
<!-- github.com/go&#45;i2p/common/session_tag.NewSessionTag&#45;&gt;(*github.com/go&#45;i2p/logger.Logger).WithError -->
<g id="edge4" class="edge">
<title>github.com/go&#45;i2p/common/session_tag.NewSessionTag&#45;&gt;(*github.com/go&#45;i2p/logger.Logger).WithError</title>
<g id="a_edge4"><a xlink:title="at utils.go:42: calling [(*github.com/go&#45;i2p/logger.Logger).WithError]">
<path fill="none" stroke="#8b4513" d="M162.2393,-287.0404C183.1853,-291.4845 207.1281,-295.8083 229.1922,-298 317.7295,-306.7948 340.4245,-299.6861 429.3816,-298 438.5649,-297.8259 448.3446,-297.5383 457.7836,-297.2083"/>
<polygon fill="#8b4513" stroke="#8b4513" points="457.9836,-300.7034 467.8477,-296.8369 457.7254,-293.7081 457.9836,-300.7034"/>
</a>
</g>
</g>
<!-- github.com/go&#45;i2p/common/session_tag.NewSessionTag&#45;&gt;(*github.com/sirupsen/logrus.Logger).Debug -->
<g id="edge7" class="edge">
<title>github.com/go&#45;i2p/common/session_tag.NewSessionTag&#45;&gt;(*github.com/sirupsen/logrus.Logger).Debug</title>
<g id="a_edge7"><a xlink:title="at utils.go:39: calling [(*github.com/sirupsen/logrus.Logger).Debug]&#10;at utils.go:48: calling [(*github.com/sirupsen/logrus.Logger).Debug]">
<path fill="none" stroke="#8b4513" d="M162.4644,-288.4738C245.2092,-310.5994 395.2901,-350.7305 467.5057,-370.0407"/>
<polygon fill="#8b4513" stroke="#8b4513" points="467.0134,-373.5319 477.5781,-372.734 468.8217,-366.7695 467.0134,-373.5319"/>
</a>
</g>
</g>
<!-- github.com/go&#45;i2p/common/session_tag.NewSessionTagFromBytes -->
<g id="node4" class="node">
<title>github.com/go&#45;i2p/common/session_tag.NewSessionTagFromBytes</title>
<g id="a_node4"><a xlink:title="github.com/go&#45;i2p/common/session_tag.NewSessionTagFromBytes | defined in session_tag_struct.go:65&#10;at session_tag_struct.go:67: calling [(*github.com/go&#45;i2p/common/session_tag.SessionTag).SetBytes]">
<path fill="#add8e6" stroke="#000000" stroke-width="1.5" d="M181.2884,-130C181.2884,-130 27.9038,-130 27.9038,-130 21.9038,-130 15.9038,-124 15.9038,-118 15.9038,-118 15.9038,-106 15.9038,-106 15.9038,-100 21.9038,-94 27.9038,-94 27.9038,-94 181.2884,-94 181.2884,-94 187.2884,-94 193.2884,-100 193.2884,-106 193.2884,-106 193.2884,-118 193.2884,-118 193.2884,-124 187.2884,-130 181.2884,-130"/>
<text text-anchor="middle" x="104.5961" y="-107.8" font-family="Verdana" font-size="14.00" fill="#000000">NewSessionTagFromBytes</text>
</a>
</g>
</g>
<!-- (*github.com/go&#45;i2p/common/session_tag.SessionTag).SetBytes -->
<g id="node7" class="node">
<title>(*github.com/go&#45;i2p/common/session_tag.SessionTag).SetBytes</title>
<g id="a_node7"><a xlink:title="(*github.com/go&#45;i2p/common/session_tag.SessionTag).SetBytes | defined in session_tag_struct.go:45&#10;at session_tag_struct.go:47: calling [github.com/samber/oops.Errorf]">
<path fill="#add8e6" stroke="#000000" stroke-width="1.5" d="M353.5614,-130C353.5614,-130 304.0124,-130 304.0124,-130 298.0124,-130 292.0124,-124 292.0124,-118 292.0124,-118 292.0124,-106 292.0124,-106 292.0124,-100 298.0124,-94 304.0124,-94 304.0124,-94 353.5614,-94 353.5614,-94 359.5614,-94 365.5614,-100 365.5614,-106 365.5614,-106 365.5614,-118 365.5614,-118 365.5614,-124 359.5614,-130 353.5614,-130"/>
<text text-anchor="middle" x="328.7869" y="-107.8" font-family="Verdana" font-size="14.00" fill="#000000">SetBytes</text>
</a>
</g>
</g>
<!-- github.com/go&#45;i2p/common/session_tag.NewSessionTagFromBytes&#45;&gt;(*github.com/go&#45;i2p/common/session_tag.SessionTag).SetBytes -->
<g id="edge10" class="edge">
<title>github.com/go&#45;i2p/common/session_tag.NewSessionTagFromBytes&#45;&gt;(*github.com/go&#45;i2p/common/session_tag.SessionTag).SetBytes</title>
<g id="a_edge10"><a xlink:title="at session_tag_struct.go:67: calling [(*github.com/go&#45;i2p/common/session_tag.SessionTag).SetBytes]">
<path fill="none" stroke="#000000" d="M193.2022,-112C223.4299,-112 256.0436,-112 281.7081,-112"/>
<polygon fill="#000000" stroke="#000000" points="281.8959,-115.5001 291.8959,-112 281.8958,-108.5001 281.8959,-115.5001"/>
</a>
</g>
</g>
<!-- github.com/go&#45;i2p/common/session_tag.init -->
<g id="node5" class="node">
<title>github.com/go&#45;i2p/common/session_tag.init</title>
<g id="a_node5"><a xlink:title="github.com/go&#45;i2p/common/session_tag.init | defined in .:0&#10;at utils.go:10: calling [github.com/go&#45;i2p/logger.GetGoI2PLogger]">
<path fill="#add8e6" stroke="#000000" stroke-width=".5" d="M119.5961,-52C119.5961,-52 89.5961,-52 89.5961,-52 83.5961,-52 77.5961,-46 77.5961,-40 77.5961,-40 77.5961,-28 77.5961,-28 77.5961,-22 83.5961,-16 89.5961,-16 89.5961,-16 119.5961,-16 119.5961,-16 125.5961,-16 131.5961,-22 131.5961,-28 131.5961,-28 131.5961,-40 131.5961,-40 131.5961,-46 125.5961,-52 119.5961,-52"/>
<text text-anchor="middle" x="104.5961" y="-29.8" font-family="Verdana" font-size="14.00" fill="#000000">init</text>
</a>
</g>
</g>
<!-- github.com/go&#45;i2p/logger.GetGoI2PLogger -->
<g id="node6" class="node">
<title>github.com/go&#45;i2p/logger.GetGoI2PLogger</title>
<g id="a_node6"><a xlink:title="github.com/go&#45;i2p/logger.GetGoI2PLogger | defined in log.go:120">
<path fill="#ffe4b5" stroke="#000000" stroke-width="1.5" d="M377.4764,-52C377.4764,-52 280.0974,-52 280.0974,-52 274.0974,-52 268.0974,-46 268.0974,-40 268.0974,-40 268.0974,-28 268.0974,-28 268.0974,-22 274.0974,-16 280.0974,-16 280.0974,-16 377.4764,-16 377.4764,-16 383.4764,-16 389.4764,-22 389.4764,-28 389.4764,-28 389.4764,-40 389.4764,-40 389.4764,-46 383.4764,-52 377.4764,-52"/>
<text text-anchor="middle" x="328.7869" y="-38.2" font-family="Verdana" font-size="14.00" fill="#000000">logger</text>
<text text-anchor="middle" x="328.7869" y="-21.4" font-family="Verdana" font-size="14.00" fill="#000000">GetGoI2PLogger</text>
</a>
</g>
</g>
<!-- github.com/go&#45;i2p/common/session_tag.init&#45;&gt;github.com/go&#45;i2p/logger.GetGoI2PLogger -->
<g id="edge11" class="edge">
<title>github.com/go&#45;i2p/common/session_tag.init&#45;&gt;github.com/go&#45;i2p/logger.GetGoI2PLogger</title>
<g id="a_edge11"><a xlink:title="at utils.go:10: calling [github.com/go&#45;i2p/logger.GetGoI2PLogger]">
<path fill="none" stroke="#8b4513" d="M131.6387,-34C162.6901,-34 214.8645,-34 257.7416,-34"/>
<polygon fill="#8b4513" stroke="#8b4513" points="257.8589,-37.5001 267.8589,-34 257.8589,-30.5001 257.8589,-37.5001"/>
</a>
</g>
</g>
<!-- (*github.com/go&#45;i2p/common/session_tag.SessionTag).SetBytes&#45;&gt;github.com/samber/oops.Errorf -->
<g id="edge5" class="edge">
<title>(*github.com/go&#45;i2p/common/session_tag.SessionTag).SetBytes&#45;&gt;github.com/samber/oops.Errorf</title>
<g id="a_edge5"><a xlink:title="at session_tag_struct.go:47: calling [github.com/samber/oops.Errorf]">
<path fill="none" stroke="#8b4513" d="M365.5821,-99.4111C373.4997,-96.4885 381.7728,-93.2705 389.3816,-90 420.4248,-76.6566 426.7398,-70.2411 457.3816,-56 461.4333,-54.1169 465.6891,-52.1962 469.9432,-50.3129"/>
<polygon fill="#8b4513" stroke="#8b4513" points="471.4118,-53.4908 479.1731,-46.2789 468.6084,-47.0766 471.4118,-53.4908"/>
</a>
</g>
</g>
</g>
</svg>
