<?xml version="1.0" encoding="UTF-8" standalone="no"?>
<!DOCTYPE svg PUBLIC "-//W3C//DTD SVG 1.1//EN"
 "http://www.w3.org/Graphics/SVG/1.1/DTD/svg11.dtd">
<!-- Generated by graphviz version 2.40.1 (20161225.0304)
 -->
<!-- Title: gocallvis Pages: 1 -->
<svg width="508pt" height="462pt"
 viewBox="0.00 0.00 508.38 462.00" xmlns="http://www.w3.org/2000/svg" xmlns:xlink="http://www.w3.org/1999/xlink">
<g id="graph0" class="graph" transform="scale(1 1) rotate(0) translate(0 462)">
<title>gocallvis</title>
<polygon fill="#d3d3d3" stroke="transparent" points="0,0 0,-462 508.3802,-462 508.3802,0 0,0"/>
<g id="clust1" class="cluster">
<title>cluster_focus</title>
<polygon fill="#e6ecfa" stroke="#000000" stroke-width=".5" points="8,-8 8,-454 500.3802,-454 500.3802,-8 8,-8"/>
<text text-anchor="middle" x="254.1901" y="-433.8" font-family="Arial" font-size="18.00" fill="#000000">session_tag</text>
</g>
<g id="clust3" class="cluster">
<title>cluster_*github.com/sirupsen/logrus.Logger</title>
<g id="a_clust3"><a xlink:title="type: *github.com/sirupsen/logrus.Logger">
<path fill="#eed8ae" stroke="#000000" stroke-width=".5" d="M414.6102,-338C414.6102,-338 468.9314,-338 468.9314,-338 474.9314,-338 480.9314,-344 480.9314,-350 480.9314,-350 480.9314,-404 480.9314,-404 480.9314,-410 474.9314,-416 468.9314,-416 468.9314,-416 414.6102,-416 414.6102,-416 408.6102,-416 402.6102,-410 402.6102,-404 402.6102,-404 402.6102,-350 402.6102,-350 402.6102,-344 408.6102,-338 414.6102,-338"/>
<text text-anchor="middle" x="441.7708" y="-346.5" font-family="Arial" font-size="15.00" fill="#222222">(*Logger)</text>
</a>
</g>
</g>
<g id="clust2" class="cluster">
<title>cluster_*github.com/go&#45;i2p/logger.Logger</title>
<g id="a_clust2"><a xlink:title="type: *github.com/go&#45;i2p/logger.Logger">
<path fill="#eed8ae" stroke="#000000" stroke-width=".5" d="M402.1614,-16C402.1614,-16 480.3802,-16 480.3802,-16 486.3802,-16 492.3802,-22 492.3802,-28 492.3802,-28 492.3802,-265 492.3802,-265 492.3802,-271 486.3802,-277 480.3802,-277 480.3802,-277 402.1614,-277 402.1614,-277 396.1614,-277 390.1614,-271 390.1614,-265 390.1614,-265 390.1614,-28 390.1614,-28 390.1614,-22 396.1614,-16 402.1614,-16"/>
<text text-anchor="middle" x="441.2708" y="-24.5" font-family="Arial" font-size="15.00" fill="#222222">(*Logger)</text>
</a>
</g>
</g>
<!-- github.com/go&#45;i2p/common/session_tag.NewSessionTag -->
<g id="node1" class="node">
<title>github.com/go&#45;i2p/common/session_tag.NewSessionTag</title>
<g id="a_node1"><a xlink:title="github.com/go&#45;i2p/common/session_tag.NewSessionTag | defined in utils.go:38&#10;at utils.go:39: calling [(*github.com/go&#45;i2p/logger.Logger).WithField]&#10;at utils.go:39: calling [(*github.com/sirupsen/logrus.Logger).Debug]&#10;at utils.go:48: calling [(*github.com/sirupsen/logrus.Logger).Debug]&#10;at utils.go:42: calling [(*github.com/go&#45;i2p/logger.Logger).WithError]&#10;at utils.go:42: calling [(*github.com/go&#45;i2p/logger.Logger).Error]&#10;at utils.go:46: calling [(*github.com/go&#45;i2p/logger.Logger).WithFields]&#10;at utils.go:40: calling [github.com/go&#45;i2p/common/session_tag.ReadSessionTag]">
<path fill="#add8e6" stroke="#000000" stroke-width="1.5" d="M118.958,-201C118.958,-201 28.014,-201 28.014,-201 22.014,-201 16.014,-195 16.014,-189 16.014,-189 16.014,-177 16.014,-177 16.014,-171 22.014,-165 28.014,-165 28.014,-165 118.958,-165 118.958,-165 124.958,-165 130.958,-171 130.958,-177 130.958,-177 130.958,-189 130.958,-189 130.958,-195 124.958,-201 118.958,-201"/>
<text text-anchor="middle" x="73.486" y="-178.8" font-family="Verdana" font-size="14.00" fill="#000000">NewSessionTag</text>
</a>
</g>
</g>
<!-- github.com/go&#45;i2p/common/session_tag.ReadSessionTag -->
<g id="node2" class="node">
<title>github.com/go&#45;i2p/common/session_tag.ReadSessionTag</title>
<g id="a_node2"><a xlink:title="github.com/go&#45;i2p/common/session_tag.ReadSessionTag | defined in utils.go:15&#10;at utils.go:31: calling [(*github.com/sirupsen/logrus.Logger).Debug]&#10;at utils.go:17: calling [(*github.com/go&#45;i2p/logger.Logger).WithFields]&#10;at utils.go:29: calling [(*github.com/go&#45;i2p/logger.Logger).WithFields]&#10;at utils.go:21: calling [(*github.com/go&#45;i2p/logger.Logger).Error]&#10;at utils.go:22: calling [github.com/samber/oops.Errorf]">
<path fill="#add8e6" stroke="#000000" stroke-width="1.5" d="M311.3771,-272C311.3771,-272 217.7563,-272 217.7563,-272 211.7563,-272 205.7563,-266 205.7563,-260 205.7563,-260 205.7563,-248 205.7563,-248 205.7563,-242 211.7563,-236 217.7563,-236 217.7563,-236 311.3771,-236 311.3771,-236 317.3771,-236 323.3771,-242 323.3771,-248 323.3771,-248 323.3771,-260 323.3771,-260 323.3771,-266 317.3771,-272 311.3771,-272"/>
<text text-anchor="middle" x="264.5667" y="-249.8" font-family="Verdana" font-size="14.00" fill="#000000">ReadSessionTag</text>
</a>
</g>
</g>
<!-- github.com/go&#45;i2p/common/session_tag.NewSessionTag&#45;&gt;github.com/go&#45;i2p/common/session_tag.ReadSessionTag -->
<g id="edge11" class="edge">
<title>github.com/go&#45;i2p/common/session_tag.NewSessionTag&#45;&gt;github.com/go&#45;i2p/common/session_tag.ReadSessionTag</title>
<g id="a_edge11"><a xlink:title="at utils.go:40: calling [github.com/go&#45;i2p/common/session_tag.ReadSessionTag]">
<path fill="none" stroke="#000000" d="M122.1981,-201.1C147.8023,-210.6138 179.3677,-222.3425 206.2649,-232.3368"/>
<polygon fill="#000000" stroke="#000000" points="205.3506,-235.7308 215.9435,-235.933 207.7888,-229.1691 205.3506,-235.7308"/>
</a>
</g>
</g>
<!-- (*github.com/go&#45;i2p/logger.Logger).WithField -->
<g id="node6" class="node">
<title>(*github.com/go&#45;i2p/logger.Logger).WithField</title>
<g id="a_node6"><a xlink:title="(*github.com/go&#45;i2p/logger.Logger).WithField | defined in log.go:54">
<path fill="#ffe4b5" stroke="#000000" stroke-width="1.5" d="M469.5453,-86C469.5453,-86 412.9963,-86 412.9963,-86 406.9963,-86 400.9963,-80 400.9963,-74 400.9963,-74 400.9963,-62 400.9963,-62 400.9963,-56 406.9963,-50 412.9963,-50 412.9963,-50 469.5453,-50 469.5453,-50 475.5453,-50 481.5453,-56 481.5453,-62 481.5453,-62 481.5453,-74 481.5453,-74 481.5453,-80 475.5453,-86 469.5453,-86"/>
<text text-anchor="middle" x="441.2708" y="-72.2" font-family="Verdana" font-size="14.00" fill="#000000">logger</text>
<text text-anchor="middle" x="441.2708" y="-55.4" font-family="Verdana" font-size="14.00" fill="#000000">WithField</text>
</a>
</g>
</g>
<!-- github.com/go&#45;i2p/common/session_tag.NewSessionTag&#45;&gt;(*github.com/go&#45;i2p/logger.Logger).WithField -->
<g id="edge1" class="edge">
<title>github.com/go&#45;i2p/common/session_tag.NewSessionTag&#45;&gt;(*github.com/go&#45;i2p/logger.Logger).WithField</title>
<g id="a_edge1"><a xlink:title="at utils.go:39: calling [(*github.com/go&#45;i2p/logger.Logger).WithField]">
<path fill="none" stroke="#8b4513" d="M108.4598,-164.9551C134.3169,-152.1691 170.6701,-135.3397 203.972,-124 267.0063,-102.5361 342.177,-86.3053 390.7666,-76.981"/>
<polygon fill="#8b4513" stroke="#8b4513" points="391.5435,-80.3962 400.7177,-75.0967 390.2411,-73.5184 391.5435,-80.3962"/>
</a>
</g>
</g>
<!-- (*github.com/go&#45;i2p/logger.Logger).WithFields -->
<g id="node7" class="node">
<title>(*github.com/go&#45;i2p/logger.Logger).WithFields</title>
<g id="a_node7"><a xlink:title="(*github.com/go&#45;i2p/logger.Logger).WithFields | defined in log.go:60">
<path fill="#ffe4b5" stroke="#000000" stroke-width="1.5" d="M472.4899,-147C472.4899,-147 410.0517,-147 410.0517,-147 404.0517,-147 398.0517,-141 398.0517,-135 398.0517,-135 398.0517,-123 398.0517,-123 398.0517,-117 404.0517,-111 410.0517,-111 410.0517,-111 472.4899,-111 472.4899,-111 478.4899,-111 484.4899,-117 484.4899,-123 484.4899,-123 484.4899,-135 484.4899,-135 484.4899,-141 478.4899,-147 472.4899,-147"/>
<text text-anchor="middle" x="441.2708" y="-133.2" font-family="Verdana" font-size="14.00" fill="#000000">logger</text>
<text text-anchor="middle" x="441.2708" y="-116.4" font-family="Verdana" font-size="14.00" fill="#000000">WithFields</text>
</a>
</g>
</g>
<!-- github.com/go&#45;i2p/common/session_tag.NewSessionTag&#45;&gt;(*github.com/go&#45;i2p/logger.Logger).WithFields -->
<g id="edge6" class="edge">
<title>github.com/go&#45;i2p/common/session_tag.NewSessionTag&#45;&gt;(*github.com/go&#45;i2p/logger.Logger).WithFields</title>
<g id="a_edge6"><a xlink:title="at utils.go:46: calling [(*github.com/go&#45;i2p/logger.Logger).WithFields]">
<path fill="none" stroke="#8b4513" d="M115.5743,-164.8932C131.4062,-158.8323 149.7463,-152.686 166.972,-149 242.4177,-132.8561 331.9041,-129.1239 387.6483,-128.5669"/>
<polygon fill="#8b4513" stroke="#8b4513" points="388.0172,-132.0646 397.993,-128.4963 387.9693,-125.0647 388.0172,-132.0646"/>
</a>
</g>
</g>
<!-- (*github.com/go&#45;i2p/logger.Logger).Error -->
<g id="node8" class="node">
<title>(*github.com/go&#45;i2p/logger.Logger).Error</title>
<g id="a_node8"><a xlink:title="(*github.com/go&#45;i2p/logger.Logger).Error | defined in log.go:42">
<path fill="#ffe4b5" stroke="#000000" stroke-width="1.5" d="M459.0371,-269C459.0371,-269 423.5045,-269 423.5045,-269 417.5045,-269 411.5045,-263 411.5045,-257 411.5045,-257 411.5045,-245 411.5045,-245 411.5045,-239 417.5045,-233 423.5045,-233 423.5045,-233 459.0371,-233 459.0371,-233 465.0371,-233 471.0371,-239 471.0371,-245 471.0371,-245 471.0371,-257 471.0371,-257 471.0371,-263 465.0371,-269 459.0371,-269"/>
<text text-anchor="middle" x="441.2708" y="-255.2" font-family="Verdana" font-size="14.00" fill="#000000">logger</text>
<text text-anchor="middle" x="441.2708" y="-238.4" font-family="Verdana" font-size="14.00" fill="#000000">Error</text>
</a>
</g>
</g>
<!-- github.com/go&#45;i2p/common/session_tag.NewSessionTag&#45;&gt;(*github.com/go&#45;i2p/logger.Logger).Error -->
<g id="edge5" class="edge">
<title>github.com/go&#45;i2p/common/session_tag.NewSessionTag&#45;&gt;(*github.com/go&#45;i2p/logger.Logger).Error</title>
<g id="a_edge5"><a xlink:title="at utils.go:42: calling [(*github.com/go&#45;i2p/logger.Logger).Error]">
<path fill="none" stroke="#8b4513" d="M131.3149,-179.4234C143.1083,-178.8301 155.4362,-178.3083 166.972,-178 252.9975,-175.7012 349.2978,-210.5078 401.8247,-232.8665"/>
<polygon fill="#8b4513" stroke="#8b4513" points="400.5433,-236.1256 411.1109,-236.8848 403.3232,-229.7012 400.5433,-236.1256"/>
</a>
</g>
</g>
<!-- (*github.com/go&#45;i2p/logger.Logger).WithError -->
<g id="node9" class="node">
<title>(*github.com/go&#45;i2p/logger.Logger).WithError</title>
<g id="a_node9"><a xlink:title="(*github.com/go&#45;i2p/logger.Logger).WithError | defined in log.go:66">
<path fill="#ffe4b5" stroke="#000000" stroke-width="1.5" d="M469.8023,-208C469.8023,-208 412.7393,-208 412.7393,-208 406.7393,-208 400.7393,-202 400.7393,-196 400.7393,-196 400.7393,-184 400.7393,-184 400.7393,-178 406.7393,-172 412.7393,-172 412.7393,-172 469.8023,-172 469.8023,-172 475.8023,-172 481.8023,-178 481.8023,-184 481.8023,-184 481.8023,-196 481.8023,-196 481.8023,-202 475.8023,-208 469.8023,-208"/>
<text text-anchor="middle" x="441.2708" y="-194.2" font-family="Verdana" font-size="14.00" fill="#000000">logger</text>
<text text-anchor="middle" x="441.2708" y="-177.4" font-family="Verdana" font-size="14.00" fill="#000000">WithError</text>
</a>
</g>
</g>
<!-- github.com/go&#45;i2p/common/session_tag.NewSessionTag&#45;&gt;(*github.com/go&#45;i2p/logger.Logger).WithError -->
<g id="edge4" class="edge">
<title>github.com/go&#45;i2p/common/session_tag.NewSessionTag&#45;&gt;(*github.com/go&#45;i2p/logger.Logger).WithError</title>
<g id="a_edge4"><a xlink:title="at utils.go:42: calling [(*github.com/go&#45;i2p/logger.Logger).WithError]">
<path fill="none" stroke="#8b4513" d="M131.357,-184.1015C202.6464,-185.4583 322.6224,-187.7418 390.4893,-189.0335"/>
<polygon fill="#8b4513" stroke="#8b4513" points="390.4507,-192.5333 400.5155,-189.2243 390.5839,-185.5346 390.4507,-192.5333"/>
</a>
</g>
</g>
<!-- (*github.com/sirupsen/logrus.Logger).Debug -->
<g id="node10" class="node">
<title>(*github.com/sirupsen/logrus.Logger).Debug</title>
<g id="a_node10"><a xlink:title="(*github.com/sirupsen/logrus.Logger).Debug | defined in logger.go:221">
<path fill="#ffe4b5" stroke="#000000" stroke-width="1.5" d="M460.0928,-408C460.0928,-408 422.4488,-408 422.4488,-408 416.4488,-408 410.4488,-402 410.4488,-396 410.4488,-396 410.4488,-384 410.4488,-384 410.4488,-378 416.4488,-372 422.4488,-372 422.4488,-372 460.0928,-372 460.0928,-372 466.0928,-372 472.0928,-378 472.0928,-384 472.0928,-384 472.0928,-396 472.0928,-396 472.0928,-402 466.0928,-408 460.0928,-408"/>
<text text-anchor="middle" x="441.2708" y="-394.2" font-family="Verdana" font-size="14.00" fill="#000000">logrus</text>
<text text-anchor="middle" x="441.2708" y="-377.4" font-family="Verdana" font-size="14.00" fill="#000000">Debug</text>
</a>
</g>
</g>
<!-- github.com/go&#45;i2p/common/session_tag.NewSessionTag&#45;&gt;(*github.com/sirupsen/logrus.Logger).Debug -->
<g id="edge2" class="edge">
<title>github.com/go&#45;i2p/common/session_tag.NewSessionTag&#45;&gt;(*github.com/sirupsen/logrus.Logger).Debug</title>
<g id="a_edge2"><a xlink:title="at utils.go:39: calling [(*github.com/sirupsen/logrus.Logger).Debug]&#10;at utils.go:48: calling [(*github.com/sirupsen/logrus.Logger).Debug]">
<path fill="none" stroke="#8b4513" d="M93.5871,-201.2707C118.2852,-223.0951 162.0814,-259.8092 203.972,-285 281.6153,-331.6906 307.175,-331.6441 390.1614,-368 393.7422,-369.5687 397.4682,-371.1913 401.2038,-372.8114"/>
<polygon fill="#8b4513" stroke="#8b4513" points="399.8648,-376.0455 410.4326,-376.8016 402.6428,-369.6204 399.8648,-376.0455"/>
</a>
</g>
</g>
<!-- github.com/samber/oops.Errorf -->
<g id="node3" class="node">
<title>github.com/samber/oops.Errorf</title>
<g id="a_node3"><a xlink:title="github.com/samber/oops.Errorf | defined in oops.go:34">
<path fill="#ffe4b5" stroke="#000000" stroke-width="1.5" d="M458.4661,-330C458.4661,-330 424.0755,-330 424.0755,-330 418.0755,-330 412.0755,-324 412.0755,-318 412.0755,-318 412.0755,-306 412.0755,-306 412.0755,-300 418.0755,-294 424.0755,-294 424.0755,-294 458.4661,-294 458.4661,-294 464.4661,-294 470.4661,-300 470.4661,-306 470.4661,-306 470.4661,-318 470.4661,-318 470.4661,-324 464.4661,-330 458.4661,-330"/>
<text text-anchor="middle" x="441.2708" y="-316.2" font-family="Verdana" font-size="14.00" fill="#000000">oops</text>
<text text-anchor="middle" x="441.2708" y="-299.4" font-family="Verdana" font-size="14.00" fill="#000000">Errorf</text>
</a>
</g>
</g>
<!-- github.com/go&#45;i2p/common/session_tag.ReadSessionTag&#45;&gt;github.com/samber/oops.Errorf -->
<g id="edge10" class="edge">
<title>github.com/go&#45;i2p/common/session_tag.ReadSessionTag&#45;&gt;github.com/samber/oops.Errorf</title>
<g id="a_edge10"><a xlink:title="at utils.go:22: calling [github.com/samber/oops.Errorf]">
<path fill="none" stroke="#8b4513" d="M319.5084,-272.0336C346.3996,-280.8602 378.1336,-291.2763 402.4619,-299.2617"/>
<polygon fill="#8b4513" stroke="#8b4513" points="401.471,-302.6201 412.0638,-302.4133 403.6541,-295.9692 401.471,-302.6201"/>
</a>
</g>
</g>
<!-- github.com/go&#45;i2p/common/session_tag.ReadSessionTag&#45;&gt;(*github.com/go&#45;i2p/logger.Logger).WithFields -->
<g id="edge8" class="edge">
<title>github.com/go&#45;i2p/common/session_tag.ReadSessionTag&#45;&gt;(*github.com/go&#45;i2p/logger.Logger).WithFields</title>
<g id="a_edge8"><a xlink:title="at utils.go:17: calling [(*github.com/go&#45;i2p/logger.Logger).WithFields]&#10;at utils.go:29: calling [(*github.com/go&#45;i2p/logger.Logger).WithFields]">
<path fill="none" stroke="#8b4513" d="M287.227,-235.9891C312.0101,-216.5417 353.1427,-184.9935 390.1614,-160 393.8907,-157.4821 397.8229,-154.9278 401.7823,-152.4218"/>
<polygon fill="#8b4513" stroke="#8b4513" points="403.7829,-155.2993 410.4253,-147.0453 400.0854,-149.3554 403.7829,-155.2993"/>
</a>
</g>
</g>
<!-- github.com/go&#45;i2p/common/session_tag.ReadSessionTag&#45;&gt;(*github.com/go&#45;i2p/logger.Logger).Error -->
<g id="edge9" class="edge">
<title>github.com/go&#45;i2p/common/session_tag.ReadSessionTag&#45;&gt;(*github.com/go&#45;i2p/logger.Logger).Error</title>
<g id="a_edge9"><a xlink:title="at utils.go:21: calling [(*github.com/go&#45;i2p/logger.Logger).Error]">
<path fill="none" stroke="#8b4513" d="M323.4066,-253.001C349.0032,-252.5665 378.3334,-252.0685 401.332,-251.6781"/>
<polygon fill="#8b4513" stroke="#8b4513" points="401.4781,-255.1762 411.4172,-251.5068 401.3592,-248.1772 401.4781,-255.1762"/>
</a>
</g>
</g>
<!-- github.com/go&#45;i2p/common/session_tag.ReadSessionTag&#45;&gt;(*github.com/sirupsen/logrus.Logger).Debug -->
<g id="edge3" class="edge">
<title>github.com/go&#45;i2p/common/session_tag.ReadSessionTag&#45;&gt;(*github.com/sirupsen/logrus.Logger).Debug</title>
<g id="a_edge3"><a xlink:title="at utils.go:31: calling [(*github.com/sirupsen/logrus.Logger).Debug]">
<path fill="none" stroke="#8b4513" d="M280.9275,-272.2243C303.5581,-296.5894 346.5771,-339.9555 390.1614,-368 393.68,-370.2641 397.471,-372.3918 401.3415,-374.3645"/>
<polygon fill="#8b4513" stroke="#8b4513" points="399.8915,-377.5504 410.4262,-378.6773 402.8935,-371.2268 399.8915,-377.5504"/>
</a>
</g>
</g>
<!-- github.com/go&#45;i2p/common/session_tag.init -->
<g id="node4" class="node">
<title>github.com/go&#45;i2p/common/session_tag.init</title>
<g id="a_node4"><a xlink:title="github.com/go&#45;i2p/common/session_tag.init | defined in .:0&#10;at utils.go:10: calling [github.com/go&#45;i2p/logger.GetGoI2PLogger]">
<path fill="#add8e6" stroke="#000000" stroke-width=".5" d="M88.486,-58C88.486,-58 58.486,-58 58.486,-58 52.486,-58 46.486,-52 46.486,-46 46.486,-46 46.486,-34 46.486,-34 46.486,-28 52.486,-22 58.486,-22 58.486,-22 88.486,-22 88.486,-22 94.486,-22 100.486,-28 100.486,-34 100.486,-34 100.486,-46 100.486,-46 100.486,-52 94.486,-58 88.486,-58"/>
<text text-anchor="middle" x="73.486" y="-35.8" font-family="Verdana" font-size="14.00" fill="#000000">init</text>
</a>
</g>
</g>
<!-- github.com/go&#45;i2p/logger.GetGoI2PLogger -->
<g id="node5" class="node">
<title>github.com/go&#45;i2p/logger.GetGoI2PLogger</title>
<g id="a_node5"><a xlink:title="github.com/go&#45;i2p/logger.GetGoI2PLogger | defined in log.go:120">
<path fill="#ffe4b5" stroke="#000000" stroke-width="1.5" d="M313.2562,-58C313.2562,-58 215.8772,-58 215.8772,-58 209.8772,-58 203.8772,-52 203.8772,-46 203.8772,-46 203.8772,-34 203.8772,-34 203.8772,-28 209.8772,-22 215.8772,-22 215.8772,-22 313.2562,-22 313.2562,-22 319.2562,-22 325.2562,-28 325.2562,-34 325.2562,-34 325.2562,-46 325.2562,-46 325.2562,-52 319.2562,-58 313.2562,-58"/>
<text text-anchor="middle" x="264.5667" y="-44.2" font-family="Verdana" font-size="14.00" fill="#000000">logger</text>
<text text-anchor="middle" x="264.5667" y="-27.4" font-family="Verdana" font-size="14.00" fill="#000000">GetGoI2PLogger</text>
</a>
</g>
</g>
<!-- github.com/go&#45;i2p/common/session_tag.init&#45;&gt;github.com/go&#45;i2p/logger.GetGoI2PLogger -->
<g id="edge7" class="edge">
<title>github.com/go&#45;i2p/common/session_tag.init&#45;&gt;github.com/go&#45;i2p/logger.GetGoI2PLogger</title>
<g id="a_edge7"><a xlink:title="at utils.go:10: calling [github.com/go&#45;i2p/logger.GetGoI2PLogger]">
<path fill="none" stroke="#8b4513" d="M100.8632,-40C124.9805,-40 161.1891,-40 193.4256,-40"/>
<polygon fill="#8b4513" stroke="#8b4513" points="193.7322,-43.5001 203.7321,-40 193.7321,-36.5001 193.7322,-43.5001"/>
</a>
</g>
</g>
</g>
</svg>
