<?xml version="1.0" encoding="UTF-8" standalone="no"?>
<!DOCTYPE svg PUBLIC "-//W3C//DTD SVG 1.1//EN"
 "http://www.w3.org/Graphics/SVG/1.1/DTD/svg11.dtd">
<!-- Generated by graphviz version 2.40.1 (20161225.0304)
 -->
<!-- Title: gocallvis Pages: 1 -->
<svg width="497pt" height="439pt"
 viewBox="0.00 0.00 497.49 439.00" xmlns="http://www.w3.org/2000/svg" xmlns:xlink="http://www.w3.org/1999/xlink">
<g id="graph0" class="graph" transform="scale(1 1) rotate(0) translate(0 439)">
<title>gocallvis</title>
<polygon fill="#d3d3d3" stroke="transparent" points="0,0 0,-439 497.4896,-439 497.4896,0 0,0"/>
<g id="clust1" class="cluster">
<title>cluster_focus</title>
<polygon fill="#e6ecfa" stroke="#000000" stroke-width=".5" points="8,-8 8,-431 489.4896,-431 489.4896,-8 8,-8"/>
<text text-anchor="middle" x="248.7448" y="-410.8" font-family="Arial" font-size="18.00" fill="#000000">signature</text>
</g>
<g id="clust4" class="cluster">
<title>cluster_github.com/go&#45;i2p/common/signature.Signature</title>
<g id="a_clust4"><a xlink:title="type: github.com/go&#45;i2p/common/signature.Signature">
<path fill="#b0c4de" stroke="#000000" stroke-width=".5" d="M220.6761,-315C220.6761,-315 286.6761,-315 286.6761,-315 292.6761,-315 298.6761,-321 298.6761,-327 298.6761,-327 298.6761,-381 298.6761,-381 298.6761,-387 292.6761,-393 286.6761,-393 286.6761,-393 220.6761,-393 220.6761,-393 214.6761,-393 208.6761,-387 208.6761,-381 208.6761,-381 208.6761,-327 208.6761,-327 208.6761,-321 214.6761,-315 220.6761,-315"/>
<text text-anchor="middle" x="253.6761" y="-323.5" font-family="Arial" font-size="15.00" fill="#222222">(Signature)</text>
</a>
</g>
</g>
<g id="clust3" class="cluster">
<title>cluster_*github.com/sirupsen/logrus.Logger</title>
<g id="a_clust3"><a xlink:title="type: *github.com/sirupsen/logrus.Logger">
<path fill="#eed8ae" stroke="#000000" stroke-width=".5" d="M227.0155,-229C227.0155,-229 281.3367,-229 281.3367,-229 287.3367,-229 293.3367,-235 293.3367,-241 293.3367,-241 293.3367,-295 293.3367,-295 293.3367,-301 287.3367,-307 281.3367,-307 281.3367,-307 227.0155,-307 227.0155,-307 221.0155,-307 215.0155,-301 215.0155,-295 215.0155,-295 215.0155,-241 215.0155,-241 215.0155,-235 221.0155,-229 227.0155,-229"/>
<text text-anchor="middle" x="254.1761" y="-237.5" font-family="Arial" font-size="15.00" fill="#222222">(*Logger)</text>
</a>
</g>
</g>
<g id="clust2" class="cluster">
<title>cluster_*github.com/go&#45;i2p/logger.Logger</title>
<g id="a_clust2"><a xlink:title="type: *github.com/go&#45;i2p/logger.Logger">
<path fill="#eed8ae" stroke="#000000" stroke-width=".5" d="M391.2708,-60C391.2708,-60 469.4896,-60 469.4896,-60 475.4896,-60 481.4896,-66 481.4896,-72 481.4896,-72 481.4896,-309 481.4896,-309 481.4896,-315 475.4896,-321 469.4896,-321 469.4896,-321 391.2708,-321 391.2708,-321 385.2708,-321 379.2708,-315 379.2708,-309 379.2708,-309 379.2708,-72 379.2708,-72 379.2708,-66 385.2708,-60 391.2708,-60"/>
<text text-anchor="middle" x="430.3802" y="-68.5" font-family="Arial" font-size="15.00" fill="#222222">(*Logger)</text>
</a>
</g>
</g>
<!-- github.com/go&#45;i2p/common/signature.NewSignature -->
<g id="node1" class="node">
<title>github.com/go&#45;i2p/common/signature.NewSignature</title>
<g id="a_node1"><a xlink:title="github.com/go&#45;i2p/common/signature.NewSignature | defined in signature_struct.go:39&#10;at signature_struct.go:40: calling [(*github.com/go&#45;i2p/logger.Logger).WithField]&#10;at signature_struct.go:40: calling [(*github.com/sirupsen/logrus.Logger).Debug]&#10;at signature_struct.go:53: calling [(*github.com/sirupsen/logrus.Logger).Debug]&#10;at signature_struct.go:51: calling [(github.com/go&#45;i2p/common/signature.Signature).Len]&#10;at signature_struct.go:44: calling [github.com/go&#45;i2p/common/signature.ReadSignature]&#10;at signature_struct.go:46: calling [(*github.com/go&#45;i2p/logger.Logger).WithError]&#10;at signature_struct.go:46: calling [(*github.com/go&#45;i2p/logger.Logger).Error]&#10;at signature_struct.go:50: calling [(*github.com/go&#45;i2p/logger.Logger).WithFields]">
<path fill="#add8e6" stroke="#000000" stroke-width="1.5" d="M108.1221,-211C108.1221,-211 27.9593,-211 27.9593,-211 21.9593,-211 15.9593,-205 15.9593,-199 15.9593,-199 15.9593,-187 15.9593,-187 15.9593,-181 21.9593,-175 27.9593,-175 27.9593,-175 108.1221,-175 108.1221,-175 114.1221,-175 120.1221,-181 120.1221,-187 120.1221,-187 120.1221,-199 120.1221,-199 120.1221,-205 114.1221,-211 108.1221,-211"/>
<text text-anchor="middle" x="68.0407" y="-188.8" font-family="Verdana" font-size="14.00" fill="#000000">NewSignature</text>
</a>
</g>
</g>
<!-- github.com/go&#45;i2p/common/signature.ReadSignature -->
<g id="node2" class="node">
<title>github.com/go&#45;i2p/common/signature.ReadSignature</title>
<g id="a_node2"><a xlink:title="github.com/go&#45;i2p/common/signature.ReadSignature | defined in utils.go:18&#10;at utils.go:52: calling [(*github.com/go&#45;i2p/logger.Logger).WithError]&#10;at utils.go:52: calling [(*github.com/go&#45;i2p/logger.Logger).Error]&#10;at utils.go:44: calling [github.com/samber/oops.Errorf]&#10;at utils.go:51: calling [github.com/samber/oops.Errorf]">
<path fill="#add8e6" stroke="#000000" stroke-width="1.5" d="M295.0963,-113C295.0963,-113 212.2559,-113 212.2559,-113 206.2559,-113 200.2559,-107 200.2559,-101 200.2559,-101 200.2559,-89 200.2559,-89 200.2559,-83 206.2559,-77 212.2559,-77 212.2559,-77 295.0963,-77 295.0963,-77 301.0963,-77 307.0963,-83 307.0963,-89 307.0963,-89 307.0963,-101 307.0963,-101 307.0963,-107 301.0963,-113 295.0963,-113"/>
<text text-anchor="middle" x="253.6761" y="-90.8" font-family="Verdana" font-size="14.00" fill="#000000">ReadSignature</text>
</a>
</g>
</g>
<!-- github.com/go&#45;i2p/common/signature.NewSignature&#45;&gt;github.com/go&#45;i2p/common/signature.ReadSignature -->
<g id="edge7" class="edge">
<title>github.com/go&#45;i2p/common/signature.NewSignature&#45;&gt;github.com/go&#45;i2p/common/signature.ReadSignature</title>
<g id="a_edge7"><a xlink:title="at signature_struct.go:44: calling [github.com/go&#45;i2p/common/signature.ReadSignature]">
<path fill="none" stroke="#000000" d="M90.9645,-174.7956C108.1789,-161.7145 132.7109,-144.2904 156.0814,-132 167.0278,-126.2433 179.0747,-120.9262 190.8571,-116.2234"/>
<polygon fill="#000000" stroke="#000000" points="192.1683,-119.469 200.2236,-112.5869 189.6348,-112.9435 192.1683,-119.469"/>
</a>
</g>
</g>
<!-- (*github.com/go&#45;i2p/logger.Logger).WithField -->
<g id="node6" class="node">
<title>(*github.com/go&#45;i2p/logger.Logger).WithField</title>
<g id="a_node6"><a xlink:title="(*github.com/go&#45;i2p/logger.Logger).WithField | defined in log.go:54">
<path fill="#ffe4b5" stroke="#000000" stroke-width="1.5" d="M458.6547,-313C458.6547,-313 402.1057,-313 402.1057,-313 396.1057,-313 390.1057,-307 390.1057,-301 390.1057,-301 390.1057,-289 390.1057,-289 390.1057,-283 396.1057,-277 402.1057,-277 402.1057,-277 458.6547,-277 458.6547,-277 464.6547,-277 470.6547,-283 470.6547,-289 470.6547,-289 470.6547,-301 470.6547,-301 470.6547,-307 464.6547,-313 458.6547,-313"/>
<text text-anchor="middle" x="430.3802" y="-299.2" font-family="Verdana" font-size="14.00" fill="#000000">logger</text>
<text text-anchor="middle" x="430.3802" y="-282.4" font-family="Verdana" font-size="14.00" fill="#000000">WithField</text>
</a>
</g>
</g>
<!-- github.com/go&#45;i2p/common/signature.NewSignature&#45;&gt;(*github.com/go&#45;i2p/logger.Logger).WithField -->
<g id="edge1" class="edge">
<title>github.com/go&#45;i2p/common/signature.NewSignature&#45;&gt;(*github.com/go&#45;i2p/logger.Logger).WithField</title>
<g id="a_edge1"><a xlink:title="at signature_struct.go:40: calling [(*github.com/go&#45;i2p/logger.Logger).WithField]">
<path fill="none" stroke="#8b4513" d="M120.2575,-199.718C192.1965,-208.9828 313.1296,-224.5957 314.2708,-225 346.2447,-236.3264 350.198,-247.5246 379.2708,-265 382.8918,-267.1766 386.6662,-269.4267 390.4515,-271.6709"/>
<polygon fill="#8b4513" stroke="#8b4513" points="388.8465,-274.7878 399.2369,-276.8589 392.4059,-268.7603 388.8465,-274.7878"/>
</a>
</g>
</g>
<!-- (*github.com/go&#45;i2p/logger.Logger).WithError -->
<g id="node7" class="node">
<title>(*github.com/go&#45;i2p/logger.Logger).WithError</title>
<g id="a_node7"><a xlink:title="(*github.com/go&#45;i2p/logger.Logger).WithError | defined in log.go:66">
<path fill="#ffe4b5" stroke="#000000" stroke-width="1.5" d="M458.9117,-130C458.9117,-130 401.8487,-130 401.8487,-130 395.8487,-130 389.8487,-124 389.8487,-118 389.8487,-118 389.8487,-106 389.8487,-106 389.8487,-100 395.8487,-94 401.8487,-94 401.8487,-94 458.9117,-94 458.9117,-94 464.9117,-94 470.9117,-100 470.9117,-106 470.9117,-106 470.9117,-118 470.9117,-118 470.9117,-124 464.9117,-130 458.9117,-130"/>
<text text-anchor="middle" x="430.3802" y="-116.2" font-family="Verdana" font-size="14.00" fill="#000000">logger</text>
<text text-anchor="middle" x="430.3802" y="-99.4" font-family="Verdana" font-size="14.00" fill="#000000">WithError</text>
</a>
</g>
</g>
<!-- github.com/go&#45;i2p/common/signature.NewSignature&#45;&gt;(*github.com/go&#45;i2p/logger.Logger).WithError -->
<g id="edge8" class="edge">
<title>github.com/go&#45;i2p/common/signature.NewSignature&#45;&gt;(*github.com/go&#45;i2p/logger.Logger).WithError</title>
<g id="a_edge8"><a xlink:title="at signature_struct.go:46: calling [(*github.com/go&#45;i2p/logger.Logger).WithError]">
<path fill="none" stroke="#8b4513" d="M120.341,-181.3084C189.5934,-165.8272 310.9326,-138.7022 379.4763,-123.3794"/>
<polygon fill="#8b4513" stroke="#8b4513" points="380.6053,-126.7135 389.6008,-121.1161 379.0781,-119.8821 380.6053,-126.7135"/>
</a>
</g>
</g>
<!-- (*github.com/go&#45;i2p/logger.Logger).Error -->
<g id="node8" class="node">
<title>(*github.com/go&#45;i2p/logger.Logger).Error</title>
<g id="a_node8"><a xlink:title="(*github.com/go&#45;i2p/logger.Logger).Error | defined in log.go:42">
<path fill="#ffe4b5" stroke="#000000" stroke-width="1.5" d="M448.1465,-191C448.1465,-191 412.6139,-191 412.6139,-191 406.6139,-191 400.6139,-185 400.6139,-179 400.6139,-179 400.6139,-167 400.6139,-167 400.6139,-161 406.6139,-155 412.6139,-155 412.6139,-155 448.1465,-155 448.1465,-155 454.1465,-155 460.1465,-161 460.1465,-167 460.1465,-167 460.1465,-179 460.1465,-179 460.1465,-185 454.1465,-191 448.1465,-191"/>
<text text-anchor="middle" x="430.3802" y="-177.2" font-family="Verdana" font-size="14.00" fill="#000000">logger</text>
<text text-anchor="middle" x="430.3802" y="-160.4" font-family="Verdana" font-size="14.00" fill="#000000">Error</text>
</a>
</g>
</g>
<!-- github.com/go&#45;i2p/common/signature.NewSignature&#45;&gt;(*github.com/go&#45;i2p/logger.Logger).Error -->
<g id="edge9" class="edge">
<title>github.com/go&#45;i2p/common/signature.NewSignature&#45;&gt;(*github.com/go&#45;i2p/logger.Logger).Error</title>
<g id="a_edge9"><a xlink:title="at signature_struct.go:46: calling [(*github.com/go&#45;i2p/logger.Logger).Error]">
<path fill="none" stroke="#8b4513" d="M120.1615,-188.5787C131.9676,-187.6544 144.4516,-186.7377 156.0814,-186 239.2706,-180.7229 336.7772,-176.5901 390.2392,-174.5001"/>
<polygon fill="#8b4513" stroke="#8b4513" points="390.47,-177.9939 400.3271,-174.1096 390.1992,-170.9991 390.47,-177.9939"/>
</a>
</g>
</g>
<!-- (*github.com/go&#45;i2p/logger.Logger).WithFields -->
<g id="node9" class="node">
<title>(*github.com/go&#45;i2p/logger.Logger).WithFields</title>
<g id="a_node9"><a xlink:title="(*github.com/go&#45;i2p/logger.Logger).WithFields | defined in log.go:60">
<path fill="#ffe4b5" stroke="#000000" stroke-width="1.5" d="M461.5993,-252C461.5993,-252 399.1611,-252 399.1611,-252 393.1611,-252 387.1611,-246 387.1611,-240 387.1611,-240 387.1611,-228 387.1611,-228 387.1611,-222 393.1611,-216 399.1611,-216 399.1611,-216 461.5993,-216 461.5993,-216 467.5993,-216 473.5993,-222 473.5993,-228 473.5993,-228 473.5993,-240 473.5993,-240 473.5993,-246 467.5993,-252 461.5993,-252"/>
<text text-anchor="middle" x="430.3802" y="-238.2" font-family="Verdana" font-size="14.00" fill="#000000">logger</text>
<text text-anchor="middle" x="430.3802" y="-221.4" font-family="Verdana" font-size="14.00" fill="#000000">WithFields</text>
</a>
</g>
</g>
<!-- github.com/go&#45;i2p/common/signature.NewSignature&#45;&gt;(*github.com/go&#45;i2p/logger.Logger).WithFields -->
<g id="edge10" class="edge">
<title>github.com/go&#45;i2p/common/signature.NewSignature&#45;&gt;(*github.com/go&#45;i2p/logger.Logger).WithFields</title>
<g id="a_edge10"><a xlink:title="at signature_struct.go:50: calling [(*github.com/go&#45;i2p/logger.Logger).WithFields]">
<path fill="none" stroke="#8b4513" d="M120.3289,-193.7413C177.4303,-195.2353 271.4043,-199.7024 351.2708,-213 359.7336,-214.409 368.6047,-216.3215 377.2209,-218.4215"/>
<polygon fill="#8b4513" stroke="#8b4513" points="376.6245,-221.8812 387.1787,-220.954 378.3499,-215.0972 376.6245,-221.8812"/>
</a>
</g>
</g>
<!-- (*github.com/sirupsen/logrus.Logger).Debug -->
<g id="node10" class="node">
<title>(*github.com/sirupsen/logrus.Logger).Debug</title>
<g id="a_node10"><a xlink:title="(*github.com/sirupsen/logrus.Logger).Debug | defined in logger.go:221">
<path fill="#ffe4b5" stroke="#000000" stroke-width="1.5" d="M272.4981,-299C272.4981,-299 234.8541,-299 234.8541,-299 228.8541,-299 222.8541,-293 222.8541,-287 222.8541,-287 222.8541,-275 222.8541,-275 222.8541,-269 228.8541,-263 234.8541,-263 234.8541,-263 272.4981,-263 272.4981,-263 278.4981,-263 284.4981,-269 284.4981,-275 284.4981,-275 284.4981,-287 284.4981,-287 284.4981,-293 278.4981,-299 272.4981,-299"/>
<text text-anchor="middle" x="253.6761" y="-285.2" font-family="Verdana" font-size="14.00" fill="#000000">logrus</text>
<text text-anchor="middle" x="253.6761" y="-268.4" font-family="Verdana" font-size="14.00" fill="#000000">Debug</text>
</a>
</g>
</g>
<!-- github.com/go&#45;i2p/common/signature.NewSignature&#45;&gt;(*github.com/sirupsen/logrus.Logger).Debug -->
<g id="edge2" class="edge">
<title>github.com/go&#45;i2p/common/signature.NewSignature&#45;&gt;(*github.com/sirupsen/logrus.Logger).Debug</title>
<g id="a_edge2"><a xlink:title="at signature_struct.go:40: calling [(*github.com/sirupsen/logrus.Logger).Debug]&#10;at signature_struct.go:53: calling [(*github.com/sirupsen/logrus.Logger).Debug]">
<path fill="none" stroke="#8b4513" d="M99.3101,-211.0457C124.2512,-225.06 160.3135,-244.4859 193.0814,-259 199.4754,-261.8321 206.358,-264.5924 213.1098,-267.1471"/>
<polygon fill="#8b4513" stroke="#8b4513" points="212.2428,-270.5575 222.8362,-270.7275 214.6609,-263.9884 212.2428,-270.5575"/>
</a>
</g>
</g>
<!-- (github.com/go&#45;i2p/common/signature.Signature).Len -->
<g id="node11" class="node">
<title>(github.com/go&#45;i2p/common/signature.Signature).Len</title>
<g id="a_node11"><a xlink:title="(github.com/go&#45;i2p/common/signature.Signature).Len | defined in signature_struct.go:89">
<path fill="#add8e6" stroke="#000000" stroke-width="1.5" d="M268.6761,-385C268.6761,-385 238.6761,-385 238.6761,-385 232.6761,-385 226.6761,-379 226.6761,-373 226.6761,-373 226.6761,-361 226.6761,-361 226.6761,-355 232.6761,-349 238.6761,-349 238.6761,-349 268.6761,-349 268.6761,-349 274.6761,-349 280.6761,-355 280.6761,-361 280.6761,-361 280.6761,-373 280.6761,-373 280.6761,-379 274.6761,-385 268.6761,-385"/>
<text text-anchor="middle" x="253.6761" y="-362.8" font-family="Verdana" font-size="14.00" fill="#000000">Len</text>
</a>
</g>
</g>
<!-- github.com/go&#45;i2p/common/signature.NewSignature&#45;&gt;(github.com/go&#45;i2p/common/signature.Signature).Len -->
<g id="edge5" class="edge">
<title>github.com/go&#45;i2p/common/signature.NewSignature&#45;&gt;(github.com/go&#45;i2p/common/signature.Signature).Len</title>
<g id="a_edge5"><a xlink:title="at signature_struct.go:51: calling [(github.com/go&#45;i2p/common/signature.Signature).Len]">
<path fill="none" stroke="#000000" d="M86.4792,-211.1074C110.6931,-234.7909 154.646,-277.4534 193.0814,-313 203.5509,-322.6827 215.2126,-333.149 225.4876,-342.2661"/>
<polygon fill="#000000" stroke="#000000" points="223.2229,-344.9356 233.032,-348.9397 227.8608,-339.6925 223.2229,-344.9356"/>
</a>
</g>
</g>
<!-- github.com/samber/oops.Errorf -->
<g id="node3" class="node">
<title>github.com/samber/oops.Errorf</title>
<g id="a_node3"><a xlink:title="github.com/samber/oops.Errorf | defined in oops.go:34">
<path fill="#ffe4b5" stroke="#000000" stroke-width="1.5" d="M447.5755,-52C447.5755,-52 413.1849,-52 413.1849,-52 407.1849,-52 401.1849,-46 401.1849,-40 401.1849,-40 401.1849,-28 401.1849,-28 401.1849,-22 407.1849,-16 413.1849,-16 413.1849,-16 447.5755,-16 447.5755,-16 453.5755,-16 459.5755,-22 459.5755,-28 459.5755,-28 459.5755,-40 459.5755,-40 459.5755,-46 453.5755,-52 447.5755,-52"/>
<text text-anchor="middle" x="430.3802" y="-38.2" font-family="Verdana" font-size="14.00" fill="#000000">oops</text>
<text text-anchor="middle" x="430.3802" y="-21.4" font-family="Verdana" font-size="14.00" fill="#000000">Errorf</text>
</a>
</g>
</g>
<!-- github.com/go&#45;i2p/common/signature.ReadSignature&#45;&gt;github.com/samber/oops.Errorf -->
<g id="edge6" class="edge">
<title>github.com/go&#45;i2p/common/signature.ReadSignature&#45;&gt;github.com/samber/oops.Errorf</title>
<g id="a_edge6"><a xlink:title="at utils.go:44: calling [github.com/samber/oops.Errorf]&#10;at utils.go:51: calling [github.com/samber/oops.Errorf]">
<path fill="none" stroke="#8b4513" d="M306.2147,-76.8631C333.6073,-67.407 366.5284,-56.0423 391.5875,-47.3916"/>
<polygon fill="#8b4513" stroke="#8b4513" points="392.8093,-50.6726 401.1198,-44.101 390.5251,-44.0558 392.8093,-50.6726"/>
</a>
</g>
</g>
<!-- github.com/go&#45;i2p/common/signature.ReadSignature&#45;&gt;(*github.com/go&#45;i2p/logger.Logger).WithError -->
<g id="edge3" class="edge">
<title>github.com/go&#45;i2p/common/signature.ReadSignature&#45;&gt;(*github.com/go&#45;i2p/logger.Logger).WithError</title>
<g id="a_edge3"><a xlink:title="at utils.go:52: calling [(*github.com/go&#45;i2p/logger.Logger).WithError]">
<path fill="none" stroke="#8b4513" d="M307.1727,-100.1467C330.1637,-102.3586 356.9049,-104.9312 379.5878,-107.1135"/>
<polygon fill="#8b4513" stroke="#8b4513" points="379.4068,-110.6121 389.696,-108.0859 380.0772,-103.6443 379.4068,-110.6121"/>
</a>
</g>
</g>
<!-- github.com/go&#45;i2p/common/signature.ReadSignature&#45;&gt;(*github.com/go&#45;i2p/logger.Logger).Error -->
<g id="edge4" class="edge">
<title>github.com/go&#45;i2p/common/signature.ReadSignature&#45;&gt;(*github.com/go&#45;i2p/logger.Logger).Error</title>
<g id="a_edge4"><a xlink:title="at utils.go:52: calling [(*github.com/go&#45;i2p/logger.Logger).Error]">
<path fill="none" stroke="#8b4513" d="M294.6597,-113.0908C323.6965,-125.9081 362.4246,-143.0033 391.0775,-155.6512"/>
<polygon fill="#8b4513" stroke="#8b4513" points="389.818,-158.921 400.3797,-159.7573 392.6448,-152.5171 389.818,-158.921"/>
</a>
</g>
</g>
<!-- github.com/go&#45;i2p/common/signature.init -->
<g id="node4" class="node">
<title>github.com/go&#45;i2p/common/signature.init</title>
<g id="a_node4"><a xlink:title="github.com/go&#45;i2p/common/signature.init | defined in .:0&#10;at signature.go:8: calling [github.com/go&#45;i2p/logger.GetGoI2PLogger]">
<path fill="#add8e6" stroke="#000000" stroke-width=".5" d="M83.0407,-52C83.0407,-52 53.0407,-52 53.0407,-52 47.0407,-52 41.0407,-46 41.0407,-40 41.0407,-40 41.0407,-28 41.0407,-28 41.0407,-22 47.0407,-16 53.0407,-16 53.0407,-16 83.0407,-16 83.0407,-16 89.0407,-16 95.0407,-22 95.0407,-28 95.0407,-28 95.0407,-40 95.0407,-40 95.0407,-46 89.0407,-52 83.0407,-52"/>
<text text-anchor="middle" x="68.0407" y="-29.8" font-family="Verdana" font-size="14.00" fill="#000000">init</text>
</a>
</g>
</g>
<!-- github.com/go&#45;i2p/logger.GetGoI2PLogger -->
<g id="node5" class="node">
<title>github.com/go&#45;i2p/logger.GetGoI2PLogger</title>
<g id="a_node5"><a xlink:title="github.com/go&#45;i2p/logger.GetGoI2PLogger | defined in log.go:120">
<path fill="#ffe4b5" stroke="#000000" stroke-width="1.5" d="M302.3656,-52C302.3656,-52 204.9866,-52 204.9866,-52 198.9866,-52 192.9866,-46 192.9866,-40 192.9866,-40 192.9866,-28 192.9866,-28 192.9866,-22 198.9866,-16 204.9866,-16 204.9866,-16 302.3656,-16 302.3656,-16 308.3656,-16 314.3656,-22 314.3656,-28 314.3656,-28 314.3656,-40 314.3656,-40 314.3656,-46 308.3656,-52 302.3656,-52"/>
<text text-anchor="middle" x="253.6761" y="-38.2" font-family="Verdana" font-size="14.00" fill="#000000">logger</text>
<text text-anchor="middle" x="253.6761" y="-21.4" font-family="Verdana" font-size="14.00" fill="#000000">GetGoI2PLogger</text>
</a>
</g>
</g>
<!-- github.com/go&#45;i2p/common/signature.init&#45;&gt;github.com/go&#45;i2p/logger.GetGoI2PLogger -->
<g id="edge11" class="edge">
<title>github.com/go&#45;i2p/common/signature.init&#45;&gt;github.com/go&#45;i2p/logger.GetGoI2PLogger</title>
<g id="a_edge11"><a xlink:title="at signature.go:8: calling [github.com/go&#45;i2p/logger.GetGoI2PLogger]">
<path fill="none" stroke="#8b4513" d="M95.4318,-34C118.3566,-34 152.1155,-34 182.5704,-34"/>
<polygon fill="#8b4513" stroke="#8b4513" points="182.7516,-37.5001 192.7515,-34 182.7515,-30.5001 182.7516,-37.5001"/>
</a>
</g>
</g>
</g>
</svg>
